<?xml version="1.0" standalone="no"?>
<!DOCTYPE svg PUBLIC "-//W3C//DTD SVG 1.1//EN" "http://www.w3.org/Graphics/SVG/1.1/DTD/svg11.dtd" >
<svg xmlns="http://www.w3.org/2000/svg" xmlns:xlink="http://www.w3.org/1999/xlink" version="1.1">
<metadata>
Created by FontForge 20170812 at Wed May 22 06:48:28 2019
 By root
Copyright (c) 2019 by Debut Studio. All rights reserved.
</metadata>
<defs>
<font id="Aprilea" horiz-adv-x="800" >
  <font-face 
    font-family="Aprilea"
    font-weight="400"
    font-stretch="normal"
    units-per-em="1000"
    panose-1="0 0 0 0 0 0 0 0 0 0"
    ascent="800"
    descent="-200"
    x-height="480.5"
    cap-height="794"
    bbox="-132.615 -340 1269 1020"
    underline-thickness="50"
    underline-position="-100"
    unicode-range="U+0020-201D"
  />
    <missing-glyph />
    <glyph glyph-name="space" unicode=" " horiz-adv-x="297" 
 />
    <glyph glyph-name="question" unicode="?" horiz-adv-x="376" 
d="M379 551q3 -6 13.5 -28t13 -52.5t-9.5 -66.5t-53 -70q-63 -53 -106 -107t-71 -99q-33 -52 -53 -101q-32 5 -44 17.5t-14 24.5q-3 14 4 30q9 33 34 71t57.5 76t67 76t63.5 72t47.5 62t17.5 48q-1 26 -14.5 38.5t-47.5 6.5q-23 -6 -48.5 -21t-54.5 -42q-22 -20 -35.5 -38.5
t-21 -34t-10 -29t-1.5 -24.5q2 -26 19 -44q-52 30 -72 68q-9 16 -11.5 35.5t6 41t30.5 46t62 51.5q66 44 109 52t69 -1.5t38.5 -28.5t15.5 -29zM117 -44q0 -24 -17 -41.5t-41 -17.5q-25 0 -42 17.5t-17 41.5t17 41.5t42 17.5q24 0 41 -17.5t17 -41.5z" />
    <glyph glyph-name="two" unicode="2" horiz-adv-x="468" 
d="M245 45q30 -8 51.5 -10.5t35.5 -1t21.5 5.5t10.5 10q5 -15 3 -26q-2 -10 -10 -18.5t-28 -7.5q-16 1 -36 4t-41 8v-37q32 -13 64 -24.5t57 -30.5q29 -22 33.5 -39.5t-1.5 -30.5q-8 -15 -27 -26q9 18 0 35.5t-28 34t-45.5 32t-52.5 29.5v-33l-12 2v37v1q-21 11 -39 21.5
t-29 20.5q-12 9 -18 20q-8 -3 -10 -5l-3 -3q-7 -5 -12.5 -15t-5.5 -27q0 -24 13 -41.5t33 -27.5t43.5 -13.5t43.5 -1.5t34 9.5t16 19.5q7 -20 3 -36q-3 -14 -15.5 -24.5t-41.5 -8.5q-8 0 -30.5 5t-46 19t-42 38.5t-18.5 63.5q0 28 6.5 44.5t14.5 24.5q9 10 21 13q5 2 24.5 2
t63.5 -12zM175 24h-5q5 -8 12 -14q12 -11 26.5 -18.5t31.5 -14.5v34l-1 1q-8 2 -15 3t-14 3q-20 6 -33 6h-2zM367 527q-3 36 7.5 51t24.5 18q16 4 37 -3q-19 -5 -26.5 -22t-7.5 -42t5.5 -54t11.5 -58t11.5 -54.5t5.5 -42.5q0 -14 -3 -25t-8 -19q-10 -19 -30 -28.5t-44.5 -13
t-50.5 -2t-47 5.5q-13 2 -24 3.5t-17 3.5q0 -6 -2 -14l-4 -13l73 -20h3l7 -2h-1q7 -3 18.5 -8t22.5 -14t18.5 -21.5t7.5 -28.5q2 -11 0 -18.5t-3 -10.5q16 -3 30.5 -4.5t25.5 -3.5q13 -2 25 -2q0 -15 -1.5 -23t-4.5 -11t-8.5 -2.5t-14.5 1.5q-5 1 -24.5 4t-41.5 7
q-11 2 -33 5.5t-44 7.5q-26 4 -55 10q-3 6 -3.5 13t0.5 13q1 7 3 14q-6 8 -7 12q-8 27 7.5 41t46.5 10q4 -1 14 -3q18 -4 31.5 -9t23.5 -10q-9 8 -21.5 15t-31.5 14h1q-9 2 -24 6l-30 8t-28 7t-18 5q-6 2 -7 6.5t2.5 7.5t11.5 4t20 -5l2 -2q1 2 2 6q2 8 2 23v9q0 7 2 13
q1 3 1 5q20 -7 44.5 -12t46.5 -8q16 -2 37.5 -2t41 5t33 17t13.5 35q0 24 -8 49t-17.5 51.5t-18.5 52.5t-11 52zM293 144q-9 2 -23 5t-27 3.5t-22.5 -2t-9.5 -11.5q0 -14 11 -19q4 -1 8 -1.5t9 -1.5q13 -3 28.5 -6t29.5 -6t25.5 -5t16.5 -3h1q0 1 1 3t1 3t1 3q1 10 -6.5 17
t-17 11.5t-18 7zM177 344q8 -2 13.5 -7.5t5.5 -12.5q0 -8 -5.5 -12t-13.5 -2q-8 1 -14 6.5t-6 12.5q0 8 6 12t14 3zM185 734q-7 20 -3 36q3 14 15 24.5t42 8.5q8 0 28.5 -4.5t43 -16.5t41 -33t23.5 -54q1 -22 -5 -39q-5 -14 -17.5 -26t-37.5 -12q17 -6 30.5 -15t13.5 -26
q0 -19 -15.5 -25t-33.5 -6q16 -8 25.5 -17.5t14.5 -19.5t6.5 -18.5t1.5 -14.5q2 -17 -8 -31t-33 -16q17 -5 29 -14t12 -26q0 -18 -13.5 -24t-31.5 -7q18 -5 31.5 -14t13.5 -27q0 -16 -12.5 -22.5t-33.5 -7t-48.5 4t-57.5 9.5q-2 6 -2.5 13t0.5 13l2 14q22 -7 48 -12t49 -8
q3 0 10 -0.5t14 -0.5t12 1.5t5 4.5q0 13 -20 20t-41 14q-5 0 -9 1t-8 1q-9 2 -18 3t-17 3q-2 0 -4 0.5t-5 0.5v1q-31 6 -63.5 15t-58.5 23q-1 -5 -1.5 -10t-0.5 -10q0 -24 8 -49t18 -51.5t19 -53t11 -51.5q2 -37 -8 -51.5t-24 -18.5q-16 -4 -38 3q19 5 26.5 22.5t8 42.5
t-5 54t-11.5 58t-11.5 54.5t-5.5 42.5q0 7 0.5 13.5t1.5 11.5q-15 11 -24 23t-9 27q0 20 8 31.5t21 14.5t28 -1t30 -14q24 -17 31.5 -37.5t7.5 -35.5q-12 14 -30 17t-32 -6q15 -6 31 -10.5t29 -7.5q7 -1 15.5 -3t17.5 -4q12 -2 22 -4t12 -3q14 -3 28 -5t27 -4h1q11 -2 21 -2
q8 0 15 1t7 6q0 7 -6 12t-15 8.5t-20 7t-21 6.5q-2 0 -2.5 0.5t-2.5 0.5q-44 13 -60 30t-20 30q-1 1 -1 3q-1 4 -1 11v4q2 17 12 22t22 2q2 -1 4 -1l1 -1q17 -9 27 -19t16 -19.5t8 -18t2 -12.5q20 -2 34 0.5t19 11.5q4 17 -1 29.5t-14.5 21t-20.5 13.5t-17 7q-8 0 -14 2
q-3 1 -5 1q-38 8 -57 28t-11 45q2 6 7 9h-1q-2 7 -2.5 14t0.5 13l2 14q18 -6 39.5 -10.5t41.5 -7.5h1l2 -1q2 0 5 -0.5t6 -0.5q8 -1 20 -1t22.5 4t17.5 13t5 26q-2 21 -16 35.5t-33.5 22.5t-42 10.5t-42 -0.5t-33 -10.5t-14.5 -18.5zM254 472q6 -2 11.5 -3t10.5 -3
q-5 15 -13.5 25.5t-17.5 17t-16 9.5l-7 3q-8 1 -11 -4q-1 -3 -1 -5t0.5 -7t4 -10.5t12.5 -11.5t27 -11zM63 476q0 -10 10 -18.5t25 -15.5q11 15 27 18.5t34 -3.5q-11 15 -27.5 25t-31.5 13t-26 -1.5t-11 -17.5zM266 623q-13 2 -25 3.5t-21 3.5q-4 -2 -6.5 -4.5t-2.5 -9.5
q0 -10 12 -16.5t28 -10.5t30.5 -6t20.5 -2q1 0 8 -1t15 -1t14 1.5t6 5.5q0 7 -6.5 12t-16.5 9t-22 7.5t-22 6.5q-8 2 -12 2zM171 539q0 -13 -3.5 -16t-8.5 -2t-12 6h2q5 0 8.5 3t3.5 9q0 7 -4.5 14t-12.5 7t-14 -5t-11.5 -11t-10.5 -11t-12 -5q-11 0 -17.5 8.5t-5.5 21.5
q-1 12 5 16.5t14 2.5q6 -1 8 -7q1 -3 0 -6q-10 6 -15 4q-6 -2 -6 -10q0 -5 3 -10t8 -5q7 0 12 4.5t9.5 10t11 10t16.5 4.5q17 0 24.5 -9.5t7.5 -23.5zM169 595q1 -10 -7 -16t-25 -1t-23.5 12t-8.5 12v1q-1 1 -1 4v2q1 7 5 9t9 0t5 -5v-4q-8 5 -11 3q-2 -1 -2 -3t2 -7t16 -9
q12 -4 21.5 -3.5t12.5 5.5q2 8 -1.5 13t-8.5 9q-6 4 -14 7q-10 2 -19 5q-8 2 -15.5 3.5t-9.5 2.5q-5 2 -2 6t13 -1h1q1 0 1 2q0 4 1 9q-1 2 -0.5 3.5t0.5 3.5t1 3q8 -2 18.5 -4t19.5 -4h10t7 3q0 5 -8.5 7.5t-16.5 5.5q-7 1 -14.5 2t-15.5 3q-2 2 -1.5 5.5t0.5 5.5q0 3 1 5
q8 -3 18.5 -5t19.5 -3q3 -1 10 -1t7 3q0 5 -8.5 8t-17.5 5l-10 2l-10 2t-10 1q-1 2 -1 5.5v5.5q0 3 1 6h1q-3 1 -3 4q-3 11 3 16.5t18 4.5q2 0 3 -0.5t3 -0.5q7 -2 12 -4l10 -4q-9 7 -19 11h-5v1q-6 0 -12 2q-2 0 -10 2v-4h-4v4q-5 1 -9 1.5t-8 1.5l-8 2q-1 2 -1 5.5v5.5
q0 3 1 5q2 -1 9.5 -2.5t15.5 -3.5v7l4 -1v-6q10 -3 15 -3q6 -2 12 -3t11 -2h10t7 3q0 5 -9 8t-17 5l2 3q9 -4 19 -7t10 -13q0 -8 -6.5 -10.5t-14.5 -1.5q6 -4 13 -10t7 -16q1 -5 0 -7.5t-2 -4.5q7 -2 12.5 -2t10.5 -1t10 -1q0 -12 -2.5 -13.5t-8.5 -0.5q-2 0 -10 1t-17 3
q-1 1 -3 1q11 -6 11 -14q0 -12 -18 -12q8 -2 13 -5.5t5 -10.5q0 -6 -4.5 -9t-10.5 -3.5t-12.5 0.5t-10.5 2q-6 1 -11.5 1.5t-8.5 1.5q0 -4 -1 -5l-1 -6l31 -8q20 -5 24.5 -15.5t4.5 -15.5zM162 709q0 1 0.5 1t0.5 2q0 7 -10 11q-4 2 -10 3q-7 2 -20 3.5t-13 -5.5q0 -5 5 -7
q2 0 3.5 -0.5t3.5 -0.5q11 -2 23 -4.5t17 -3.5v1zM105 683q0 -8 -8 -6t-8 8t8 6q8 -2 8 -8z" />
    <glyph glyph-name="slash" unicode="/" horiz-adv-x="200" 
d="M253 572q-55 -182 -91 -327q-15 -62 -28.5 -122t-20.5 -108.5t-6.5 -80t12.5 -36.5q-5 1 -25.5 3t-42.5 10t-38 26t-12 51q1 16 9 52t20 83t26 102t29 110q34 128 77 282q17 4 34 1q14 -2 29.5 -12t27.5 -34z" />
    <glyph glyph-name="six" unicode="6" horiz-adv-x="451" 
d="M245 45q30 -8 51.5 -10.5t35.5 -1t21.5 5.5t10.5 10q5 -15 3 -26q-2 -10 -10 -18.5t-28 -7.5q-16 1 -36 4t-41 8v-37q32 -13 64 -24.5t57 -30.5q29 -22 33.5 -39.5t-1.5 -30.5q-8 -15 -27 -26q9 18 0 35.5t-28 34t-45.5 32t-52.5 29.5v-33l-12 2v37v1q-21 11 -39 21.5
t-29 20.5q-12 9 -18 20q-8 -3 -10 -5l-3 -3q-7 -5 -12.5 -15t-5.5 -27q0 -24 13 -41.5t33 -27.5t43.5 -13.5t43.5 -1.5t34 9.5t16 19.5q7 -20 3 -36q-3 -14 -15.5 -24.5t-41.5 -8.5q-8 0 -30.5 5t-46 19t-42 38.5t-18.5 63.5q0 28 6.5 44.5t14.5 24.5q9 10 21 13q5 2 24.5 2
t63.5 -12zM175 24h-5q5 -8 12 -14q12 -11 26.5 -18.5t31.5 -14.5v34l-1 1q-8 2 -15 3t-14 3q-20 6 -33 6h-2zM367 527q-3 36 7.5 51t24.5 18q16 4 37 -3q-19 -5 -26.5 -22t-7.5 -42t5.5 -54t11.5 -58t11.5 -54.5t5.5 -42.5q0 -14 -3 -25t-8 -19q-10 -19 -30 -28.5t-44.5 -13
t-50.5 -2t-47 5.5q-13 2 -24 3.5t-17 3.5q0 -6 -2 -14l-4 -13l73 -20h3l7 -2h-1q7 -3 18.5 -8t22.5 -14t18.5 -21.5t7.5 -28.5q2 -11 0 -18.5t-3 -10.5q16 -3 30.5 -4.5t25.5 -3.5q13 -2 25 -2q0 -15 -1.5 -23t-4.5 -11t-8.5 -2.5t-14.5 1.5q-5 1 -24.5 4t-41.5 7
q-11 2 -33 5.5t-44 7.5q-26 4 -55 10q-3 6 -3.5 13t0.5 13q1 7 3 14q-6 8 -7 12q-8 27 7.5 41t46.5 10q4 -1 14 -3q18 -4 31.5 -9t23.5 -10q-9 8 -21.5 15t-31.5 14h1q-9 2 -24 6l-30 8t-28 7t-18 5q-6 2 -7 6.5t2.5 7.5t11.5 4t20 -5l2 -2q1 2 2 6q2 8 2 23v9q0 7 2 13
q1 3 1 5q20 -7 44.5 -12t46.5 -8q16 -2 37.5 -2t41 5t33 17t13.5 35q0 24 -8 49t-17.5 51.5t-18.5 52.5t-11 52zM293 144q-9 2 -23 5t-27 3.5t-22.5 -2t-9.5 -11.5q0 -14 11 -19q4 -1 8 -1.5t9 -1.5q13 -3 28.5 -6t29.5 -6t25.5 -5t16.5 -3h1q0 1 1 3t1 3t1 3q1 10 -6.5 17
t-17 11.5t-18 7zM177 344q8 -2 13.5 -7.5t5.5 -12.5q0 -8 -5.5 -12t-13.5 -2q-8 1 -14 6.5t-6 12.5q0 8 6 12t14 3zM185 734q-7 20 -3 36q3 14 15 24.5t42 8.5q8 0 28.5 -4.5t43 -16.5t41 -33t23.5 -54q1 -22 -5 -39q-5 -14 -17.5 -26t-37.5 -12q17 -6 30.5 -15t13.5 -26
q0 -19 -15.5 -25t-33.5 -6q16 -8 25.5 -17.5t14.5 -19.5t6.5 -18.5t1.5 -14.5q2 -17 -8 -31t-33 -16q17 -5 29 -14t12 -26q0 -18 -13.5 -24t-31.5 -7q18 -5 31.5 -14t13.5 -27q0 -16 -12.5 -22.5t-33.5 -7t-48.5 4t-57.5 9.5q-2 6 -2.5 13t0.5 13l2 14q22 -7 48 -12t49 -8
q3 0 10 -0.5t14 -0.5t12 1.5t5 4.5q0 13 -20 20t-41 14q-5 0 -9 1t-8 1q-9 2 -18 3t-17 3q-2 0 -4 0.5t-5 0.5v1q-31 6 -63.5 15t-58.5 23q-1 -5 -1.5 -10t-0.5 -10q0 -24 8 -49t18 -51.5t19 -53t11 -51.5q2 -37 -8 -51.5t-24 -18.5q-16 -4 -38 3q19 5 26.5 22.5t8 42.5
t-5 54t-11.5 58t-11.5 54.5t-5.5 42.5q0 7 0.5 13.5t1.5 11.5q-15 11 -24 23t-9 27q0 20 8 31.5t21 14.5t28 -1t30 -14q24 -17 31.5 -37.5t7.5 -35.5q-12 14 -30 17t-32 -6q15 -6 31 -10.5t29 -7.5q7 -1 15.5 -3t17.5 -4q12 -2 22 -4t12 -3q14 -3 28 -5t27 -4h1q11 -2 21 -2
q8 0 15 1t7 6q0 7 -6 12t-15 8.5t-20 7t-21 6.5q-2 0 -2.5 0.5t-2.5 0.5q-44 13 -60 30t-20 30q-1 1 -1 3q-1 4 -1 11v4q2 17 12 22t22 2q2 -1 4 -1l1 -1q17 -9 27 -19t16 -19.5t8 -18t2 -12.5q20 -2 34 0.5t19 11.5q4 17 -1 29.5t-14.5 21t-20.5 13.5t-17 7q-8 0 -14 2
q-3 1 -5 1q-38 8 -57 28t-11 45q2 6 7 9h-1q-2 7 -2.5 14t0.5 13l2 14q18 -6 39.5 -10.5t41.5 -7.5h1l2 -1q2 0 5 -0.5t6 -0.5q8 -1 20 -1t22.5 4t17.5 13t5 26q-2 21 -16 35.5t-33.5 22.5t-42 10.5t-42 -0.5t-33 -10.5t-14.5 -18.5zM254 472q6 -2 11.5 -3t10.5 -3
q-5 15 -13.5 25.5t-17.5 17t-16 9.5l-7 3q-8 1 -11 -4q-1 -3 -1 -5t0.5 -7t4 -10.5t12.5 -11.5t27 -11zM63 476q0 -10 10 -18.5t25 -15.5q11 15 27 18.5t34 -3.5q-11 15 -27.5 25t-31.5 13t-26 -1.5t-11 -17.5zM266 623q-13 2 -25 3.5t-21 3.5q-4 -2 -6.5 -4.5t-2.5 -9.5
q0 -10 12 -16.5t28 -10.5t30.5 -6t20.5 -2q1 0 8 -1t15 -1t14 1.5t6 5.5q0 7 -6.5 12t-16.5 9t-22 7.5t-22 6.5q-8 2 -12 2zM171 539q0 -13 -3.5 -16t-8.5 -2t-12 6h2q5 0 8.5 3t3.5 9q0 7 -4.5 14t-12.5 7t-14 -5t-11.5 -11t-10.5 -11t-12 -5q-11 0 -17.5 8.5t-5.5 21.5
q-1 12 5 16.5t14 2.5q6 -1 8 -7q1 -3 0 -6q-10 6 -15 4q-6 -2 -6 -10q0 -5 3 -10t8 -5q7 0 12 4.5t9.5 10t11 10t16.5 4.5q17 0 24.5 -9.5t7.5 -23.5zM169 595q1 -10 -7 -16t-25 -1t-23.5 12t-8.5 12v1q-1 1 -1 4v2q1 7 5 9t9 0t5 -5v-4q-8 5 -11 3q-2 -1 -2 -3t2 -7t16 -9
q12 -4 21.5 -3.5t12.5 5.5q2 8 -1.5 13t-8.5 9q-6 4 -14 7q-10 2 -19 5q-8 2 -15.5 3.5t-9.5 2.5q-5 2 -2 6t13 -1h1q1 0 1 2q0 4 1 9q-1 2 -0.5 3.5t0.5 3.5t1 3q8 -2 18.5 -4t19.5 -4h10t7 3q0 5 -8.5 7.5t-16.5 5.5q-7 1 -14.5 2t-15.5 3q-2 2 -1.5 5.5t0.5 5.5q0 3 1 5
q8 -3 18.5 -5t19.5 -3q3 -1 10 -1t7 3q0 5 -8.5 8t-17.5 5l-10 2l-10 2t-10 1q-1 2 -1 5.5v5.5q0 3 1 6h1q-3 1 -3 4q-3 11 3 16.5t18 4.5q2 0 3 -0.5t3 -0.5q7 -2 12 -4l10 -4q-9 7 -19 11h-5v1q-6 0 -12 2q-2 0 -10 2v-4h-4v4q-5 1 -9 1.5t-8 1.5l-8 2q-1 2 -1 5.5v5.5
q0 3 1 5q2 -1 9.5 -2.5t15.5 -3.5v7l4 -1v-6q10 -3 15 -3q6 -2 12 -3t11 -2h10t7 3q0 5 -9 8t-17 5l2 3q9 -4 19 -7t10 -13q0 -8 -6.5 -10.5t-14.5 -1.5q6 -4 13 -10t7 -16q1 -5 0 -7.5t-2 -4.5q7 -2 12.5 -2t10.5 -1t10 -1q0 -12 -2.5 -13.5t-8.5 -0.5q-2 0 -10 1t-17 3
q-1 1 -3 1q11 -6 11 -14q0 -12 -18 -12q8 -2 13 -5.5t5 -10.5q0 -6 -4.5 -9t-10.5 -3.5t-12.5 0.5t-10.5 2q-6 1 -11.5 1.5t-8.5 1.5q0 -4 -1 -5l-1 -6l31 -8q20 -5 24.5 -15.5t4.5 -15.5zM162 709q0 1 0.5 1t0.5 2q0 7 -10 11q-4 2 -10 3q-7 2 -20 3.5t-13 -5.5q0 -5 5 -7
q2 0 3.5 -0.5t3.5 -0.5q11 -2 23 -4.5t17 -3.5v1zM105 683q0 -8 -8 -6t-8 8t8 6q8 -2 8 -8z" />
    <glyph glyph-name="three" unicode="3" horiz-adv-x="436" 
d="M245 45q30 -8 51.5 -10.5t35.5 -1t21.5 5.5t10.5 10q5 -15 3 -26q-2 -10 -10 -18.5t-28 -7.5q-16 1 -36 4t-41 8v-37q32 -13 64 -24.5t57 -30.5q29 -22 33.5 -39.5t-1.5 -30.5q-8 -15 -27 -26q9 18 0 35.5t-28 34t-45.5 32t-52.5 29.5v-33l-12 2v37v1q-21 11 -39 21.5
t-29 20.5q-12 9 -18 20q-8 -3 -10 -5l-3 -3q-7 -5 -12.5 -15t-5.5 -27q0 -24 13 -41.5t33 -27.5t43.5 -13.5t43.5 -1.5t34 9.5t16 19.5q7 -20 3 -36q-3 -14 -15.5 -24.5t-41.5 -8.5q-8 0 -30.5 5t-46 19t-42 38.5t-18.5 63.5q0 28 6.5 44.5t14.5 24.5q9 10 21 13q5 2 24.5 2
t63.5 -12zM175 24h-5q5 -8 12 -14q12 -11 26.5 -18.5t31.5 -14.5v34l-1 1q-8 2 -15 3t-14 3q-20 6 -33 6h-2zM367 527q-3 36 7.5 51t24.5 18q16 4 37 -3q-19 -5 -26.5 -22t-7.5 -42t5.5 -54t11.5 -58t11.5 -54.5t5.5 -42.5q0 -14 -3 -25t-8 -19q-10 -19 -30 -28.5t-44.5 -13
t-50.5 -2t-47 5.5q-13 2 -24 3.5t-17 3.5q0 -6 -2 -14l-4 -13l73 -20h3l7 -2h-1q7 -3 18.5 -8t22.5 -14t18.5 -21.5t7.5 -28.5q2 -11 0 -18.5t-3 -10.5q16 -3 30.5 -4.5t25.5 -3.5q13 -2 25 -2q0 -15 -1.5 -23t-4.5 -11t-8.5 -2.5t-14.5 1.5q-5 1 -24.5 4t-41.5 7
q-11 2 -33 5.5t-44 7.5q-26 4 -55 10q-3 6 -3.5 13t0.5 13q1 7 3 14q-6 8 -7 12q-8 27 7.5 41t46.5 10q4 -1 14 -3q18 -4 31.5 -9t23.5 -10q-9 8 -21.5 15t-31.5 14h1q-9 2 -24 6l-30 8t-28 7t-18 5q-6 2 -7 6.5t2.5 7.5t11.5 4t20 -5l2 -2q1 2 2 6q2 8 2 23v9q0 7 2 13
q1 3 1 5q20 -7 44.5 -12t46.5 -8q16 -2 37.5 -2t41 5t33 17t13.5 35q0 24 -8 49t-17.5 51.5t-18.5 52.5t-11 52zM293 144q-9 2 -23 5t-27 3.5t-22.5 -2t-9.5 -11.5q0 -14 11 -19q4 -1 8 -1.5t9 -1.5q13 -3 28.5 -6t29.5 -6t25.5 -5t16.5 -3h1q0 1 1 3t1 3t1 3q1 10 -6.5 17
t-17 11.5t-18 7zM177 344q8 -2 13.5 -7.5t5.5 -12.5q0 -8 -5.5 -12t-13.5 -2q-8 1 -14 6.5t-6 12.5q0 8 6 12t14 3zM185 734q-7 20 -3 36q3 14 15 24.5t42 8.5q8 0 28.5 -4.5t43 -16.5t41 -33t23.5 -54q1 -22 -5 -39q-5 -14 -17.5 -26t-37.5 -12q17 -6 30.5 -15t13.5 -26
q0 -19 -15.5 -25t-33.5 -6q16 -8 25.5 -17.5t14.5 -19.5t6.5 -18.5t1.5 -14.5q2 -17 -8 -31t-33 -16q17 -5 29 -14t12 -26q0 -18 -13.5 -24t-31.5 -7q18 -5 31.5 -14t13.5 -27q0 -16 -12.5 -22.5t-33.5 -7t-48.5 4t-57.5 9.5q-2 6 -2.5 13t0.5 13l2 14q22 -7 48 -12t49 -8
q3 0 10 -0.5t14 -0.5t12 1.5t5 4.5q0 13 -20 20t-41 14q-5 0 -9 1t-8 1q-9 2 -18 3t-17 3q-2 0 -4 0.5t-5 0.5v1q-31 6 -63.5 15t-58.5 23q-1 -5 -1.5 -10t-0.5 -10q0 -24 8 -49t18 -51.5t19 -53t11 -51.5q2 -37 -8 -51.5t-24 -18.5q-16 -4 -38 3q19 5 26.5 22.5t8 42.5
t-5 54t-11.5 58t-11.5 54.5t-5.5 42.5q0 7 0.5 13.5t1.5 11.5q-15 11 -24 23t-9 27q0 20 8 31.5t21 14.5t28 -1t30 -14q24 -17 31.5 -37.5t7.5 -35.5q-12 14 -30 17t-32 -6q15 -6 31 -10.5t29 -7.5q7 -1 15.5 -3t17.5 -4q12 -2 22 -4t12 -3q14 -3 28 -5t27 -4h1q11 -2 21 -2
q8 0 15 1t7 6q0 7 -6 12t-15 8.5t-20 7t-21 6.5q-2 0 -2.5 0.5t-2.5 0.5q-44 13 -60 30t-20 30q-1 1 -1 3q-1 4 -1 11v4q2 17 12 22t22 2q2 -1 4 -1l1 -1q17 -9 27 -19t16 -19.5t8 -18t2 -12.5q20 -2 34 0.5t19 11.5q4 17 -1 29.5t-14.5 21t-20.5 13.5t-17 7q-8 0 -14 2
q-3 1 -5 1q-38 8 -57 28t-11 45q2 6 7 9h-1q-2 7 -2.5 14t0.5 13l2 14q18 -6 39.5 -10.5t41.5 -7.5h1l2 -1q2 0 5 -0.5t6 -0.5q8 -1 20 -1t22.5 4t17.5 13t5 26q-2 21 -16 35.5t-33.5 22.5t-42 10.5t-42 -0.5t-33 -10.5t-14.5 -18.5zM254 472q6 -2 11.5 -3t10.5 -3
q-5 15 -13.5 25.5t-17.5 17t-16 9.5l-7 3q-8 1 -11 -4q-1 -3 -1 -5t0.5 -7t4 -10.5t12.5 -11.5t27 -11zM63 476q0 -10 10 -18.5t25 -15.5q11 15 27 18.5t34 -3.5q-11 15 -27.5 25t-31.5 13t-26 -1.5t-11 -17.5zM266 623q-13 2 -25 3.5t-21 3.5q-4 -2 -6.5 -4.5t-2.5 -9.5
q0 -10 12 -16.5t28 -10.5t30.5 -6t20.5 -2q1 0 8 -1t15 -1t14 1.5t6 5.5q0 7 -6.5 12t-16.5 9t-22 7.5t-22 6.5q-8 2 -12 2zM171 539q0 -13 -3.5 -16t-8.5 -2t-12 6h2q5 0 8.5 3t3.5 9q0 7 -4.5 14t-12.5 7t-14 -5t-11.5 -11t-10.5 -11t-12 -5q-11 0 -17.5 8.5t-5.5 21.5
q-1 12 5 16.5t14 2.5q6 -1 8 -7q1 -3 0 -6q-10 6 -15 4q-6 -2 -6 -10q0 -5 3 -10t8 -5q7 0 12 4.5t9.5 10t11 10t16.5 4.5q17 0 24.5 -9.5t7.5 -23.5zM169 595q1 -10 -7 -16t-25 -1t-23.5 12t-8.5 12v1q-1 1 -1 4v2q1 7 5 9t9 0t5 -5v-4q-8 5 -11 3q-2 -1 -2 -3t2 -7t16 -9
q12 -4 21.5 -3.5t12.5 5.5q2 8 -1.5 13t-8.5 9q-6 4 -14 7q-10 2 -19 5q-8 2 -15.5 3.5t-9.5 2.5q-5 2 -2 6t13 -1h1q1 0 1 2q0 4 1 9q-1 2 -0.5 3.5t0.5 3.5t1 3q8 -2 18.5 -4t19.5 -4h10t7 3q0 5 -8.5 7.5t-16.5 5.5q-7 1 -14.5 2t-15.5 3q-2 2 -1.5 5.5t0.5 5.5q0 3 1 5
q8 -3 18.5 -5t19.5 -3q3 -1 10 -1t7 3q0 5 -8.5 8t-17.5 5l-10 2l-10 2t-10 1q-1 2 -1 5.5v5.5q0 3 1 6h1q-3 1 -3 4q-3 11 3 16.5t18 4.5q2 0 3 -0.5t3 -0.5q7 -2 12 -4l10 -4q-9 7 -19 11h-5v1q-6 0 -12 2q-2 0 -10 2v-4h-4v4q-5 1 -9 1.5t-8 1.5l-8 2q-1 2 -1 5.5v5.5
q0 3 1 5q2 -1 9.5 -2.5t15.5 -3.5v7l4 -1v-6q10 -3 15 -3q6 -2 12 -3t11 -2h10t7 3q0 5 -9 8t-17 5l2 3q9 -4 19 -7t10 -13q0 -8 -6.5 -10.5t-14.5 -1.5q6 -4 13 -10t7 -16q1 -5 0 -7.5t-2 -4.5q7 -2 12.5 -2t10.5 -1t10 -1q0 -12 -2.5 -13.5t-8.5 -0.5q-2 0 -10 1t-17 3
q-1 1 -3 1q11 -6 11 -14q0 -12 -18 -12q8 -2 13 -5.5t5 -10.5q0 -6 -4.5 -9t-10.5 -3.5t-12.5 0.5t-10.5 2q-6 1 -11.5 1.5t-8.5 1.5q0 -4 -1 -5l-1 -6l31 -8q20 -5 24.5 -15.5t4.5 -15.5zM162 709q0 1 0.5 1t0.5 2q0 7 -10 11q-4 2 -10 3q-7 2 -20 3.5t-13 -5.5q0 -5 5 -7
q2 0 3.5 -0.5t3.5 -0.5q11 -2 23 -4.5t17 -3.5v1zM105 683q0 -8 -8 -6t-8 8t8 6q8 -2 8 -8z" />
    <glyph glyph-name="nine" unicode="9" horiz-adv-x="434" 
d="M245 45q30 -8 51.5 -10.5t35.5 -1t21.5 5.5t10.5 10q5 -15 3 -26q-2 -10 -10 -18.5t-28 -7.5q-16 1 -36 4t-41 8v-37q32 -13 64 -24.5t57 -30.5q29 -22 33.5 -39.5t-1.5 -30.5q-8 -15 -27 -26q9 18 0 35.5t-28 34t-45.5 32t-52.5 29.5v-33l-12 2v37v1q-21 11 -39 21.5
t-29 20.5q-12 9 -18 20q-8 -3 -10 -5l-3 -3q-7 -5 -12.5 -15t-5.5 -27q0 -24 13 -41.5t33 -27.5t43.5 -13.5t43.5 -1.5t34 9.5t16 19.5q7 -20 3 -36q-3 -14 -15.5 -24.5t-41.5 -8.5q-8 0 -30.5 5t-46 19t-42 38.5t-18.5 63.5q0 28 6.5 44.5t14.5 24.5q9 10 21 13q5 2 24.5 2
t63.5 -12zM175 24h-5q5 -8 12 -14q12 -11 26.5 -18.5t31.5 -14.5v34l-1 1q-8 2 -15 3t-14 3q-20 6 -33 6h-2zM367 527q-3 36 7.5 51t24.5 18q16 4 37 -3q-19 -5 -26.5 -22t-7.5 -42t5.5 -54t11.5 -58t11.5 -54.5t5.5 -42.5q0 -14 -3 -25t-8 -19q-10 -19 -30 -28.5t-44.5 -13
t-50.5 -2t-47 5.5q-13 2 -24 3.5t-17 3.5q0 -6 -2 -14l-4 -13l73 -20h3l7 -2h-1q7 -3 18.5 -8t22.5 -14t18.5 -21.5t7.5 -28.5q2 -11 0 -18.5t-3 -10.5q16 -3 30.5 -4.5t25.5 -3.5q13 -2 25 -2q0 -15 -1.5 -23t-4.5 -11t-8.5 -2.5t-14.5 1.5q-5 1 -24.5 4t-41.5 7
q-11 2 -33 5.5t-44 7.5q-26 4 -55 10q-3 6 -3.5 13t0.5 13q1 7 3 14q-6 8 -7 12q-8 27 7.5 41t46.5 10q4 -1 14 -3q18 -4 31.5 -9t23.5 -10q-9 8 -21.5 15t-31.5 14h1q-9 2 -24 6l-30 8t-28 7t-18 5q-6 2 -7 6.5t2.5 7.5t11.5 4t20 -5l2 -2q1 2 2 6q2 8 2 23v9q0 7 2 13
q1 3 1 5q20 -7 44.5 -12t46.5 -8q16 -2 37.5 -2t41 5t33 17t13.5 35q0 24 -8 49t-17.5 51.5t-18.5 52.5t-11 52zM293 144q-9 2 -23 5t-27 3.5t-22.5 -2t-9.5 -11.5q0 -14 11 -19q4 -1 8 -1.5t9 -1.5q13 -3 28.5 -6t29.5 -6t25.5 -5t16.5 -3h1q0 1 1 3t1 3t1 3q1 10 -6.5 17
t-17 11.5t-18 7zM177 344q8 -2 13.5 -7.5t5.5 -12.5q0 -8 -5.5 -12t-13.5 -2q-8 1 -14 6.5t-6 12.5q0 8 6 12t14 3zM185 734q-7 20 -3 36q3 14 15 24.5t42 8.5q8 0 28.5 -4.5t43 -16.5t41 -33t23.5 -54q1 -22 -5 -39q-5 -14 -17.5 -26t-37.5 -12q17 -6 30.5 -15t13.5 -26
q0 -19 -15.5 -25t-33.5 -6q16 -8 25.5 -17.5t14.5 -19.5t6.5 -18.5t1.5 -14.5q2 -17 -8 -31t-33 -16q17 -5 29 -14t12 -26q0 -18 -13.5 -24t-31.5 -7q18 -5 31.5 -14t13.5 -27q0 -16 -12.5 -22.5t-33.5 -7t-48.5 4t-57.5 9.5q-2 6 -2.5 13t0.5 13l2 14q22 -7 48 -12t49 -8
q3 0 10 -0.5t14 -0.5t12 1.5t5 4.5q0 13 -20 20t-41 14q-5 0 -9 1t-8 1q-9 2 -18 3t-17 3q-2 0 -4 0.5t-5 0.5v1q-31 6 -63.5 15t-58.5 23q-1 -5 -1.5 -10t-0.5 -10q0 -24 8 -49t18 -51.5t19 -53t11 -51.5q2 -37 -8 -51.5t-24 -18.5q-16 -4 -38 3q19 5 26.5 22.5t8 42.5
t-5 54t-11.5 58t-11.5 54.5t-5.5 42.5q0 7 0.5 13.5t1.5 11.5q-15 11 -24 23t-9 27q0 20 8 31.5t21 14.5t28 -1t30 -14q24 -17 31.5 -37.5t7.5 -35.5q-12 14 -30 17t-32 -6q15 -6 31 -10.5t29 -7.5q7 -1 15.5 -3t17.5 -4q12 -2 22 -4t12 -3q14 -3 28 -5t27 -4h1q11 -2 21 -2
q8 0 15 1t7 6q0 7 -6 12t-15 8.5t-20 7t-21 6.5q-2 0 -2.5 0.5t-2.5 0.5q-44 13 -60 30t-20 30q-1 1 -1 3q-1 4 -1 11v4q2 17 12 22t22 2q2 -1 4 -1l1 -1q17 -9 27 -19t16 -19.5t8 -18t2 -12.5q20 -2 34 0.5t19 11.5q4 17 -1 29.5t-14.5 21t-20.5 13.5t-17 7q-8 0 -14 2
q-3 1 -5 1q-38 8 -57 28t-11 45q2 6 7 9h-1q-2 7 -2.5 14t0.5 13l2 14q18 -6 39.5 -10.5t41.5 -7.5h1l2 -1q2 0 5 -0.5t6 -0.5q8 -1 20 -1t22.5 4t17.5 13t5 26q-2 21 -16 35.5t-33.5 22.5t-42 10.5t-42 -0.5t-33 -10.5t-14.5 -18.5zM254 472q6 -2 11.5 -3t10.5 -3
q-5 15 -13.5 25.5t-17.5 17t-16 9.5l-7 3q-8 1 -11 -4q-1 -3 -1 -5t0.5 -7t4 -10.5t12.5 -11.5t27 -11zM63 476q0 -10 10 -18.5t25 -15.5q11 15 27 18.5t34 -3.5q-11 15 -27.5 25t-31.5 13t-26 -1.5t-11 -17.5zM266 623q-13 2 -25 3.5t-21 3.5q-4 -2 -6.5 -4.5t-2.5 -9.5
q0 -10 12 -16.5t28 -10.5t30.5 -6t20.5 -2q1 0 8 -1t15 -1t14 1.5t6 5.5q0 7 -6.5 12t-16.5 9t-22 7.5t-22 6.5q-8 2 -12 2zM171 539q0 -13 -3.5 -16t-8.5 -2t-12 6h2q5 0 8.5 3t3.5 9q0 7 -4.5 14t-12.5 7t-14 -5t-11.5 -11t-10.5 -11t-12 -5q-11 0 -17.5 8.5t-5.5 21.5
q-1 12 5 16.5t14 2.5q6 -1 8 -7q1 -3 0 -6q-10 6 -15 4q-6 -2 -6 -10q0 -5 3 -10t8 -5q7 0 12 4.5t9.5 10t11 10t16.5 4.5q17 0 24.5 -9.5t7.5 -23.5zM169 595q1 -10 -7 -16t-25 -1t-23.5 12t-8.5 12v1q-1 1 -1 4v2q1 7 5 9t9 0t5 -5v-4q-8 5 -11 3q-2 -1 -2 -3t2 -7t16 -9
q12 -4 21.5 -3.5t12.5 5.5q2 8 -1.5 13t-8.5 9q-6 4 -14 7q-10 2 -19 5q-8 2 -15.5 3.5t-9.5 2.5q-5 2 -2 6t13 -1h1q1 0 1 2q0 4 1 9q-1 2 -0.5 3.5t0.5 3.5t1 3q8 -2 18.5 -4t19.5 -4h10t7 3q0 5 -8.5 7.5t-16.5 5.5q-7 1 -14.5 2t-15.5 3q-2 2 -1.5 5.5t0.5 5.5q0 3 1 5
q8 -3 18.5 -5t19.5 -3q3 -1 10 -1t7 3q0 5 -8.5 8t-17.5 5l-10 2l-10 2t-10 1q-1 2 -1 5.5v5.5q0 3 1 6h1q-3 1 -3 4q-3 11 3 16.5t18 4.5q2 0 3 -0.5t3 -0.5q7 -2 12 -4l10 -4q-9 7 -19 11h-5v1q-6 0 -12 2q-2 0 -10 2v-4h-4v4q-5 1 -9 1.5t-8 1.5l-8 2q-1 2 -1 5.5v5.5
q0 3 1 5q2 -1 9.5 -2.5t15.5 -3.5v7l4 -1v-6q10 -3 15 -3q6 -2 12 -3t11 -2h10t7 3q0 5 -9 8t-17 5l2 3q9 -4 19 -7t10 -13q0 -8 -6.5 -10.5t-14.5 -1.5q6 -4 13 -10t7 -16q1 -5 0 -7.5t-2 -4.5q7 -2 12.5 -2t10.5 -1t10 -1q0 -12 -2.5 -13.5t-8.5 -0.5q-2 0 -10 1t-17 3
q-1 1 -3 1q11 -6 11 -14q0 -12 -18 -12q8 -2 13 -5.5t5 -10.5q0 -6 -4.5 -9t-10.5 -3.5t-12.5 0.5t-10.5 2q-6 1 -11.5 1.5t-8.5 1.5q0 -4 -1 -5l-1 -6l31 -8q20 -5 24.5 -15.5t4.5 -15.5zM162 709q0 1 0.5 1t0.5 2q0 7 -10 11q-4 2 -10 3q-7 2 -20 3.5t-13 -5.5q0 -5 5 -7
q2 0 3.5 -0.5t3.5 -0.5q11 -2 23 -4.5t17 -3.5v1zM105 683q0 -8 -8 -6t-8 8t8 6q8 -2 8 -8z" />
    <glyph glyph-name="seven" unicode="7" horiz-adv-x="384" 
d="M245 45q30 -8 51.5 -10.5t35.5 -1t21.5 5.5t10.5 10q5 -15 3 -26q-2 -10 -10 -18.5t-28 -7.5q-16 1 -36 4t-41 8v-37q32 -13 64 -24.5t57 -30.5q29 -22 33.5 -39.5t-1.5 -30.5q-8 -15 -27 -26q9 18 0 35.5t-28 34t-45.5 32t-52.5 29.5v-33l-12 2v37v1q-21 11 -39 21.5
t-29 20.5q-12 9 -18 20q-8 -3 -10 -5l-3 -3q-7 -5 -12.5 -15t-5.5 -27q0 -24 13 -41.5t33 -27.5t43.5 -13.5t43.5 -1.5t34 9.5t16 19.5q7 -20 3 -36q-3 -14 -15.5 -24.5t-41.5 -8.5q-8 0 -30.5 5t-46 19t-42 38.5t-18.5 63.5q0 28 6.5 44.5t14.5 24.5q9 10 21 13q5 2 24.5 2
t63.5 -12zM175 24h-5q5 -8 12 -14q12 -11 26.5 -18.5t31.5 -14.5v34l-1 1q-8 2 -15 3t-14 3q-20 6 -33 6h-2zM367 527q-3 36 7.5 51t24.5 18q16 4 37 -3q-19 -5 -26.5 -22t-7.5 -42t5.5 -54t11.5 -58t11.5 -54.5t5.5 -42.5q0 -14 -3 -25t-8 -19q-10 -19 -30 -28.5t-44.5 -13
t-50.5 -2t-47 5.5q-13 2 -24 3.5t-17 3.5q0 -6 -2 -14l-4 -13l73 -20h3l7 -2h-1q7 -3 18.5 -8t22.5 -14t18.5 -21.5t7.5 -28.5q2 -11 0 -18.5t-3 -10.5q16 -3 30.5 -4.5t25.5 -3.5q13 -2 25 -2q0 -15 -1.5 -23t-4.5 -11t-8.5 -2.5t-14.5 1.5q-5 1 -24.5 4t-41.5 7
q-11 2 -33 5.5t-44 7.5q-26 4 -55 10q-3 6 -3.5 13t0.5 13q1 7 3 14q-6 8 -7 12q-8 27 7.5 41t46.5 10q4 -1 14 -3q18 -4 31.5 -9t23.5 -10q-9 8 -21.5 15t-31.5 14h1q-9 2 -24 6l-30 8t-28 7t-18 5q-6 2 -7 6.5t2.5 7.5t11.5 4t20 -5l2 -2q1 2 2 6q2 8 2 23v9q0 7 2 13
q1 3 1 5q20 -7 44.5 -12t46.5 -8q16 -2 37.5 -2t41 5t33 17t13.5 35q0 24 -8 49t-17.5 51.5t-18.5 52.5t-11 52zM293 144q-9 2 -23 5t-27 3.5t-22.5 -2t-9.5 -11.5q0 -14 11 -19q4 -1 8 -1.5t9 -1.5q13 -3 28.5 -6t29.5 -6t25.5 -5t16.5 -3h1q0 1 1 3t1 3t1 3q1 10 -6.5 17
t-17 11.5t-18 7zM177 344q8 -2 13.5 -7.5t5.5 -12.5q0 -8 -5.5 -12t-13.5 -2q-8 1 -14 6.5t-6 12.5q0 8 6 12t14 3zM185 734q-7 20 -3 36q3 14 15 24.5t42 8.5q8 0 28.5 -4.5t43 -16.5t41 -33t23.5 -54q1 -22 -5 -39q-5 -14 -17.5 -26t-37.5 -12q17 -6 30.5 -15t13.5 -26
q0 -19 -15.5 -25t-33.5 -6q16 -8 25.5 -17.5t14.5 -19.5t6.5 -18.5t1.5 -14.5q2 -17 -8 -31t-33 -16q17 -5 29 -14t12 -26q0 -18 -13.5 -24t-31.5 -7q18 -5 31.5 -14t13.5 -27q0 -16 -12.5 -22.5t-33.5 -7t-48.5 4t-57.5 9.5q-2 6 -2.5 13t0.5 13l2 14q22 -7 48 -12t49 -8
q3 0 10 -0.5t14 -0.5t12 1.5t5 4.5q0 13 -20 20t-41 14q-5 0 -9 1t-8 1q-9 2 -18 3t-17 3q-2 0 -4 0.5t-5 0.5v1q-31 6 -63.5 15t-58.5 23q-1 -5 -1.5 -10t-0.5 -10q0 -24 8 -49t18 -51.5t19 -53t11 -51.5q2 -37 -8 -51.5t-24 -18.5q-16 -4 -38 3q19 5 26.5 22.5t8 42.5
t-5 54t-11.5 58t-11.5 54.5t-5.5 42.5q0 7 0.5 13.5t1.5 11.5q-15 11 -24 23t-9 27q0 20 8 31.5t21 14.5t28 -1t30 -14q24 -17 31.5 -37.5t7.5 -35.5q-12 14 -30 17t-32 -6q15 -6 31 -10.5t29 -7.5q7 -1 15.5 -3t17.5 -4q12 -2 22 -4t12 -3q14 -3 28 -5t27 -4h1q11 -2 21 -2
q8 0 15 1t7 6q0 7 -6 12t-15 8.5t-20 7t-21 6.5q-2 0 -2.5 0.5t-2.5 0.5q-44 13 -60 30t-20 30q-1 1 -1 3q-1 4 -1 11v4q2 17 12 22t22 2q2 -1 4 -1l1 -1q17 -9 27 -19t16 -19.5t8 -18t2 -12.5q20 -2 34 0.5t19 11.5q4 17 -1 29.5t-14.5 21t-20.5 13.5t-17 7q-8 0 -14 2
q-3 1 -5 1q-38 8 -57 28t-11 45q2 6 7 9h-1q-2 7 -2.5 14t0.5 13l2 14q18 -6 39.5 -10.5t41.5 -7.5h1l2 -1q2 0 5 -0.5t6 -0.5q8 -1 20 -1t22.5 4t17.5 13t5 26q-2 21 -16 35.5t-33.5 22.5t-42 10.5t-42 -0.5t-33 -10.5t-14.5 -18.5zM254 472q6 -2 11.5 -3t10.5 -3
q-5 15 -13.5 25.5t-17.5 17t-16 9.5l-7 3q-8 1 -11 -4q-1 -3 -1 -5t0.5 -7t4 -10.5t12.5 -11.5t27 -11zM63 476q0 -10 10 -18.5t25 -15.5q11 15 27 18.5t34 -3.5q-11 15 -27.5 25t-31.5 13t-26 -1.5t-11 -17.5zM266 623q-13 2 -25 3.5t-21 3.5q-4 -2 -6.5 -4.5t-2.5 -9.5
q0 -10 12 -16.5t28 -10.5t30.5 -6t20.5 -2q1 0 8 -1t15 -1t14 1.5t6 5.5q0 7 -6.5 12t-16.5 9t-22 7.5t-22 6.5q-8 2 -12 2zM171 539q0 -13 -3.5 -16t-8.5 -2t-12 6h2q5 0 8.5 3t3.5 9q0 7 -4.5 14t-12.5 7t-14 -5t-11.5 -11t-10.5 -11t-12 -5q-11 0 -17.5 8.5t-5.5 21.5
q-1 12 5 16.5t14 2.5q6 -1 8 -7q1 -3 0 -6q-10 6 -15 4q-6 -2 -6 -10q0 -5 3 -10t8 -5q7 0 12 4.5t9.5 10t11 10t16.5 4.5q17 0 24.5 -9.5t7.5 -23.5zM169 595q1 -10 -7 -16t-25 -1t-23.5 12t-8.5 12v1q-1 1 -1 4v2q1 7 5 9t9 0t5 -5v-4q-8 5 -11 3q-2 -1 -2 -3t2 -7t16 -9
q12 -4 21.5 -3.5t12.5 5.5q2 8 -1.5 13t-8.5 9q-6 4 -14 7q-10 2 -19 5q-8 2 -15.5 3.5t-9.5 2.5q-5 2 -2 6t13 -1h1q1 0 1 2q0 4 1 9q-1 2 -0.5 3.5t0.5 3.5t1 3q8 -2 18.5 -4t19.5 -4h10t7 3q0 5 -8.5 7.5t-16.5 5.5q-7 1 -14.5 2t-15.5 3q-2 2 -1.5 5.5t0.5 5.5q0 3 1 5
q8 -3 18.5 -5t19.5 -3q3 -1 10 -1t7 3q0 5 -8.5 8t-17.5 5l-10 2l-10 2t-10 1q-1 2 -1 5.5v5.5q0 3 1 6h1q-3 1 -3 4q-3 11 3 16.5t18 4.5q2 0 3 -0.5t3 -0.5q7 -2 12 -4l10 -4q-9 7 -19 11h-5v1q-6 0 -12 2q-2 0 -10 2v-4h-4v4q-5 1 -9 1.5t-8 1.5l-8 2q-1 2 -1 5.5v5.5
q0 3 1 5q2 -1 9.5 -2.5t15.5 -3.5v7l4 -1v-6q10 -3 15 -3q6 -2 12 -3t11 -2h10t7 3q0 5 -9 8t-17 5l2 3q9 -4 19 -7t10 -13q0 -8 -6.5 -10.5t-14.5 -1.5q6 -4 13 -10t7 -16q1 -5 0 -7.5t-2 -4.5q7 -2 12.5 -2t10.5 -1t10 -1q0 -12 -2.5 -13.5t-8.5 -0.5q-2 0 -10 1t-17 3
q-1 1 -3 1q11 -6 11 -14q0 -12 -18 -12q8 -2 13 -5.5t5 -10.5q0 -6 -4.5 -9t-10.5 -3.5t-12.5 0.5t-10.5 2q-6 1 -11.5 1.5t-8.5 1.5q0 -4 -1 -5l-1 -6l31 -8q20 -5 24.5 -15.5t4.5 -15.5zM162 709q0 1 0.5 1t0.5 2q0 7 -10 11q-4 2 -10 3q-7 2 -20 3.5t-13 -5.5q0 -5 5 -7
q2 0 3.5 -0.5t3.5 -0.5q11 -2 23 -4.5t17 -3.5v1zM105 683q0 -8 -8 -6t-8 8t8 6q8 -2 8 -8z" />
    <glyph glyph-name="bracketright" unicode="]" horiz-adv-x="360" 
d="M246 551l4 32l-29 1q-22 0 -41 -3t-40 -13q-8 9 -14.5 21t-4.5 26q2 15 11.5 25t23 15.5t28 7.5t26.5 2q28 0 55 -3l1 -1q31 -5 47.5 -26t23 -49.5t5 -60t-4.5 -57.5q-4 -29 -14 -72.5t-23.5 -93.5t-30.5 -103.5t-35 -102.5t-36 -90t-34 -67q-17 -26 -42.5 -38.5
t-54.5 -10.5l-2 -1q-32 2 -60 0t-60 -12q-7 9 -11.5 20.5t-2.5 22.5q2 13 10 21.5t19 13.5t23 7.5t22 2.5l34 -2q24 33 47.5 78.5t45 98t40 109t33.5 110.5t25.5 103.5t15.5 88.5z" />
    <glyph glyph-name="four" unicode="4" horiz-adv-x="444" 
d="M245 45q30 -8 51.5 -10.5t35.5 -1t21.5 5.5t10.5 10q5 -15 3 -26q-2 -10 -10 -18.5t-28 -7.5q-16 1 -36 4t-41 8v-37q32 -13 64 -24.5t57 -30.5q29 -22 33.5 -39.5t-1.5 -30.5q-8 -15 -27 -26q9 18 0 35.5t-28 34t-45.5 32t-52.5 29.5v-33l-12 2v37v1q-21 11 -39 21.5
t-29 20.5q-12 9 -18 20q-8 -3 -10 -5l-3 -3q-7 -5 -12.5 -15t-5.5 -27q0 -24 13 -41.5t33 -27.5t43.5 -13.5t43.5 -1.5t34 9.5t16 19.5q7 -20 3 -36q-3 -14 -15.5 -24.5t-41.5 -8.5q-8 0 -30.5 5t-46 19t-42 38.5t-18.5 63.5q0 28 6.5 44.5t14.5 24.5q9 10 21 13q5 2 24.5 2
t63.5 -12zM175 24h-5q5 -8 12 -14q12 -11 26.5 -18.5t31.5 -14.5v34l-1 1q-8 2 -15 3t-14 3q-20 6 -33 6h-2zM367 527q-3 36 7.5 51t24.5 18q16 4 37 -3q-19 -5 -26.5 -22t-7.5 -42t5.5 -54t11.5 -58t11.5 -54.5t5.5 -42.5q0 -14 -3 -25t-8 -19q-10 -19 -30 -28.5t-44.5 -13
t-50.5 -2t-47 5.5q-13 2 -24 3.5t-17 3.5q0 -6 -2 -14l-4 -13l73 -20h3l7 -2h-1q7 -3 18.5 -8t22.5 -14t18.5 -21.5t7.5 -28.5q2 -11 0 -18.5t-3 -10.5q16 -3 30.5 -4.5t25.5 -3.5q13 -2 25 -2q0 -15 -1.5 -23t-4.5 -11t-8.5 -2.5t-14.5 1.5q-5 1 -24.5 4t-41.5 7
q-11 2 -33 5.5t-44 7.5q-26 4 -55 10q-3 6 -3.5 13t0.5 13q1 7 3 14q-6 8 -7 12q-8 27 7.5 41t46.5 10q4 -1 14 -3q18 -4 31.5 -9t23.5 -10q-9 8 -21.5 15t-31.5 14h1q-9 2 -24 6l-30 8t-28 7t-18 5q-6 2 -7 6.5t2.5 7.5t11.5 4t20 -5l2 -2q1 2 2 6q2 8 2 23v9q0 7 2 13
q1 3 1 5q20 -7 44.5 -12t46.5 -8q16 -2 37.5 -2t41 5t33 17t13.5 35q0 24 -8 49t-17.5 51.5t-18.5 52.5t-11 52zM293 144q-9 2 -23 5t-27 3.5t-22.5 -2t-9.5 -11.5q0 -14 11 -19q4 -1 8 -1.5t9 -1.5q13 -3 28.5 -6t29.5 -6t25.5 -5t16.5 -3h1q0 1 1 3t1 3t1 3q1 10 -6.5 17
t-17 11.5t-18 7zM177 344q8 -2 13.5 -7.5t5.5 -12.5q0 -8 -5.5 -12t-13.5 -2q-8 1 -14 6.5t-6 12.5q0 8 6 12t14 3zM185 734q-7 20 -3 36q3 14 15 24.5t42 8.5q8 0 28.5 -4.5t43 -16.5t41 -33t23.5 -54q1 -22 -5 -39q-5 -14 -17.5 -26t-37.5 -12q17 -6 30.5 -15t13.5 -26
q0 -19 -15.5 -25t-33.5 -6q16 -8 25.5 -17.5t14.5 -19.5t6.5 -18.5t1.5 -14.5q2 -17 -8 -31t-33 -16q17 -5 29 -14t12 -26q0 -18 -13.5 -24t-31.5 -7q18 -5 31.5 -14t13.5 -27q0 -16 -12.5 -22.5t-33.5 -7t-48.5 4t-57.5 9.5q-2 6 -2.5 13t0.5 13l2 14q22 -7 48 -12t49 -8
q3 0 10 -0.5t14 -0.5t12 1.5t5 4.5q0 13 -20 20t-41 14q-5 0 -9 1t-8 1q-9 2 -18 3t-17 3q-2 0 -4 0.5t-5 0.5v1q-31 6 -63.5 15t-58.5 23q-1 -5 -1.5 -10t-0.5 -10q0 -24 8 -49t18 -51.5t19 -53t11 -51.5q2 -37 -8 -51.5t-24 -18.5q-16 -4 -38 3q19 5 26.5 22.5t8 42.5
t-5 54t-11.5 58t-11.5 54.5t-5.5 42.5q0 7 0.5 13.5t1.5 11.5q-15 11 -24 23t-9 27q0 20 8 31.5t21 14.5t28 -1t30 -14q24 -17 31.5 -37.5t7.5 -35.5q-12 14 -30 17t-32 -6q15 -6 31 -10.5t29 -7.5q7 -1 15.5 -3t17.5 -4q12 -2 22 -4t12 -3q14 -3 28 -5t27 -4h1q11 -2 21 -2
q8 0 15 1t7 6q0 7 -6 12t-15 8.5t-20 7t-21 6.5q-2 0 -2.5 0.5t-2.5 0.5q-44 13 -60 30t-20 30q-1 1 -1 3q-1 4 -1 11v4q2 17 12 22t22 2q2 -1 4 -1l1 -1q17 -9 27 -19t16 -19.5t8 -18t2 -12.5q20 -2 34 0.5t19 11.5q4 17 -1 29.5t-14.5 21t-20.5 13.5t-17 7q-8 0 -14 2
q-3 1 -5 1q-38 8 -57 28t-11 45q2 6 7 9h-1q-2 7 -2.5 14t0.5 13l2 14q18 -6 39.5 -10.5t41.5 -7.5h1l2 -1q2 0 5 -0.5t6 -0.5q8 -1 20 -1t22.5 4t17.5 13t5 26q-2 21 -16 35.5t-33.5 22.5t-42 10.5t-42 -0.5t-33 -10.5t-14.5 -18.5zM254 472q6 -2 11.5 -3t10.5 -3
q-5 15 -13.5 25.5t-17.5 17t-16 9.5l-7 3q-8 1 -11 -4q-1 -3 -1 -5t0.5 -7t4 -10.5t12.5 -11.5t27 -11zM63 476q0 -10 10 -18.5t25 -15.5q11 15 27 18.5t34 -3.5q-11 15 -27.5 25t-31.5 13t-26 -1.5t-11 -17.5zM266 623q-13 2 -25 3.5t-21 3.5q-4 -2 -6.5 -4.5t-2.5 -9.5
q0 -10 12 -16.5t28 -10.5t30.5 -6t20.5 -2q1 0 8 -1t15 -1t14 1.5t6 5.5q0 7 -6.5 12t-16.5 9t-22 7.5t-22 6.5q-8 2 -12 2zM171 539q0 -13 -3.5 -16t-8.5 -2t-12 6h2q5 0 8.5 3t3.5 9q0 7 -4.5 14t-12.5 7t-14 -5t-11.5 -11t-10.5 -11t-12 -5q-11 0 -17.5 8.5t-5.5 21.5
q-1 12 5 16.5t14 2.5q6 -1 8 -7q1 -3 0 -6q-10 6 -15 4q-6 -2 -6 -10q0 -5 3 -10t8 -5q7 0 12 4.5t9.5 10t11 10t16.5 4.5q17 0 24.5 -9.5t7.5 -23.5zM169 595q1 -10 -7 -16t-25 -1t-23.5 12t-8.5 12v1q-1 1 -1 4v2q1 7 5 9t9 0t5 -5v-4q-8 5 -11 3q-2 -1 -2 -3t2 -7t16 -9
q12 -4 21.5 -3.5t12.5 5.5q2 8 -1.5 13t-8.5 9q-6 4 -14 7q-10 2 -19 5q-8 2 -15.5 3.5t-9.5 2.5q-5 2 -2 6t13 -1h1q1 0 1 2q0 4 1 9q-1 2 -0.5 3.5t0.5 3.5t1 3q8 -2 18.5 -4t19.5 -4h10t7 3q0 5 -8.5 7.5t-16.5 5.5q-7 1 -14.5 2t-15.5 3q-2 2 -1.5 5.5t0.5 5.5q0 3 1 5
q8 -3 18.5 -5t19.5 -3q3 -1 10 -1t7 3q0 5 -8.5 8t-17.5 5l-10 2l-10 2t-10 1q-1 2 -1 5.5v5.5q0 3 1 6h1q-3 1 -3 4q-3 11 3 16.5t18 4.5q2 0 3 -0.5t3 -0.5q7 -2 12 -4l10 -4q-9 7 -19 11h-5v1q-6 0 -12 2q-2 0 -10 2v-4h-4v4q-5 1 -9 1.5t-8 1.5l-8 2q-1 2 -1 5.5v5.5
q0 3 1 5q2 -1 9.5 -2.5t15.5 -3.5v7l4 -1v-6q10 -3 15 -3q6 -2 12 -3t11 -2h10t7 3q0 5 -9 8t-17 5l2 3q9 -4 19 -7t10 -13q0 -8 -6.5 -10.5t-14.5 -1.5q6 -4 13 -10t7 -16q1 -5 0 -7.5t-2 -4.5q7 -2 12.5 -2t10.5 -1t10 -1q0 -12 -2.5 -13.5t-8.5 -0.5q-2 0 -10 1t-17 3
q-1 1 -3 1q11 -6 11 -14q0 -12 -18 -12q8 -2 13 -5.5t5 -10.5q0 -6 -4.5 -9t-10.5 -3.5t-12.5 0.5t-10.5 2q-6 1 -11.5 1.5t-8.5 1.5q0 -4 -1 -5l-1 -6l31 -8q20 -5 24.5 -15.5t4.5 -15.5zM162 709q0 1 0.5 1t0.5 2q0 7 -10 11q-4 2 -10 3q-7 2 -20 3.5t-13 -5.5q0 -5 5 -7
q2 0 3.5 -0.5t3.5 -0.5q11 -2 23 -4.5t17 -3.5v1zM105 683q0 -8 -8 -6t-8 8t8 6q8 -2 8 -8z" />
    <glyph glyph-name="five" unicode="5" horiz-adv-x="466" 
d="M245 45q30 -8 51.5 -10.5t35.5 -1t21.5 5.5t10.5 10q5 -15 3 -26q-2 -10 -10 -18.5t-28 -7.5q-16 1 -36 4t-41 8v-37q32 -13 64 -24.5t57 -30.5q29 -22 33.5 -39.5t-1.5 -30.5q-8 -15 -27 -26q9 18 0 35.5t-28 34t-45.5 32t-52.5 29.5v-33l-12 2v37v1q-21 11 -39 21.5
t-29 20.5q-12 9 -18 20q-8 -3 -10 -5l-3 -3q-7 -5 -12.5 -15t-5.5 -27q0 -24 13 -41.5t33 -27.5t43.5 -13.5t43.5 -1.5t34 9.5t16 19.5q7 -20 3 -36q-3 -14 -15.5 -24.5t-41.5 -8.5q-8 0 -30.5 5t-46 19t-42 38.5t-18.5 63.5q0 28 6.5 44.5t14.5 24.5q9 10 21 13q5 2 24.5 2
t63.5 -12zM175 24h-5q5 -8 12 -14q12 -11 26.5 -18.5t31.5 -14.5v34l-1 1q-8 2 -15 3t-14 3q-20 6 -33 6h-2zM367 527q-3 36 7.5 51t24.5 18q16 4 37 -3q-19 -5 -26.5 -22t-7.5 -42t5.5 -54t11.5 -58t11.5 -54.5t5.5 -42.5q0 -14 -3 -25t-8 -19q-10 -19 -30 -28.5t-44.5 -13
t-50.5 -2t-47 5.5q-13 2 -24 3.5t-17 3.5q0 -6 -2 -14l-4 -13l73 -20h3l7 -2h-1q7 -3 18.5 -8t22.5 -14t18.5 -21.5t7.5 -28.5q2 -11 0 -18.5t-3 -10.5q16 -3 30.5 -4.5t25.5 -3.5q13 -2 25 -2q0 -15 -1.5 -23t-4.5 -11t-8.5 -2.5t-14.5 1.5q-5 1 -24.5 4t-41.5 7
q-11 2 -33 5.5t-44 7.5q-26 4 -55 10q-3 6 -3.5 13t0.5 13q1 7 3 14q-6 8 -7 12q-8 27 7.5 41t46.5 10q4 -1 14 -3q18 -4 31.5 -9t23.5 -10q-9 8 -21.5 15t-31.5 14h1q-9 2 -24 6l-30 8t-28 7t-18 5q-6 2 -7 6.5t2.5 7.5t11.5 4t20 -5l2 -2q1 2 2 6q2 8 2 23v9q0 7 2 13
q1 3 1 5q20 -7 44.5 -12t46.5 -8q16 -2 37.5 -2t41 5t33 17t13.5 35q0 24 -8 49t-17.5 51.5t-18.5 52.5t-11 52zM293 144q-9 2 -23 5t-27 3.5t-22.5 -2t-9.5 -11.5q0 -14 11 -19q4 -1 8 -1.5t9 -1.5q13 -3 28.5 -6t29.5 -6t25.5 -5t16.5 -3h1q0 1 1 3t1 3t1 3q1 10 -6.5 17
t-17 11.5t-18 7zM177 344q8 -2 13.5 -7.5t5.5 -12.5q0 -8 -5.5 -12t-13.5 -2q-8 1 -14 6.5t-6 12.5q0 8 6 12t14 3zM185 734q-7 20 -3 36q3 14 15 24.5t42 8.5q8 0 28.5 -4.5t43 -16.5t41 -33t23.5 -54q1 -22 -5 -39q-5 -14 -17.5 -26t-37.5 -12q17 -6 30.5 -15t13.5 -26
q0 -19 -15.5 -25t-33.5 -6q16 -8 25.5 -17.5t14.5 -19.5t6.5 -18.5t1.5 -14.5q2 -17 -8 -31t-33 -16q17 -5 29 -14t12 -26q0 -18 -13.5 -24t-31.5 -7q18 -5 31.5 -14t13.5 -27q0 -16 -12.5 -22.5t-33.5 -7t-48.5 4t-57.5 9.5q-2 6 -2.5 13t0.5 13l2 14q22 -7 48 -12t49 -8
q3 0 10 -0.5t14 -0.5t12 1.5t5 4.5q0 13 -20 20t-41 14q-5 0 -9 1t-8 1q-9 2 -18 3t-17 3q-2 0 -4 0.5t-5 0.5v1q-31 6 -63.5 15t-58.5 23q-1 -5 -1.5 -10t-0.5 -10q0 -24 8 -49t18 -51.5t19 -53t11 -51.5q2 -37 -8 -51.5t-24 -18.5q-16 -4 -38 3q19 5 26.5 22.5t8 42.5
t-5 54t-11.5 58t-11.5 54.5t-5.5 42.5q0 7 0.5 13.5t1.5 11.5q-15 11 -24 23t-9 27q0 20 8 31.5t21 14.5t28 -1t30 -14q24 -17 31.5 -37.5t7.5 -35.5q-12 14 -30 17t-32 -6q15 -6 31 -10.5t29 -7.5q7 -1 15.5 -3t17.5 -4q12 -2 22 -4t12 -3q14 -3 28 -5t27 -4h1q11 -2 21 -2
q8 0 15 1t7 6q0 7 -6 12t-15 8.5t-20 7t-21 6.5q-2 0 -2.5 0.5t-2.5 0.5q-44 13 -60 30t-20 30q-1 1 -1 3q-1 4 -1 11v4q2 17 12 22t22 2q2 -1 4 -1l1 -1q17 -9 27 -19t16 -19.5t8 -18t2 -12.5q20 -2 34 0.5t19 11.5q4 17 -1 29.5t-14.5 21t-20.5 13.5t-17 7q-8 0 -14 2
q-3 1 -5 1q-38 8 -57 28t-11 45q2 6 7 9h-1q-2 7 -2.5 14t0.5 13l2 14q18 -6 39.5 -10.5t41.5 -7.5h1l2 -1q2 0 5 -0.5t6 -0.5q8 -1 20 -1t22.5 4t17.5 13t5 26q-2 21 -16 35.5t-33.5 22.5t-42 10.5t-42 -0.5t-33 -10.5t-14.5 -18.5zM254 472q6 -2 11.5 -3t10.5 -3
q-5 15 -13.5 25.5t-17.5 17t-16 9.5l-7 3q-8 1 -11 -4q-1 -3 -1 -5t0.5 -7t4 -10.5t12.5 -11.5t27 -11zM63 476q0 -10 10 -18.5t25 -15.5q11 15 27 18.5t34 -3.5q-11 15 -27.5 25t-31.5 13t-26 -1.5t-11 -17.5zM266 623q-13 2 -25 3.5t-21 3.5q-4 -2 -6.5 -4.5t-2.5 -9.5
q0 -10 12 -16.5t28 -10.5t30.5 -6t20.5 -2q1 0 8 -1t15 -1t14 1.5t6 5.5q0 7 -6.5 12t-16.5 9t-22 7.5t-22 6.5q-8 2 -12 2zM171 539q0 -13 -3.5 -16t-8.5 -2t-12 6h2q5 0 8.5 3t3.5 9q0 7 -4.5 14t-12.5 7t-14 -5t-11.5 -11t-10.5 -11t-12 -5q-11 0 -17.5 8.5t-5.5 21.5
q-1 12 5 16.5t14 2.5q6 -1 8 -7q1 -3 0 -6q-10 6 -15 4q-6 -2 -6 -10q0 -5 3 -10t8 -5q7 0 12 4.5t9.5 10t11 10t16.5 4.5q17 0 24.5 -9.5t7.5 -23.5zM169 595q1 -10 -7 -16t-25 -1t-23.5 12t-8.5 12v1q-1 1 -1 4v2q1 7 5 9t9 0t5 -5v-4q-8 5 -11 3q-2 -1 -2 -3t2 -7t16 -9
q12 -4 21.5 -3.5t12.5 5.5q2 8 -1.5 13t-8.5 9q-6 4 -14 7q-10 2 -19 5q-8 2 -15.5 3.5t-9.5 2.5q-5 2 -2 6t13 -1h1q1 0 1 2q0 4 1 9q-1 2 -0.5 3.5t0.5 3.5t1 3q8 -2 18.5 -4t19.5 -4h10t7 3q0 5 -8.5 7.5t-16.5 5.5q-7 1 -14.5 2t-15.5 3q-2 2 -1.5 5.5t0.5 5.5q0 3 1 5
q8 -3 18.5 -5t19.5 -3q3 -1 10 -1t7 3q0 5 -8.5 8t-17.5 5l-10 2l-10 2t-10 1q-1 2 -1 5.5v5.5q0 3 1 6h1q-3 1 -3 4q-3 11 3 16.5t18 4.5q2 0 3 -0.5t3 -0.5q7 -2 12 -4l10 -4q-9 7 -19 11h-5v1q-6 0 -12 2q-2 0 -10 2v-4h-4v4q-5 1 -9 1.5t-8 1.5l-8 2q-1 2 -1 5.5v5.5
q0 3 1 5q2 -1 9.5 -2.5t15.5 -3.5v7l4 -1v-6q10 -3 15 -3q6 -2 12 -3t11 -2h10t7 3q0 5 -9 8t-17 5l2 3q9 -4 19 -7t10 -13q0 -8 -6.5 -10.5t-14.5 -1.5q6 -4 13 -10t7 -16q1 -5 0 -7.5t-2 -4.5q7 -2 12.5 -2t10.5 -1t10 -1q0 -12 -2.5 -13.5t-8.5 -0.5q-2 0 -10 1t-17 3
q-1 1 -3 1q11 -6 11 -14q0 -12 -18 -12q8 -2 13 -5.5t5 -10.5q0 -6 -4.5 -9t-10.5 -3.5t-12.5 0.5t-10.5 2q-6 1 -11.5 1.5t-8.5 1.5q0 -4 -1 -5l-1 -6l31 -8q20 -5 24.5 -15.5t4.5 -15.5zM162 709q0 1 0.5 1t0.5 2q0 7 -10 11q-4 2 -10 3q-7 2 -20 3.5t-13 -5.5q0 -5 5 -7
q2 0 3.5 -0.5t3.5 -0.5q11 -2 23 -4.5t17 -3.5v1zM105 683q0 -8 -8 -6t-8 8t8 6q8 -2 8 -8z" />
    <glyph glyph-name="equal" unicode="=" horiz-adv-x="487" 
d="M381 202q-3 -11 -12.5 -23.5t-21 -25.5t-24 -24t-22.5 -19q4 14 -21.5 22t-60.5 11.5t-68 4t-44 0.5q-52 0 -103 -3q-5 4 -4.5 10.5t2.5 11.5q4 16 9.5 28.5t13.5 26.5q72 5 141 7.5t140 2.5q10 0 24 1t27 -1t20.5 -8.5t3.5 -21.5zM460 395q-3 -11 -11.5 -23.5
t-20.5 -25.5t-24.5 -24t-22.5 -19q4 10 -7 16.5t-30.5 10.5t-43.5 6t-47 3t-41 1h-24q-27 0 -52.5 -0.5t-51.5 -2.5q-5 5 -4 12t3 13q3 14 9.5 27.5t13.5 25.5q72 4 141 7t140 3q10 0 24 0.5t26.5 -1.5t19.5 -8.5t3 -20.5z" />
    <glyph glyph-name="numbersign" unicode="#" horiz-adv-x="376" 
d="M63 292q4 11 7.5 22t7.5 22q-24 4 -38 2.5t-19 -12.5q-7 34 -2 56q2 9 7 17t14.5 11.5t23.5 2t34 -10.5q8 26 16 48.5t14 39.5q7 20 12 37q15 -2 29 -6q12 -4 24 -11t18 -19q-6 -16 -12 -34q-5 -16 -12 -37l-15 -45q10 -2 19 -4t17 -4q11 31 20 59.5t17 51.5q9 26 17 49
q15 -2 29 -6q12 -4 24 -11t18 -19q-6 -17 -13 -37q-6 -17 -14 -40.5t-16 -50.5q43 6 60 28q5 -21 -1 -39q-5 -15 -22 -28t-54 -15q-5 -16 -9.5 -32t-8.5 -31q28 1 47.5 8.5t30.5 19.5q5 -24 -2 -42q-6 -16 -26 -29t-63 -12q-8 -40 -8.5 -67.5t10.5 -32.5q-4 1 -20 2
t-33.5 7.5t-30 20t-9.5 39.5q1 8 3 18t5 22q-9 2 -17.5 3.5t-18.5 3.5q-10 -46 -12 -78.5t11 -37.5q-4 1 -20 2t-33 7.5t-29.5 20t-9.5 39.5q1 10 4.5 26t8.5 36q-16 2 -26 -0.5t-13 -11.5q-7 30 -3 51q3 18 16.5 29.5t45.5 1.5zM154 321q-4 -14 -8 -28.5t-8 -29.5
q9 -3 18 -5.5t18 -4.5q5 15 9.5 30.5t9.5 31.5q-11 2 -20 3t-19 3z" />
    <glyph glyph-name="hyphen" unicode="-" horiz-adv-x="447" 
d="M8 343q54 3 88.5 5.5t64.5 3.5t64.5 1.5t88.5 0.5q11 0 31 1.5t39.5 -0.5t33.5 -9.5t14 -24.5q0 -13 -6 -27.5t-15 -28.5t-19 -26t-18 -20q0 10 -21 17t-53.5 11.5t-71.5 7t-75.5 4t-66 1.5h-41.5h-20.5t2.5 -0.5t2.5 -1t-21.5 -0.5q-6 5 -7 11t-1 14q0 15 3 31t5 29z
" />
    <glyph glyph-name="eight" unicode="8" horiz-adv-x="371" 
d="M245 45q30 -8 51.5 -10.5t35.5 -1t21.5 5.5t10.5 10q5 -15 3 -26q-2 -10 -10 -18.5t-28 -7.5q-16 1 -36 4t-41 8v-37q32 -13 64 -24.5t57 -30.5q29 -22 33.5 -39.5t-1.5 -30.5q-8 -15 -27 -26q9 18 0 35.5t-28 34t-45.5 32t-52.5 29.5v-33l-12 2v37v1q-21 11 -39 21.5
t-29 20.5q-12 9 -18 20q-8 -3 -10 -5l-3 -3q-7 -5 -12.5 -15t-5.5 -27q0 -24 13 -41.5t33 -27.5t43.5 -13.5t43.5 -1.5t34 9.5t16 19.5q7 -20 3 -36q-3 -14 -15.5 -24.5t-41.5 -8.5q-8 0 -30.5 5t-46 19t-42 38.5t-18.5 63.5q0 28 6.5 44.5t14.5 24.5q9 10 21 13q5 2 24.5 2
t63.5 -12zM175 24h-5q5 -8 12 -14q12 -11 26.5 -18.5t31.5 -14.5v34l-1 1q-8 2 -15 3t-14 3q-20 6 -33 6h-2zM367 527q-3 36 7.5 51t24.5 18q16 4 37 -3q-19 -5 -26.5 -22t-7.5 -42t5.5 -54t11.5 -58t11.5 -54.5t5.5 -42.5q0 -14 -3 -25t-8 -19q-10 -19 -30 -28.5t-44.5 -13
t-50.5 -2t-47 5.5q-13 2 -24 3.5t-17 3.5q0 -6 -2 -14l-4 -13l73 -20h3l7 -2h-1q7 -3 18.5 -8t22.5 -14t18.5 -21.5t7.5 -28.5q2 -11 0 -18.5t-3 -10.5q16 -3 30.5 -4.5t25.5 -3.5q13 -2 25 -2q0 -15 -1.5 -23t-4.5 -11t-8.5 -2.5t-14.5 1.5q-5 1 -24.5 4t-41.5 7
q-11 2 -33 5.5t-44 7.5q-26 4 -55 10q-3 6 -3.5 13t0.5 13q1 7 3 14q-6 8 -7 12q-8 27 7.5 41t46.5 10q4 -1 14 -3q18 -4 31.5 -9t23.5 -10q-9 8 -21.5 15t-31.5 14h1q-9 2 -24 6l-30 8t-28 7t-18 5q-6 2 -7 6.5t2.5 7.5t11.5 4t20 -5l2 -2q1 2 2 6q2 8 2 23v9q0 7 2 13
q1 3 1 5q20 -7 44.5 -12t46.5 -8q16 -2 37.5 -2t41 5t33 17t13.5 35q0 24 -8 49t-17.5 51.5t-18.5 52.5t-11 52zM293 144q-9 2 -23 5t-27 3.5t-22.5 -2t-9.5 -11.5q0 -14 11 -19q4 -1 8 -1.5t9 -1.5q13 -3 28.5 -6t29.5 -6t25.5 -5t16.5 -3h1q0 1 1 3t1 3t1 3q1 10 -6.5 17
t-17 11.5t-18 7zM177 344q8 -2 13.5 -7.5t5.5 -12.5q0 -8 -5.5 -12t-13.5 -2q-8 1 -14 6.5t-6 12.5q0 8 6 12t14 3zM185 734q-7 20 -3 36q3 14 15 24.5t42 8.5q8 0 28.5 -4.5t43 -16.5t41 -33t23.5 -54q1 -22 -5 -39q-5 -14 -17.5 -26t-37.5 -12q17 -6 30.5 -15t13.5 -26
q0 -19 -15.5 -25t-33.5 -6q16 -8 25.5 -17.5t14.5 -19.5t6.5 -18.5t1.5 -14.5q2 -17 -8 -31t-33 -16q17 -5 29 -14t12 -26q0 -18 -13.5 -24t-31.5 -7q18 -5 31.5 -14t13.5 -27q0 -16 -12.5 -22.5t-33.5 -7t-48.5 4t-57.5 9.5q-2 6 -2.5 13t0.5 13l2 14q22 -7 48 -12t49 -8
q3 0 10 -0.5t14 -0.5t12 1.5t5 4.5q0 13 -20 20t-41 14q-5 0 -9 1t-8 1q-9 2 -18 3t-17 3q-2 0 -4 0.5t-5 0.5v1q-31 6 -63.5 15t-58.5 23q-1 -5 -1.5 -10t-0.5 -10q0 -24 8 -49t18 -51.5t19 -53t11 -51.5q2 -37 -8 -51.5t-24 -18.5q-16 -4 -38 3q19 5 26.5 22.5t8 42.5
t-5 54t-11.5 58t-11.5 54.5t-5.5 42.5q0 7 0.5 13.5t1.5 11.5q-15 11 -24 23t-9 27q0 20 8 31.5t21 14.5t28 -1t30 -14q24 -17 31.5 -37.5t7.5 -35.5q-12 14 -30 17t-32 -6q15 -6 31 -10.5t29 -7.5q7 -1 15.5 -3t17.5 -4q12 -2 22 -4t12 -3q14 -3 28 -5t27 -4h1q11 -2 21 -2
q8 0 15 1t7 6q0 7 -6 12t-15 8.5t-20 7t-21 6.5q-2 0 -2.5 0.5t-2.5 0.5q-44 13 -60 30t-20 30q-1 1 -1 3q-1 4 -1 11v4q2 17 12 22t22 2q2 -1 4 -1l1 -1q17 -9 27 -19t16 -19.5t8 -18t2 -12.5q20 -2 34 0.5t19 11.5q4 17 -1 29.5t-14.5 21t-20.5 13.5t-17 7q-8 0 -14 2
q-3 1 -5 1q-38 8 -57 28t-11 45q2 6 7 9h-1q-2 7 -2.5 14t0.5 13l2 14q18 -6 39.5 -10.5t41.5 -7.5h1l2 -1q2 0 5 -0.5t6 -0.5q8 -1 20 -1t22.5 4t17.5 13t5 26q-2 21 -16 35.5t-33.5 22.5t-42 10.5t-42 -0.5t-33 -10.5t-14.5 -18.5zM254 472q6 -2 11.5 -3t10.5 -3
q-5 15 -13.5 25.5t-17.5 17t-16 9.5l-7 3q-8 1 -11 -4q-1 -3 -1 -5t0.5 -7t4 -10.5t12.5 -11.5t27 -11zM63 476q0 -10 10 -18.5t25 -15.5q11 15 27 18.5t34 -3.5q-11 15 -27.5 25t-31.5 13t-26 -1.5t-11 -17.5zM266 623q-13 2 -25 3.5t-21 3.5q-4 -2 -6.5 -4.5t-2.5 -9.5
q0 -10 12 -16.5t28 -10.5t30.5 -6t20.5 -2q1 0 8 -1t15 -1t14 1.5t6 5.5q0 7 -6.5 12t-16.5 9t-22 7.5t-22 6.5q-8 2 -12 2zM171 539q0 -13 -3.5 -16t-8.5 -2t-12 6h2q5 0 8.5 3t3.5 9q0 7 -4.5 14t-12.5 7t-14 -5t-11.5 -11t-10.5 -11t-12 -5q-11 0 -17.5 8.5t-5.5 21.5
q-1 12 5 16.5t14 2.5q6 -1 8 -7q1 -3 0 -6q-10 6 -15 4q-6 -2 -6 -10q0 -5 3 -10t8 -5q7 0 12 4.5t9.5 10t11 10t16.5 4.5q17 0 24.5 -9.5t7.5 -23.5zM169 595q1 -10 -7 -16t-25 -1t-23.5 12t-8.5 12v1q-1 1 -1 4v2q1 7 5 9t9 0t5 -5v-4q-8 5 -11 3q-2 -1 -2 -3t2 -7t16 -9
q12 -4 21.5 -3.5t12.5 5.5q2 8 -1.5 13t-8.5 9q-6 4 -14 7q-10 2 -19 5q-8 2 -15.5 3.5t-9.5 2.5q-5 2 -2 6t13 -1h1q1 0 1 2q0 4 1 9q-1 2 -0.5 3.5t0.5 3.5t1 3q8 -2 18.5 -4t19.5 -4h10t7 3q0 5 -8.5 7.5t-16.5 5.5q-7 1 -14.5 2t-15.5 3q-2 2 -1.5 5.5t0.5 5.5q0 3 1 5
q8 -3 18.5 -5t19.5 -3q3 -1 10 -1t7 3q0 5 -8.5 8t-17.5 5l-10 2l-10 2t-10 1q-1 2 -1 5.5v5.5q0 3 1 6h1q-3 1 -3 4q-3 11 3 16.5t18 4.5q2 0 3 -0.5t3 -0.5q7 -2 12 -4l10 -4q-9 7 -19 11h-5v1q-6 0 -12 2q-2 0 -10 2v-4h-4v4q-5 1 -9 1.5t-8 1.5l-8 2q-1 2 -1 5.5v5.5
q0 3 1 5q2 -1 9.5 -2.5t15.5 -3.5v7l4 -1v-6q10 -3 15 -3q6 -2 12 -3t11 -2h10t7 3q0 5 -9 8t-17 5l2 3q9 -4 19 -7t10 -13q0 -8 -6.5 -10.5t-14.5 -1.5q6 -4 13 -10t7 -16q1 -5 0 -7.5t-2 -4.5q7 -2 12.5 -2t10.5 -1t10 -1q0 -12 -2.5 -13.5t-8.5 -0.5q-2 0 -10 1t-17 3
q-1 1 -3 1q11 -6 11 -14q0 -12 -18 -12q8 -2 13 -5.5t5 -10.5q0 -6 -4.5 -9t-10.5 -3.5t-12.5 0.5t-10.5 2q-6 1 -11.5 1.5t-8.5 1.5q0 -4 -1 -5l-1 -6l31 -8q20 -5 24.5 -15.5t4.5 -15.5zM162 709q0 1 0.5 1t0.5 2q0 7 -10 11q-4 2 -10 3q-7 2 -20 3.5t-13 -5.5q0 -5 5 -7
q2 0 3.5 -0.5t3.5 -0.5q11 -2 23 -4.5t17 -3.5v1zM105 683q0 -8 -8 -6t-8 8t8 6q8 -2 8 -8z" />
    <glyph glyph-name="plus" unicode="+" horiz-adv-x="438" 
d="M28 348q35 3 68 3.5t67 2.5q5 15 13 38.5t19.5 46.5t27.5 39.5t37 16.5q25 0 45 -14.5t33 -30.5q-10 -2 -20.5 -13.5t-20.5 -26t-18 -29t-12 -22.5q13 0 41 2t56 0.5t47 -9t14 -27.5q-3 -12 -13 -26.5t-22.5 -29t-26 -27t-24.5 -20.5q3 12 -11.5 19.5t-35.5 12t-41.5 6
t-27.5 1.5q-17 -40 -32 -79.5t-28 -80.5q-11 -11 -26.5 -13.5t-28.5 -2.5q-11 0 -20 1t-17 3l60 175q-32 0 -63 -2t-63 -2q-5 5 -5 13t2 16q5 16 11.5 30.5t14.5 28.5z" />
    <glyph glyph-name="one" unicode="1" horiz-adv-x="511" 
d="M245 45q30 -8 51.5 -10.5t35.5 -1t21.5 5.5t10.5 10q5 -15 3 -26q-2 -10 -10 -18.5t-28 -7.5q-16 1 -36 4t-41 8v-37q32 -13 64 -24.5t57 -30.5q29 -22 33.5 -39.5t-1.5 -30.5q-8 -15 -27 -26q9 18 0 35.5t-28 34t-45.5 32t-52.5 29.5v-33l-12 2v37v1q-21 11 -39 21.5
t-29 20.5q-12 9 -18 20q-8 -3 -10 -5l-3 -3q-7 -5 -12.5 -15t-5.5 -27q0 -24 13 -41.5t33 -27.5t43.5 -13.5t43.5 -1.5t34 9.5t16 19.5q7 -20 3 -36q-3 -14 -15.5 -24.5t-41.5 -8.5q-8 0 -30.5 5t-46 19t-42 38.5t-18.5 63.5q0 28 6.5 44.5t14.5 24.5q9 10 21 13q5 2 24.5 2
t63.5 -12zM175 24h-5q5 -8 12 -14q12 -11 26.5 -18.5t31.5 -14.5v34l-1 1q-8 2 -15 3t-14 3q-20 6 -33 6h-2zM367 527q-3 36 7.5 51t24.5 18q16 4 37 -3q-19 -5 -26.5 -22t-7.5 -42t5.5 -54t11.5 -58t11.5 -54.5t5.5 -42.5q0 -14 -3 -25t-8 -19q-10 -19 -30 -28.5t-44.5 -13
t-50.5 -2t-47 5.5q-13 2 -24 3.5t-17 3.5q0 -6 -2 -14l-4 -13l73 -20h3l7 -2h-1q7 -3 18.5 -8t22.5 -14t18.5 -21.5t7.5 -28.5q2 -11 0 -18.5t-3 -10.5q16 -3 30.5 -4.5t25.5 -3.5q13 -2 25 -2q0 -15 -1.5 -23t-4.5 -11t-8.5 -2.5t-14.5 1.5q-5 1 -24.5 4t-41.5 7
q-11 2 -33 5.5t-44 7.5q-26 4 -55 10q-3 6 -3.5 13t0.5 13q1 7 3 14q-6 8 -7 12q-8 27 7.5 41t46.5 10q4 -1 14 -3q18 -4 31.5 -9t23.5 -10q-9 8 -21.5 15t-31.5 14h1q-9 2 -24 6l-30 8t-28 7t-18 5q-6 2 -7 6.5t2.5 7.5t11.5 4t20 -5l2 -2q1 2 2 6q2 8 2 23v9q0 7 2 13
q1 3 1 5q20 -7 44.5 -12t46.5 -8q16 -2 37.5 -2t41 5t33 17t13.5 35q0 24 -8 49t-17.5 51.5t-18.5 52.5t-11 52zM293 144q-9 2 -23 5t-27 3.5t-22.5 -2t-9.5 -11.5q0 -14 11 -19q4 -1 8 -1.5t9 -1.5q13 -3 28.5 -6t29.5 -6t25.5 -5t16.5 -3h1q0 1 1 3t1 3t1 3q1 10 -6.5 17
t-17 11.5t-18 7zM177 344q8 -2 13.5 -7.5t5.5 -12.5q0 -8 -5.5 -12t-13.5 -2q-8 1 -14 6.5t-6 12.5q0 8 6 12t14 3zM185 734q-7 20 -3 36q3 14 15 24.5t42 8.5q8 0 28.5 -4.5t43 -16.5t41 -33t23.5 -54q1 -22 -5 -39q-5 -14 -17.5 -26t-37.5 -12q17 -6 30.5 -15t13.5 -26
q0 -19 -15.5 -25t-33.5 -6q16 -8 25.5 -17.5t14.5 -19.5t6.5 -18.5t1.5 -14.5q2 -17 -8 -31t-33 -16q17 -5 29 -14t12 -26q0 -18 -13.5 -24t-31.5 -7q18 -5 31.5 -14t13.5 -27q0 -16 -12.5 -22.5t-33.5 -7t-48.5 4t-57.5 9.5q-2 6 -2.5 13t0.5 13l2 14q22 -7 48 -12t49 -8
q3 0 10 -0.5t14 -0.5t12 1.5t5 4.5q0 13 -20 20t-41 14q-5 0 -9 1t-8 1q-9 2 -18 3t-17 3q-2 0 -4 0.5t-5 0.5v1q-31 6 -63.5 15t-58.5 23q-1 -5 -1.5 -10t-0.5 -10q0 -24 8 -49t18 -51.5t19 -53t11 -51.5q2 -37 -8 -51.5t-24 -18.5q-16 -4 -38 3q19 5 26.5 22.5t8 42.5
t-5 54t-11.5 58t-11.5 54.5t-5.5 42.5q0 7 0.5 13.5t1.5 11.5q-15 11 -24 23t-9 27q0 20 8 31.5t21 14.5t28 -1t30 -14q24 -17 31.5 -37.5t7.5 -35.5q-12 14 -30 17t-32 -6q15 -6 31 -10.5t29 -7.5q7 -1 15.5 -3t17.5 -4q12 -2 22 -4t12 -3q14 -3 28 -5t27 -4h1q11 -2 21 -2
q8 0 15 1t7 6q0 7 -6 12t-15 8.5t-20 7t-21 6.5q-2 0 -2.5 0.5t-2.5 0.5q-44 13 -60 30t-20 30q-1 1 -1 3q-1 4 -1 11v4q2 17 12 22t22 2q2 -1 4 -1l1 -1q17 -9 27 -19t16 -19.5t8 -18t2 -12.5q20 -2 34 0.5t19 11.5q4 17 -1 29.5t-14.5 21t-20.5 13.5t-17 7q-8 0 -14 2
q-3 1 -5 1q-38 8 -57 28t-11 45q2 6 7 9h-1q-2 7 -2.5 14t0.5 13l2 14q18 -6 39.5 -10.5t41.5 -7.5h1l2 -1q2 0 5 -0.5t6 -0.5q8 -1 20 -1t22.5 4t17.5 13t5 26q-2 21 -16 35.5t-33.5 22.5t-42 10.5t-42 -0.5t-33 -10.5t-14.5 -18.5zM254 472q6 -2 11.5 -3t10.5 -3
q-5 15 -13.5 25.5t-17.5 17t-16 9.5l-7 3q-8 1 -11 -4q-1 -3 -1 -5t0.5 -7t4 -10.5t12.5 -11.5t27 -11zM63 476q0 -10 10 -18.5t25 -15.5q11 15 27 18.5t34 -3.5q-11 15 -27.5 25t-31.5 13t-26 -1.5t-11 -17.5zM266 623q-13 2 -25 3.5t-21 3.5q-4 -2 -6.5 -4.5t-2.5 -9.5
q0 -10 12 -16.5t28 -10.5t30.5 -6t20.5 -2q1 0 8 -1t15 -1t14 1.5t6 5.5q0 7 -6.5 12t-16.5 9t-22 7.5t-22 6.5q-8 2 -12 2zM171 539q0 -13 -3.5 -16t-8.5 -2t-12 6h2q5 0 8.5 3t3.5 9q0 7 -4.5 14t-12.5 7t-14 -5t-11.5 -11t-10.5 -11t-12 -5q-11 0 -17.5 8.5t-5.5 21.5
q-1 12 5 16.5t14 2.5q6 -1 8 -7q1 -3 0 -6q-10 6 -15 4q-6 -2 -6 -10q0 -5 3 -10t8 -5q7 0 12 4.5t9.5 10t11 10t16.5 4.5q17 0 24.5 -9.5t7.5 -23.5zM169 595q1 -10 -7 -16t-25 -1t-23.5 12t-8.5 12v1q-1 1 -1 4v2q1 7 5 9t9 0t5 -5v-4q-8 5 -11 3q-2 -1 -2 -3t2 -7t16 -9
q12 -4 21.5 -3.5t12.5 5.5q2 8 -1.5 13t-8.5 9q-6 4 -14 7q-10 2 -19 5q-8 2 -15.5 3.5t-9.5 2.5q-5 2 -2 6t13 -1h1q1 0 1 2q0 4 1 9q-1 2 -0.5 3.5t0.5 3.5t1 3q8 -2 18.5 -4t19.5 -4h10t7 3q0 5 -8.5 7.5t-16.5 5.5q-7 1 -14.5 2t-15.5 3q-2 2 -1.5 5.5t0.5 5.5q0 3 1 5
q8 -3 18.5 -5t19.5 -3q3 -1 10 -1t7 3q0 5 -8.5 8t-17.5 5l-10 2l-10 2t-10 1q-1 2 -1 5.5v5.5q0 3 1 6h1q-3 1 -3 4q-3 11 3 16.5t18 4.5q2 0 3 -0.5t3 -0.5q7 -2 12 -4l10 -4q-9 7 -19 11h-5v1q-6 0 -12 2q-2 0 -10 2v-4h-4v4q-5 1 -9 1.5t-8 1.5l-8 2q-1 2 -1 5.5v5.5
q0 3 1 5q2 -1 9.5 -2.5t15.5 -3.5v7l4 -1v-6q10 -3 15 -3q6 -2 12 -3t11 -2h10t7 3q0 5 -9 8t-17 5l2 3q9 -4 19 -7t10 -13q0 -8 -6.5 -10.5t-14.5 -1.5q6 -4 13 -10t7 -16q1 -5 0 -7.5t-2 -4.5q7 -2 12.5 -2t10.5 -1t10 -1q0 -12 -2.5 -13.5t-8.5 -0.5q-2 0 -10 1t-17 3
q-1 1 -3 1q11 -6 11 -14q0 -12 -18 -12q8 -2 13 -5.5t5 -10.5q0 -6 -4.5 -9t-10.5 -3.5t-12.5 0.5t-10.5 2q-6 1 -11.5 1.5t-8.5 1.5q0 -4 -1 -5l-1 -6l31 -8q20 -5 24.5 -15.5t4.5 -15.5zM162 709q0 1 0.5 1t0.5 2q0 7 -10 11q-4 2 -10 3q-7 2 -20 3.5t-13 -5.5q0 -5 5 -7
q2 0 3.5 -0.5t3.5 -0.5q11 -2 23 -4.5t17 -3.5v1zM105 683q0 -8 -8 -6t-8 8t8 6q8 -2 8 -8z" />
    <glyph glyph-name="parenright" unicode=")" horiz-adv-x="305" 
d="M239 545q4 27 6.5 54.5t-5.5 52.5q-3 -2 -3 1q0 2 5 2h10q33 0 50.5 -21t24.5 -51t6.5 -63t-3.5 -57q-4 -26 -13.5 -68.5t-23.5 -94t-31 -106t-35 -104.5t-36 -90t-34 -62q-35 -50 -90 -50q-8 0 -20 2t-22.5 6t-17.5 11t-7 17q28 25 55.5 71t52.5 103t47 121t39 125
t28.5 113.5t16.5 87.5z" />
    <glyph glyph-name="bar" unicode="|" horiz-adv-x="146" 
d="M117 700l-30 -828h-68l20 414q4 78 7.5 152t6.5 132t4.5 94l1.5 36h58z" />
    <glyph glyph-name="bracketleft" unicode="[" horiz-adv-x="336" 
d="M354 672q9 0 21 -1.5t22.5 -6t16.5 -13t5 -21.5q-2 -17 -17.5 -31.5t-29.5 -24.5q-16 11 -32.5 13t-36.5 3q-24 -33 -47 -78t-44.5 -96.5t-40.5 -107t-34 -109t-26 -102.5t-16 -88q-2 -14 -4 -27t-1 -27q2 0 12.5 1.5t24 3.5t26 3.5t19.5 1.5q9 0 19 -1.5t18.5 -5.5
t13 -11.5t3.5 -19.5q-2 -16 -14 -28t-25 -22q-20 14 -50 14h-40q-38 0 -59 19t-29.5 47.5t-8.5 62.5t4 64q3 23 14 72t28 109.5t38 126t45 121.5t50 95.5t52 48.5q11 2 40 8.5t83 6.5z" />
    <glyph glyph-name="braceleft" unicode="{" horiz-adv-x="224" 
d="M39 288q30 10 48.5 42t34 73.5t33 88t45.5 85t70.5 63.5t107.5 25q9 0 22 -1t24.5 -5t19 -12t5.5 -21q-2 -18 -17.5 -32.5t-29.5 -24.5q-19 11 -34.5 13t-38.5 2l-34 -1q-16 -36 -31 -81.5t-34.5 -89.5t-46.5 -80.5t-67 -55.5q16 -9 25 -25t13 -34.5t4 -39t-3 -38.5
q-6 -46 -16 -91.5t-13 -91.5q18 4 37 6.5t38 2.5q9 0 19.5 -1.5t19 -5.5t13.5 -11t4 -19q-2 -16 -14 -28.5t-25 -22.5q-15 9 -31.5 11t-55.5 2q-30 0 -50 13.5t-31.5 35t-15 48.5t0.5 54q1 11 5 30.5t7.5 42.5t6 48t2 46t-5.5 37t-17 21q-8 4 -16.5 4.5t-16.5 5.5
q10 6 20 7.5t19 4.5z" />
    <glyph glyph-name="parenleft" unicode="(" horiz-adv-x="249" 
d="M333 619q-29 -24 -56 -69.5t-52 -103t-47 -121t-39 -124.5t-28.5 -113.5t-16.5 -87.5q-3 -27 -5.5 -55t5.5 -54l3 -1h-7q-37 0 -56 19.5t-27 48.5t-7 62t5 61q3 25 12.5 68t23.5 94t31 106t35 104.5t35.5 90t33.5 61.5q35 50 90 50q8 0 19.5 -2t22 -6t18 -11t7.5 -17z
" />
    <glyph glyph-name="exclam" unicode="!" horiz-adv-x="217" 
d="M154 22q-6 1 -27 3t-43.5 10t-39.5 25.5t-13 50.5q2 16 9 46.5t17.5 69t23.5 82.5t26 87q31 101 68 220q17 3 35 -1q15 -3 31 -12.5t28 -30.5q-49 -147 -82 -265q-14 -50 -25.5 -99t-17.5 -89t-4 -66t14 -31zM117 -44q0 -24 -17 -41.5t-41 -17.5q-25 0 -42 17.5t-17 41.5
t17 41.5t42 17.5q24 0 41 -17.5t17 -41.5z" />
    <glyph glyph-name="less" unicode="&#x3c;" horiz-adv-x="333" 
d="M4 159q-9 21 -1 44t26 45t43.5 42.5t52.5 36t52.5 24.5t43.5 9q29 0 51.5 -14.5t29.5 -43.5q-18 5 -42.5 -1.5t-50 -18t-48 -25.5t-37.5 -24q15 -2 39.5 -6t48.5 -12.5t41 -22.5t17 -35q0 -20 -16 -37.5t-31 -27.5q-7 20 -30.5 33.5t-53 21.5t-58.5 11.5t-47 3.5
q-8 0 -15 -0.5t-15 -2.5z" />
    <glyph glyph-name="greater" unicode="&#x3e;" horiz-adv-x="318" 
d="M169 233q-13 10 -30.5 22.5t-37 23.5t-39.5 18.5t-37 7.5q-4 0 -8 -1l-8 -2q16 26 42 42t56 16q18 0 47.5 -14.5t57.5 -36t48.5 -46t20.5 -44.5q0 -5 -2 -10t-2 -10v-21t-10 -19q-21 6 -56 3t-71 -12.5t-66.5 -24.5t-42.5 -33q-13 10 -22 24t-9 31q0 23 20 39t47.5 26
t56 14.5t45.5 6.5z" />
    <glyph glyph-name="backslash" unicode="\" horiz-adv-x="244" 
d="M143 -61q-6 14 -15 50t-20 85.5t-23 107.5t-24 117q-28 137 -61 302q9 18 23 29q12 10 30 15.5t43 -2.5q1 0 6 -31t13.5 -81.5t21 -115t27 -132.5t31.5 -134t35.5 -118.5t38 -86.5t39.5 -39q-6 1 -28.5 -4t-49 -6t-51.5 7t-36 37z" />
    <glyph glyph-name="asciitilde" unicode="~" horiz-adv-x="371" 
d="M1 205q-2 30 5 51q6 18 21.5 30t49.5 4q33 -9 71.5 -19t75.5 -15t70 -2t56 20q-1 -2 1 -18.5t-5.5 -33.5t-30.5 -29t-74 -5t-90.5 17t-68.5 15.5t-49 3.5t-32 -19z" />
    <glyph glyph-name="underscore" unicode="_" horiz-adv-x="367" 
d="M5 44q64 4 127.5 5.5t129.5 1.5q6 0 18 1t23.5 -0.5t20 -6t8.5 -14.5q0 -15 -12 -32.5t-22 -27.5q0 6 -12.5 10.5t-31.5 7t-42.5 4t-45.5 2t-39 0.5h-25h-49t-48 -2q-4 4 -4.5 8t-0.5 8q0 18 5 35z" />
    <glyph glyph-name="colon" unicode=":" horiz-adv-x="137" 
d="M76 343q18 0 31 -13t13 -31t-13 -31t-31 -13t-31 13t-13 31t13 31t31 13zM44 205q18 0 31 -12.5t13 -30.5q0 -19 -13 -31.5t-31 -12.5t-31 12.5t-13 31.5q0 18 13 30.5t31 12.5z" />
    <glyph glyph-name="semicolon" unicode=";" horiz-adv-x="131" 
d="M60 343q18 0 31 -13t13 -31t-13 -31t-31 -13t-31 13t-13 31t13 31t31 13zM37 199q16 0 27 -11t11 -26q0 -14 -10 -26q-8 -13 -18 -20.5t-18.5 -11t-15 -4.5t-7.5 -1v22q5 -1 9.5 1t9.5 4q-25 10 -25 36q0 15 11 26t26 11z" />
    <glyph glyph-name="percent" unicode="%" horiz-adv-x="432" 
d="M208 488q0 -2 -0.5 -4t-0.5 -4q-9 -34 -21 -53q-1 -2 -1.5 -2.5t-1.5 -2.5v-1q-13 -18 -25.5 -26.5t-23.5 -11.5q-17 -5 -33 -1.5t-26.5 17t-13 36.5t6.5 58q9 31 19.5 52t21 34.5t21 20.5t19.5 10q2 0 4 1q5 1 8 1.5t6 0.5h6q14 -1 21.5 -8t9.5 -18l4 -6t4 -8
q3 -8 3.5 -20t-1 -24t-3.5 -23t-3 -18zM119 527q-13 -45 -12.5 -79t17.5 -42q2 -1 6 -1t10.5 3.5t13.5 13t13.5 27t12.5 45.5q3 17 5 30t3 24q-6 -3 -11 -3q-3 0 -5 1q11 18 12 27.5t-1 14.5q-3 5 -10 5q-3 0 -9 -1t-13.5 -7t-16 -19.5t-15.5 -38.5zM351 156q-1 -2 -1 -4
t-1 -4q-8 -32 -21 -54q-1 -1 -1.5 -2t-1.5 -2v-1q-12 -19 -25 -27.5t-24 -10.5q-17 -6 -33 -2.5t-26.5 17t-13 37t6.5 58.5q9 31 19.5 51.5t21.5 34t21.5 20.5t19.5 10q0 1 3 1q9 3 14 3h6v-1q15 0 22 -7.5t9 -18.5q5 -5 8 -14q3 -8 3.5 -19.5t-0.5 -23.5t-3 -23t-3 -18z
M261 195q-13 -45 -12.5 -79.5t17.5 -42.5q4 0 6 -1q4 0 10.5 3.5t13.5 13.5t14 27t13 46q3 17 4.5 30t3.5 23q-4 -2 -11 -2h-5q10 18 11.5 27.5t-0.5 14.5q-3 5 -10 5q-3 0 -9 -0.5t-14 -6.5t-16.5 -19.5t-15.5 -38.5zM405 612l-16 -25.5t-42 -67.5t-59 -96t-66.5 -110.5
t-64.5 -111.5t-53.5 -99t-33.5 -72t-4 -32q-3 1 -17 2.5t-26.5 7t-19.5 17.5t3 35q4 10 18.5 36.5t36 63t48 81t54.5 91t56 92t52 85.5l82 134q15 -8 26 -15z" />
    <glyph glyph-name="asciicircum" unicode="^" horiz-adv-x="303" 
d="M253 743q0 -9 -0.5 -16.5t-0.5 -15.5q0 -15 1.5 -35.5t6 -41.5t13.5 -39t23 -26q-11 -14 -28 -26t-35 -12t-29.5 14.5t-17.5 34.5t-8 41t-2 34v27q-11 -12 -26 -31.5t-29.5 -41.5t-24.5 -43.5t-10 -38.5v-8q-16 0 -31.5 0.5t-27.5 3.5t-19.5 9t-7.5 17q0 12 10 32.5
t26 45t37 50.5t43 48.5t43.5 39.5t39.5 24z" />
    <glyph glyph-name="quotedblright" unicode="&#x201d;" horiz-adv-x="161" 
d="M37 656q16 0 27 -10.5t11 -26.5q0 -15 -10 -25q-8 -13 -18 -20.5t-18.5 -11t-15 -4.5t-7.5 -1v22q9 -1 19 5q-11 4 -18 13.5t-7 21.5q0 16 11 26.5t26 10.5zM116 641q16 0 27 -11t11 -27q0 -13 -10 -25q-8 -13 -18 -20.5t-18.5 -11t-15 -4.5t-7.5 -1v22q9 -1 19 5
q-11 4 -18 13.5t-7 21.5q0 16 11 27t26 11z" />
    <glyph glyph-name="quotedblleft" unicode="&#x201c;" horiz-adv-x="174" 
d="M129 601q11 -4 18 -13.5t7 -21.5q0 -16 -11 -26.5t-27 -10.5q-15 0 -26 10.5t-11 26.5q0 15 10 25q8 13 17.5 20.5t18.5 11t15 4.5t8 1v-22q-11 2 -19 -5zM50 617q11 -4 18 -13.5t7 -21.5q0 -16 -11 -27t-27 -11q-15 0 -26 11t-11 27q0 13 10 25q8 13 17.5 20.5t18 11
t15 4.5t7.5 1v-22q-10 2 -18 -5z" />
    <glyph glyph-name="asterisk" unicode="*" horiz-adv-x="188" 
d="M10 679q8 3 16.5 5.5t16.5 4.5q-2 4 -4 7.5t-4 8.5q1 -1 4 9.5t17 22.5q1 -2 4 -6q2 -3 4.5 -7t6.5 -9q5 15 11.5 30.5t20.5 18.5q11 3 19.5 -0.5t14.5 -8.5q-4 -2 -8 -7.5t-8 -12.5t-7 -14t-4 -11q5 1 16.5 5t23 6.5t19.5 1.5t7 -10q-2 -11 -13 -26t-20 -25q2 8 -9 8.5
t-22 -1.5q8 -6 15 -9.5t14 -1.5q-4 -2 -11 -13q-4 -5 -8 -11q-5 0 -10 2t-11.5 3.5t-13.5 6.5q-4 -14 -7.5 -26.5t-6.5 -25.5q-2 -3 -8 -3.5t-12.5 0t-12 1t-7.5 0.5l22 64q-14 -3 -26.5 -7t-26.5 -8q-3 2 -1 12q1 7 3.5 13.5t5.5 12.5z" />
    <glyph glyph-name="grave" unicode="`" horiz-adv-x="188" 
d="M95 504l-7 13t-19 34t-29.5 48.5t-39.5 57.5q3 8 10 15q6 5 17.5 10t30.5 5l119 -147q-5 -14 -18.5 -21.5t-27.5 -10.5q-17 -4 -36 -4z" />
    <glyph glyph-name="quoteright" unicode="&#x2019;" horiz-adv-x="92" 
d="M75 591q0 -15 -10 -25q-8 -13 -18 -20.5t-18.5 -11t-15 -4.5t-7.5 -1v22q9 -1 19 5q-11 4 -18 13.5t-7 21.5q0 16 11 26.5t26 10.5q16 0 27 -10.5t11 -26.5z" />
    <glyph glyph-name="period" unicode="." horiz-adv-x="96" 
d="M44 4q18 0 31 -13t13 -31t-13 -31t-31 -13t-31 13t-13 31t13 31t31 13z" />
    <glyph glyph-name="comma" unicode="," horiz-adv-x="94" 
d="M75 -33q0 -14 -10 -26q-8 -13 -18 -20.5t-18.5 -11t-15 -4.5t-7.5 -1v22q5 -1 9.5 1t9.5 4q-25 10 -25 36q0 15 11 26t26 11q16 0 27 -11t11 -26z" />
    <glyph glyph-name="quotedbl" unicode="&#x22;" horiz-adv-x="170" 
d="M37 656q16 0 27 -10.5t11 -26.5q0 -15 -10 -25q-8 -13 -18 -20.5t-18.5 -11t-15 -4.5t-7.5 -1v22q9 -1 19 5q-11 4 -18 13.5t-7 21.5q0 16 11 26.5t26 10.5zM116 641q16 0 27 -11t11 -27q0 -13 -10 -25q-8 -13 -18 -20.5t-18.5 -11t-15 -4.5t-7.5 -1v22q9 -1 19 5
q-11 4 -18 13.5t-7 21.5q0 16 11 27t26 11z" />
    <glyph glyph-name="quotesingle" unicode="'" horiz-adv-x="88" 
d="M75 599q0 -15 -10 -25q-8 -13 -18 -20.5t-18.5 -11t-15 -4.5t-7.5 -1v22q9 -1 19 5q-11 4 -18 13.5t-7 21.5q0 16 11 26.5t26 10.5q16 0 27 -10.5t11 -26.5z" />
    <glyph glyph-name="quoteleft" unicode="&#x2018;" horiz-adv-x="93" 
d="M50 597q11 -4 18 -13.5t7 -21.5q0 -16 -11 -27t-27 -11q-15 0 -26 11t-11 27q0 13 10 25q8 13 17.5 20.5t18 11t15 4.5t7.5 1v-22q-10 2 -18 -5z" />
    <glyph glyph-name="w" unicode="w" horiz-adv-x="653" 
d="M636 505q17 1 30 -2q11 -3 20 -10t10 -22q0 -4 -14 -45.5t-38 -102t-57 -129.5t-71 -128t-79.5 -98t-82.5 -39q-30 0 -50.5 12t-33.5 32.5t-19 47.5t-7 57q-9 -30 -21 -57t-29 -47.5t-39.5 -32.5t-53.5 -12q-38 0 -61 19t-34.5 49.5t-13.5 68.5t0.5 75.5t7.5 70.5t8 54
l35 205q24 8 49.5 9.5t46.5 -0.5q25 -3 49 -9q-13 -38 -24 -82t-20 -89t-16 -90t-13 -85q-2 -12 -3.5 -36.5t-1 -49t6 -43t18.5 -18.5q22 0 38 18t29.5 46.5t24.5 64t22 70.5q3 27 6.5 50t5.5 39q7 39 13 76t11 66q5 33 11 63q24 8 49.5 9.5t46.5 -0.5q25 -3 49 -9
q-13 -38 -24 -81t-20 -87.5t-16 -89t-13 -84.5q-1 -10 -3.5 -34.5t-1.5 -50.5t6 -46t19 -20q25 0 51 32t51 82.5t47.5 111.5t42 119.5t34 107.5t22.5 74z" />
    <glyph glyph-name="a" unicode="a" horiz-adv-x="512" 
d="M533 190q-14 -42 -26.5 -88t-30.5 -84.5t-46.5 -63.5t-73.5 -25q-31 0 -51.5 12.5t-33 34t-18.5 49t-7 57.5q-10 -30 -22 -58t-28.5 -49t-39.5 -33.5t-54 -12.5t-51.5 14t-33.5 36.5t-18.5 52t-6.5 59.5q-3 71 15 162q13 68 39 119.5t60 83.5t75 42.5t85 -2.5
q19 -6 32 -25q24 8 49.5 9.5t46.5 -0.5q25 -3 49 -9q-13 -38 -24 -82t-20 -89t-16 -90t-13 -85q-2 -12 -3.5 -36.5t-1 -49t6 -43t18.5 -18.5q24 0 41 21.5t31 54.5t26 73.5t24 78.5zM136 -22q22 0 38.5 19t30 49t24.5 67t23 73q2 24 5.5 45t5.5 35h1q8 47 15 89.5t12 71.5
q-5 12 -16.5 20t-32.5 8q-23 0 -41.5 -20.5t-32 -52t-23 -69.5t-15.5 -74t-9 -65t-4 -42h-1q-1 -6 -3.5 -31t-2 -52.5t5.5 -49t20 -21.5z" />
    <glyph glyph-name="b" unicode="b" horiz-adv-x="432" 
d="M225 496q49 13 86 5.5t60.5 -33t32.5 -67.5t3 -96q-3 -28 -9 -52l-19 -94l-1 -1q-16 -60 -38.5 -100t-49 -64.5t-54 -36.5t-53.5 -15.5t-48 -1.5t-37 6q-1 -6 -1.5 -11t-0.5 -8q-1 -4 -1 -7q-54 0 -81.5 5t-38 17t-9.5 31.5t4 49.5q1 9 5 33t9 56.5t11.5 71t13.5 77.5
q3 19 8.5 52t12.5 74.5t15 87.5t16 91q18 106 40 227q23 9 48 10t47 -1q26 -3 50 -9q-5 -13 -12.5 -47t-16.5 -79.5t-19 -98.5t-20 -104q21 26 47 32zM102 -14q19 -6 36 -2t31.5 15t26 27t20.5 34q21 41 36 99l1 2q5 22 11.5 52t11.5 63t7 65t-2 57.5t-15 41t-31 15.5
q-28 0 -43.5 -12t-23.5 -29q-10 -55 -17.5 -97.5t-11.5 -60.5q-14 -77 -23.5 -149.5t-13.5 -120.5z" />
    <glyph glyph-name="c" unicode="c" horiz-adv-x="415" 
d="M436 190q-23 -88 -61 -139.5t-79 -78.5t-79.5 -35t-61.5 -9q-42 -3 -79 12t-61 50.5t-29.5 92t17.5 135.5q22 77 49.5 129t56.5 85t57 49.5t52 23.5q4 2 10 2q12 3 21.5 3.5t17.5 0.5t15 -1q29 -2 47.5 -13.5t28.5 -28.5t11.5 -38t-4.5 -42q-6 -23 -19 -33t-27 -13
q-16 -4 -35 -1q27 45 30.5 69t-3.5 35q-8 12 -27 14q-8 0 -24.5 -1t-37.5 -15.5t-43 -47.5t-40 -96q-16 -54 -23.5 -104t-6 -90.5t12.5 -69.5t32 -41q37 -9 67.5 -5t56 17t45.5 33t35 42q36 52 57 125l21 -16v0z" />
    <glyph glyph-name="d" unicode="d" horiz-adv-x="515" 
d="M536 190q-14 -42 -26.5 -88t-31 -84.5t-46.5 -63.5t-73 -25q-32 0 -52.5 13t-33 34.5t-18 50t-6.5 59.5q-10 -31 -22 -59.5t-29 -50t-40 -34.5t-55 -13q-31 0 -51.5 14t-33.5 36.5t-18.5 52t-6.5 59.5q-3 71 15 162q13 68 39 119.5t60 83.5t75 42.5t85 -2.5
q11 -3 20 -10.5t14 -17.5q9 46 20 102t21 106q11 58 23 116q24 8 49.5 9t46.5 -1q25 -3 49 -8q-4 -10 -12 -44.5t-18 -81t-21.5 -99.5t-21.5 -100.5t-17.5 -83t-10.5 -47.5q-11 -54 -20.5 -108t-16.5 -103q-1 -12 -3 -36.5t-1 -49t6 -43t19 -18.5q24 0 41 21.5t31 54.5
t26 73.5t24 78.5zM137 -22q22 0 39 20t30.5 51t25 69t23.5 75q3 22 6 40.5t5 32.5q5 32 10 61.5t10 55.5q1 5 2.5 15.5t4.5 24.5q-4 14 -15.5 23t-34.5 9q-24 0 -42 -20.5t-31.5 -52t-23 -69.5t-15.5 -74t-9 -65t-4 -42h-1q-1 -6 -3.5 -31t-2 -52.5t5.5 -49t20 -21.5z" />
    <glyph glyph-name="e" unicode="e" horiz-adv-x="416" 
d="M436 190q-15 -58 -37 -100.5t-48.5 -71t-54.5 -46.5t-54 -27.5t-48.5 -13t-37.5 -3.5q-42 -3 -79.5 12t-61.5 50.5t-29.5 92t17.5 135.5q22 77 49.5 129t56.5 85t57.5 49.5t51.5 23.5q6 2 10 2q12 3 21.5 3.5t17.5 0.5t15 -1q29 -2 47.5 -13.5t28.5 -28.5t11.5 -38
t-3.5 -42q-2 -4 -2.5 -7t-2.5 -6q-2 -4 -2 -5q-30 -59 -66.5 -95t-71 -56t-63.5 -27.5t-44 -8.5q-9 -70 0 -120.5t41 -68.5q37 -9 67.5 -5t56 17t45.5 33t35 42q36 52 57 125zM284 459q-8 0 -24.5 -1t-37 -15.5t-42.5 -47.5t-40 -96q-6 -20 -10.5 -39t-8.5 -37
q55 15 92 46.5t59.5 63.5t32.5 56t11 26q2 17 -2.5 26t-11.5 13q-8 4 -18 5z" />
    <glyph glyph-name="f" unicode="f" horiz-adv-x="201" 
d="M175 471q-19 -88 -41 -207t-47 -272q-2 -10 -3 -19.5t-3 -18.5q-4 -21 -7.5 -42t-8.5 -41q-10 -45 -23.5 -74.5t-28.5 -47t-30.5 -25t-28.5 -9.5q-34 -4 -55 7q-9 4 -16.5 12.5t-11 21.5t-1.5 32t12 46q13 34 33 55.5t42 34.5l3 19q9 59 17.5 117t17.5 115q2 8 2.5 15.5
t2.5 15.5q3 21 6.5 47t7 51t6.5 46.5t5 32.5t6.5 34.5t9.5 53.5h-35l7 32h34q8 38 15 77.5t14 72.5q7 39 15 75q24 8 49.5 9t46.5 -1q25 -3 49 -8q-5 -16 -19.5 -71t-35.5 -154h63l-8 -32h-61zM-75 -164q-17 -36 -12.5 -52t14.5 -21q9 35 14.5 64.5t8.5 48.5
q-13 -16 -25 -40z" />
    <glyph glyph-name="g" unicode="g" horiz-adv-x="460" 
d="M481 190q-13 -38 -24 -79t-26.5 -77.5t-37.5 -63.5t-56 -37q-3 -16 -6 -31.5t-7 -30.5q-10 -45 -23.5 -74.5t-28.5 -47t-30.5 -25t-28.5 -9.5q-34 -4 -55 7q-9 4 -16.5 12.5t-10.5 21.5t-1 32t12 46q12 34 32 55.5t43 34.5l3 19q4 26 7.5 53t7.5 53q-9 -25 -21 -46.5
t-28 -38t-36.5 -26t-47.5 -9.5q-31 0 -51.5 14t-33.5 36.5t-18.5 52t-6.5 59.5q-3 71 15 162q13 68 39 119.5t60 83.5t75 42.5t85 -2.5q10 -2 17.5 -8.5t13.5 -14.5q23 8 48.5 8t45.5 -2q24 -3 46 -8q-16 -44 -28 -102t-23 -123.5t-21 -135.5t-21 -137q8 5 13.5 9t9.5 7
q4 4 8 7q14 14 25.5 37.5t21.5 52t19 60t19 60.5zM136 -22q23 0 40 20.5t31 52.5t25.5 71t23.5 77q11 75 18.5 137.5t12.5 97.5q-5 9 -16 15t-29 6q-23 0 -41.5 -20.5t-32 -52t-23 -69.5t-15.5 -74t-9 -65t-4 -42h-1q-1 -6 -3.5 -31t-2 -52.5t5.5 -49t20 -21.5zM184 -164
q-8 -18 -10.5 -30.5t-1.5 -21t5 -13.5t9 -8q9 35 14.5 64.5t9.5 48.5q-7 -8 -13.5 -18t-12.5 -22z" />
    <glyph glyph-name="h" unicode="h" horiz-adv-x="484" 
d="M505 190q-14 -42 -26.5 -88t-31 -84.5t-46.5 -63.5t-73 -25q-38 0 -61 19t-34.5 49.5t-13.5 68.5t0.5 75.5t7.5 70.5t8 54q4 22 7.5 43t6.5 41v-1l4 34q1 13 1 24.5t-3 13.5t-21.5 -28.5t-41 -78.5t-43.5 -106.5t-30 -113.5l-1 2q-5 -38 -8.5 -70.5t-5.5 -55.5
q-3 -28 -5 -50q-54 0 -81.5 5t-38 17t-9.5 31.5t4 49.5q1 9 5 33t9 56.5t11.5 71t13.5 77.5q3 19 8.5 52t12.5 74.5t15 87.5t16 91q18 106 40 227q23 9 48 10t47 -1q26 -3 50 -9q-5 -15 -14 -55.5t-20 -94t-22.5 -114t-21.5 -115t-18 -97.5t-11 -61v-3q10 29 24 62t30.5 63
t35.5 54.5t40 38.5q24 9 48.5 9t43.5 -8.5t29 -25t5 -41.5q-14 -69 -29.5 -142t-24.5 -138q-1 -12 -3 -36.5t-1 -49t6 -43t19 -18.5q24 0 41 21.5t31 54.5t26 73.5t24 78.5z" />
    <glyph glyph-name="i" unicode="i" horiz-adv-x="252" 
d="M273 190q-14 -42 -26.5 -88t-30.5 -84.5t-46.5 -63.5t-73.5 -25q-58 0 -81 44t-24 118.5t14 173t33 206.5q24 8 49.5 9.5t46.5 -0.5q25 -3 49 -9q-13 -38 -24 -82t-20 -89t-16 -90t-13 -85q-2 -12 -3.5 -36.5t-1 -49t6 -43t18.5 -18.5q24 0 41.5 21.5t31.5 54.5
t25.5 73.5t23.5 78.5zM121 508q-26 0 -41 20t-10 49q4 29 24.5 49t46.5 20t40.5 -20t10.5 -49q-5 -29 -25 -49t-46 -20z" />
    <glyph glyph-name="j" unicode="j" horiz-adv-x="202" 
d="M223 190q-12 -38 -23.5 -79t-26.5 -77.5t-37.5 -63.5t-56.5 -37q-3 -16 -6 -31.5t-6 -30.5q-10 -45 -23.5 -74.5t-28.5 -47t-30.5 -25t-28.5 -9.5q-34 -4 -55 7q-9 4 -16.5 12.5t-11 21.5t-1.5 32t12 46q13 34 33 55.5t42 34.5l3 19q13 90 26 183t24 170q12 90 23 175
q24 8 49.5 9.5t46.5 -0.5q25 -3 49 -9q-16 -44 -28 -102t-23 -123.5t-21 -135.5t-22 -137q8 5 14 9t10 7q4 4 8 7q14 14 25.5 37.5t21 52t19 60t18.5 60.5zM-73 -164q-17 -36 -12.5 -52t14.5 -21q9 35 14.5 64.5t8.5 48.5q-13 -16 -25 -40zM109 508q-26 0 -40.5 20t-10.5 49
q5 29 25 49t46 20t41 -20t10 -49q-4 -29 -24.5 -49t-46.5 -20z" />
    <glyph glyph-name="k" unicode="k" horiz-adv-x="484" 
d="M505 190q-14 -42 -26.5 -88t-31 -84.5t-46.5 -63.5t-73 -25q-44 0 -67.5 24.5t-33.5 62t-9.5 82t5.5 84.5q0 1 0.5 19t0 40t-4 40.5t-11.5 21.5q0 1 17.5 8t39 21.5t39.5 36.5t18 53q0 30 -11 36t-27 -4t-33.5 -32t-30.5 -47q-20 -40 -47 -99t-53 -141q-7 -45 -11.5 -84
t-7.5 -68q-4 -34 -6 -63q-54 0 -81.5 5t-38 17t-9.5 31.5t4 49.5q1 9 5 33t9 56.5t11.5 71t13.5 77.5q3 19 8.5 52t12.5 74.5t15 87.5t16 91q18 106 40 227q23 9 48 10t47 -1q26 -3 50 -9q-5 -14 -13 -50.5t-18 -85t-20.5 -104.5t-20.5 -108.5t-18 -97.5t-13 -72
q16 40 36.5 80.5t45.5 73.5t53 53.5t59 20.5q34 0 49.5 -14.5t16 -36.5t-11 -47.5t-31.5 -48t-46.5 -38t-55.5 -17.5q15 -3 33.5 -11t33.5 -26.5t21.5 -49.5t-3.5 -80q-6 -44 -6 -78q0 -15 1 -29t3.5 -25t7.5 -17.5t13 -6.5q24 0 41 21.5t31 54.5t26 73.5t24 78.5z" />
    <glyph glyph-name="l" unicode="l" horiz-adv-x="257" 
d="M278 190q-14 -42 -26.5 -88t-30.5 -84.5t-46.5 -63.5t-73.5 -25q-38 0 -61 19.5t-34 53.5t-12 79t4 95t13.5 103.5t16.5 103.5q1 10 5.5 32.5t10.5 53t13 66.5l14 72q17 84 36 185q24 8 49.5 9t47.5 -1q25 -3 49 -8q-4 -10 -12 -44.5t-18.5 -81t-21.5 -99.5t-21.5 -100.5
t-18 -83t-9.5 -47.5q-12 -54 -21 -108t-16 -103q-2 -12 -3.5 -36.5t-1 -49t6 -43t18.5 -18.5q24 0 41.5 21.5t31.5 54.5t25.5 73.5t23.5 78.5z" />
    <glyph glyph-name="m" unicode="m" horiz-adv-x="699" 
d="M720 190q-14 -42 -26.5 -88t-30.5 -84.5t-46.5 -63.5t-73.5 -25q-38 0 -61 19t-34.5 49.5t-13.5 68.5t0.5 75.5t7.5 70.5t8 54q4 22 7.5 43t6.5 41v-1l4 34q2 13 2 24.5t-3 13.5q-3 1 -16 -19t-30.5 -54t-36.5 -78.5t-34 -91.5q-8 -51 -13.5 -95.5t-9.5 -78.5
q-4 -40 -7 -74q-54 0 -81.5 5t-38 17t-9.5 31.5t4 49.5q1 12 7 49t14 85.5t17 101.5t17 98q1 7 2 16t1 17t-0.5 14t-2.5 7q-3 2 -19.5 -24.5t-37.5 -70t-42 -97.5t-32 -107q-6 -41 -10 -76t-7 -61q-4 -31 -5 -55q-54 0 -81.5 5t-38 17t-9.5 31.5t4 49.5q1 9 5 33t9 56.5
t11.5 71t13.5 77.5q15 91 34 200q23 9 48 10t47 -1q26 -3 51 -9q-16 -46 -28 -100t-23 -110q11 29 24.5 60.5t30 60.5t35 52.5t38.5 36.5q22 9 47 9t44.5 -9.5t29.5 -28.5t3 -47q-6 -24 -11.5 -49t-10.5 -51q10 26 23 52.5t27.5 50.5t30.5 43t34 30q24 9 48.5 9t43 -8.5
t28.5 -25t5 -41.5q-14 -69 -29 -142t-24 -138q-2 -12 -3.5 -36.5t-1 -49t6 -43t18.5 -18.5q24 0 41 21.5t31 54.5t26 73.5t24 78.5z" />
    <glyph glyph-name="n" unicode="n" horiz-adv-x="475" 
d="M495 190q-14 -42 -26 -88t-30.5 -84.5t-47 -63.5t-73.5 -25q-39 0 -61.5 19t-34 49.5t-13.5 68.5t0.5 75.5t7.5 70.5t9 54q4 22 7 43t7 41l-1 -1l4 34q2 13 2 24.5t-3 13.5q-3 1 -16 -19.5t-31 -55.5t-37.5 -80.5t-33.5 -92.5q-8 -50 -13 -94t-9 -77q-4 -39 -7 -72
q-54 0 -81.5 5t-38 17t-9.5 31.5t4 49.5q1 9 5 33t9 56.5t11.5 71t13.5 77.5q15 91 34 200q23 9 48 10t47 -1q26 -3 51 -9q-14 -39 -25 -85t-20 -94q10 26 23 53t28 51t31 43.5t34 31.5q24 9 48.5 9t43.5 -8.5t29 -25t5 -41.5q-14 -69 -29.5 -142t-24.5 -138
q-2 -12 -3.5 -36.5t-1 -49t6 -43t18.5 -18.5q24 0 41.5 21.5t31.5 54.5t26 73.5t24 78.5z" />
    <glyph glyph-name="o" unicode="o" horiz-adv-x="423" 
d="M385 190q-12 -50 -26 -87.5t-40 -77.5q-8 -12 -23 -26.5t-33 -28t-38 -23.5t-38 -14q-46 -12 -89.5 -1t-72.5 46t-37 94.5t16 145.5q22 80 50 132.5t58 85t60 48.5t57 23q12 3 21.5 3.5t17.5 0.5t15 -1q40 -3 60.5 -22.5t25.5 -46.5q6 -7 11.5 -16t10.5 -21
q8 -21 9.5 -50.5t-1 -60t-7 -58.5t-7.5 -45zM140 299q-16 -56 -23.5 -106.5t-6 -91.5t13.5 -69.5t35 -39.5q9 -3 17 -3q12 0 29 8t35 31.5t36 67t33 114.5q8 42 12.5 75t6.5 59q-8 -3 -15.5 -4t-13.5 -1q-7 0 -14 2q27 45 30.5 69t-3.5 35q-8 12 -27 14q-8 0 -24.5 -1
t-37.5 -15.5t-43 -47.5t-40 -96z" />
    <glyph glyph-name="p" unicode="p" horiz-adv-x="431" 
d="M456 211q-21 -75 -57 -135q-15 -26 -35.5 -50t-46 -43.5t-57 -31.5t-68.5 -12q-19 -4 -35.5 -3t-30.5 4t-24 6.5t-15 5.5q-10 -58 -16 -110t-11 -93q-5 -48 -9 -89q-54 0 -81.5 5t-38 17t-9.5 31.5t4 49.5q1 9 5 33t9 56.5t11.5 70.5t13.5 77q3 19 8 50t11.5 67.5
t13.5 77.5t14 80q16 92 34 197q23 9 48 10t47 -1q26 -3 51 -9q-1 -1 -1 -2q20 20 42 26q49 13 86 5.5t60.5 -33t33 -67.5t3.5 -96q-2 -13 -4.5 -26t-5.5 -26q-14 -64 -31.5 -112t-37.5 -83q28 31 54 76.5t49 111.5zM95 -5q0 -2 -1 -3q4 -2 9 -4q9 -3 24 -6q23 -2 42 11
t34 32.5t25.5 43t18 44t11 34t3.5 14.5q5 22 12 52t11.5 63t6.5 65t-2 57.5t-15 41t-31 15.5q-27 0 -42.5 -11.5t-23.5 -28.5q-3 -13 -6 -28t-7 -32v-1q-10 -47 -20.5 -102t-20.5 -105.5t-17.5 -91.5t-10.5 -60z" />
    <glyph glyph-name="q" unicode="q" horiz-adv-x="448" 
d="M298 472q23 9 48 10t47 -1q26 -3 50 -9q-5 -15 -13 -51t-17.5 -83t-20 -99.5t-19.5 -100.5t-16 -86.5t-10 -56.5q-12 -63 -20.5 -123t-13.5 -108q-6 -55 -10 -104q-54 0 -81.5 5t-38 17t-9.5 31.5t4 49.5q1 9 4.5 33t9 56.5t12 70.5t12.5 77q1 4 1.5 7.5t1.5 8.5
q-19 -38 -46.5 -62.5t-72.5 -24.5q-37 0 -59 17.5t-34 45.5t-15 63.5t-1.5 71.5t6 69t8.5 57q2 13 4.5 26t5.5 26q13 54 37 96t56.5 67.5t72 33t83.5 -5.5q21 -6 34 -26v2zM134 -22q21 0 37.5 17t29.5 45t23.5 63t21.5 70q6 34 12 70t12 69t11 62t9 51q-5 13 -16 21.5
t-34 8.5t-41 -20.5t-31.5 -52t-23 -69.5t-15.5 -74t-9.5 -65t-4.5 -42q-1 -6 -3.5 -31t-2 -52.5t5.5 -49t19 -21.5z" />
    <glyph glyph-name="r" unicode="r" horiz-adv-x="409" 
d="M430 190q-14 -42 -26.5 -88t-30.5 -84.5t-46.5 -63.5t-73.5 -25q-38 0 -61 19t-34.5 49.5t-13.5 68.5t0.5 75.5t7.5 70.5t8 54q5 28 9.5 55l8.5 51t7.5 43.5t5.5 32.5q-13 2 -25.5 4.5t-23.5 5.5l-48 13l-78 -294l-16 29q24 94 44 174q9 34 17.5 68t16.5 63.5t14.5 52.5
t9.5 34q7 22 23 26.5t28 -7.5t13.5 -40.5t-19.5 -71.5q-2 -3 -4 -7q7 -4 21 -8q12 -3 31.5 -5.5t49.5 -3.5q19 1 35.5 -0.5t30.5 -3.5q15 -3 29 -6q-13 -38 -24 -82t-20 -89t-16 -90t-13 -85q-2 -12 -3.5 -36.5t-1 -49t6 -43t18.5 -18.5q24 0 41 21.5t31 54.5t26 73.5
t24 78.5z" />
    <glyph glyph-name="s" unicode="s" horiz-adv-x="351" 
d="M372 190q-9 -25 -20.5 -41.5t-24 -26t-25 -14.5t-21.5 -6q-7 -38 -31.5 -74.5t-70.5 -69.5q-37 -26 -69.5 -32t-61.5 1v2q-11 4 -19 15t-9 28t7.5 41t31.5 56q21 29 45.5 41t47.5 14q-2 2 -2.5 4.5t-2.5 4.5q0 1 -0.5 1t-0.5 1q-2 2 -2 4q-7 12 -19.5 27.5t-27 34.5
t-28.5 39.5t-25 43.5l-28 -108l-16 29q5 16 9 35q4 16 9 37.5t12 46.5q-5 21 -4.5 43t10.5 43.5t29.5 43t51.5 41.5q12 7 31 9.5t37.5 -6t32 -30t13.5 -62.5l-26 -5q-2 25 -7 42q-5 14 -13.5 23t-23.5 -2q-18 -13 -17.5 -33.5t10.5 -43t25 -44t27 -36.5q5 -5 9.5 -10.5
t9.5 -10.5q29 -37 45 -77.5t14 -82.5q19 4 32 17t21 27q9 16 14 35zM125 -32q20 14 30.5 30.5t13.5 33.5t1 34.5t-8 33.5q-20 0 -41 -10.5t-41 -39.5q-21 -32 -23 -51t4.5 -29t15.5 -13t10 -3q19 1 38 14z" />
    <glyph glyph-name="t" unicode="t" horiz-adv-x="258" 
d="M279 190q-14 -42 -26.5 -88t-30.5 -84.5t-46.5 -63.5t-73.5 -25q-38 0 -61 19t-34.5 49.5t-13.5 68.5t0.5 75.5t7.5 70.5t8 54h1q5 32 9.5 61.5t9.5 55.5q2 11 6.5 34.5t9.5 53.5h-35l8 32h34q7 38 15 77.5t14 72.5q7 39 14 75q24 8 49.5 9t46.5 -1q25 -3 49 -8
q-3 -9 -8.5 -31.5t-12.5 -53.5t-15 -67.5t-15 -72.5h60l-9 -32h-58q-11 -48 -18.5 -84.5t-10.5 -50.5q-12 -54 -21 -108t-16 -103q-2 -12 -3.5 -36.5t-1 -49t6 -43t18.5 -18.5q24 0 41.5 21.5t31.5 54.5t25.5 73.5t23.5 78.5z" />
    <glyph glyph-name="u" unicode="u" horiz-adv-x="515" 
d="M535 190q-14 -42 -26 -88t-30.5 -84.5t-47 -63.5t-73.5 -25q-32 0 -53 13.5t-33.5 36.5t-18 52.5t-5.5 61.5q-10 -32 -22 -62t-29 -52.5t-40.5 -36t-56.5 -13.5q-41 0 -64.5 20t-34 56t-10 86.5t8 110.5t19 128.5t23.5 140.5q24 8 49.5 9.5t46.5 -0.5q25 -3 49 -9
q-13 -38 -24 -82t-20 -89t-16 -90t-13 -85q-2 -12 -3.5 -36.5t-1 -49t6 -43t18.5 -18.5q24 0 41 21t31 54t26 73t24 78q1 9 3 21l6.5 39t12.5 75.5t22 131.5q24 8 49.5 9.5t46.5 -0.5q25 -3 49 -9q-13 -38 -24 -82t-20 -89t-16 -90t-13 -85q-2 -12 -3.5 -36.5t-1 -49t6 -43
t18.5 -18.5q24 0 41.5 21.5t31.5 54.5t26 73.5t24 78.5z" />
    <glyph glyph-name="v" unicode="v" horiz-adv-x="418" 
d="M383 505q17 1 30 -2q11 -3 20 -10t10 -22q0 -4 -14 -45.5t-38 -102t-57 -129.5t-71 -128t-79.5 -98t-82.5 -39q-38 0 -61 19t-34.5 49.5t-13.5 68.5t0.5 75.5t7.5 70.5t8 54h1q6 39 12 76t11 66q5 33 11 63q24 8 49.5 9.5t46.5 -0.5q25 -3 49 -9q-13 -38 -23.5 -81
t-19.5 -87.5t-16 -89t-13 -84.5q-2 -10 -4 -34.5t-1.5 -50.5t5.5 -46t19 -20q25 0 51 32t51 82.5t47.5 111.5t42 119.5t34 107.5t22.5 74z" />
    <glyph glyph-name="x" unicode="x" horiz-adv-x="482" 
d="M503 191q-14 -42 -26.5 -88t-30.5 -84.5t-46.5 -63.5t-73.5 -25q-66 0 -104 36t-55 94q-38 -44 -77 -80t-76 -59l-19 18q44 35 84.5 77t78.5 89q-6 47 -3 101l-1 1q8 68 9 123q0 23 -1.5 45.5t-5.5 40t-11.5 28t-19.5 10.5q-16 0 -28 -17t-20 -37q-10 -24 -16 -54
l-44 -169l-17 29q5 20 11 43l11.5 46t14.5 55q19 75 48.5 115.5t53.5 40.5q44 0 72 -21t43.5 -54t21.5 -73t6 -78q48 75 78 136.5t39 89.5q18 2 31 -2q11 -3 19.5 -12t6.5 -26q0 -3 -14 -26.5t-38 -61t-56.5 -85t-70.5 -97.5q0 -7 -1 -10q-2 -24 -1.5 -59.5t8.5 -68.5
t26 -56t51 -23q24 0 41 21.5t31 54.5t26 73t24 78z" />
    <glyph glyph-name="y" unicode="y" horiz-adv-x="460" 
d="M481 190q-12 -38 -23.5 -79t-26.5 -77.5t-37.5 -63.5t-56.5 -37q-3 -16 -6 -31.5t-6 -30.5q-10 -45 -23.5 -74.5t-28.5 -47t-30.5 -25t-28.5 -9.5q-34 -4 -55 7q-9 4 -16.5 12.5t-11 21.5t-1.5 32t12 46q13 34 33 55.5t42 34.5l3 19q5 28 8.5 55.5t7.5 55.5
q-9 -26 -21 -48.5t-28 -39.5t-37 -27t-49 -10q-38 0 -61 19t-34.5 49.5t-13.5 68.5t0.5 75.5t7.5 70.5t8 54l35 205q24 8 49.5 9.5t46.5 -0.5q25 -3 49 -9q-13 -38 -24 -82t-20 -89t-16 -90t-13 -85q-2 -12 -3.5 -36.5t-1 -49t6 -43t18.5 -18.5q24 0 41 21t31 54t26 73
t24 78q8 56 14 104.5t11 84.5q5 42 11 78q24 8 49.5 9.5t46.5 -0.5q25 -3 49 -9q-16 -44 -28 -102t-23 -123.5t-21 -135.5t-22 -137q8 5 14 9t10 7q4 4 8 7q14 14 25.5 37.5t21 52t19 60t18.5 60.5zM185 -164q-17 -36 -12.5 -52t14.5 -21q8 35 14 64.5t9 48.5
q-13 -16 -25 -40z" />
    <glyph glyph-name="z" unicode="z" horiz-adv-x="427" 
d="M448 190q-14 -41 -26 -86.5t-30 -83.5t-45.5 -64t-70.5 -27h-4h-1h1l-153 1q-54 0 -80 5t-32 17t3 31.5t24 49.5q5 11 21.5 41.5t38.5 71t48 86.5t50 89t43.5 78.5t30.5 54.5q-1 8 -12.5 12t-29.5 4.5t-39 -1.5t-39.5 -7.5t-32 -13.5t-16.5 -18q-2 -8 -7 -23t-11 -34
t-13 -41l-14 -44q-17 -51 -35 -111l-21 15l70 243q0 27 18 41t48.5 20.5t70.5 7.5t83 1t70 -5.5t41 -11.5q17 -8 24 -17q-41 -56 -81.5 -124t-77.5 -134.5t-67 -126.5t-49 -99q43 -4 79 -6q31 -2 60 -2.5t40 4.5q18 9 32.5 32.5t26 54.5t22 66.5t21.5 69.5l21 -16v0z" />
    <glyph glyph-name="Z" unicode="Z" horiz-adv-x="756" 
d="M479 792h13t12 -1q-11 1 -17.5 1h-7.5zM855 793q-4 -16 -11 -32q-6 -14 -15 -29.5t-22 -28.5q-43 -63 -85 -132.5t-82 -141.5h75l-18 -67h-94q-29 -52 -55 -102t-48.5 -95l-41.5 -83t-33 -67h290l-19 -73h-353v1q-59 1 -80.5 8t-20 22.5t19 42t37.5 67.5q6 12 20 39
t34.5 64.5t45 82.5t51.5 93h-51l17 67h71q24 43 47 84.5t43 78t36 65.5t27 48q-23 9 -42.5 18t-39.5 17t-41.5 14t-46.5 9q-6 1 -12.5 1h-13.5q-66 0 -116.5 -27t-87 -71.5t-59 -102t-32.5 -117.5t-8.5 -118t14.5 -104.5t36.5 -76.5t56.5 -34q-73 -21 -128 -10
q-24 5 -46.5 17t-39.5 35.5t-26.5 60t-7.5 89.5q1 19 8.5 63t26.5 98t51 112t82 106t119 78.5t163 30.5h15t14 -1l25.5 -3.5t64.5 -8t85.5 -8t88 -3.5t72.5 5.5t40 18.5z" />
    <glyph glyph-name="Y" unicode="Y" horiz-adv-x="841" 
d="M880 733q-5 -16 -13.5 -56t-19.5 -93t-22.5 -112.5t-22 -113.5t-18.5 -96t-11 -60l-6 -33q0 -1 -4.5 -30.5t-15.5 -73t-30 -94t-48.5 -94t-71 -72.5t-97.5 -29t-88 14t-46 34.5t-12.5 44.5t12.5 43t28.5 29.5t36.5 5.5q-12 -34 -13 -60q-1 -23 10 -41t45 -18q33 0 59 29
t45 74t32.5 100.5t22.5 108.5q2 17 5 34t6 33q4 25 12 72t18 104q-19 -38 -44 -75t-54.5 -66.5t-62.5 -48t-68 -18.5q-39 0 -61.5 19t-34 49.5t-13.5 68t0.5 75t7.5 71t9 54.5q5 31 10 60.5t9 55.5q2 14 9 50t16 83q-57 -10 -100.5 -42.5t-74.5 -78.5t-49.5 -102t-26 -113
t-4 -111.5t17 -97.5t36 -70.5t53.5 -31.5q-73 -21 -128 -10q-24 5 -46.5 17t-39.5 35.5t-26.5 60t-7.5 89.5q1 19 8.5 63t26.5 98t51 112t82 106t119 78.5t163 30.5h46.5t41.5 -3h2q-8 -36 -15.5 -70t-13.5 -62.5t-10 -48.5t-6 -29q-12 -54 -21 -108t-16 -102
q-2 -12 -3.5 -36.5t-1 -49t6 -43t18.5 -18.5q20 0 47 22t56 61.5t59.5 93.5t57.5 119q7 42 14 79.5t12 66.5q6 33 11 63q23 9 48 11t47 0q26 -2 50 -7z" />
    <glyph glyph-name="X" unicode="X" horiz-adv-x="847" 
d="M775 798q27 1 47 -4q17 -5 30 -18t10 -39q-1 -4 -19.5 -35.5t-50.5 -82t-76 -116t-96 -135.5q2 -13 4 -22t3 -14q11 -52 24 -101q22 -78 50 -133q12 -23 26 -43.5t30 -32.5t34 -14t37 12q-5 -21 -14 -39.5t-21.5 -31.5t-30 -19t-40.5 -2q-45 10 -79 46.5t-58 83.5t-40 96
t-25 84q-40 -50 -81 -97.5t-82.5 -89.5t-82.5 -77t-80 -60l-29 28q94 74 179 170t157 199q-5 18 -9 35t-9 33q-3 11 -9 37.5t-14.5 62t-18 76t-18.5 79.5t-17 72.5t-13 54.5q-56 -11 -99 -43.5t-73.5 -79t-49 -102t-26 -112.5t-4 -111.5t17 -97t36 -70t53.5 -31.5
q-73 -21 -128 -10q-24 5 -46.5 17t-39.5 35.5t-26.5 60t-7.5 89.5q1 19 8.5 63t26.5 98t51 112t82 106t119 78.5t163 30.5h46.5t41.5 -3q1 -11 7.5 -46t15.5 -82t20 -100.5t20 -101.5q35 56 64.5 108t51.5 96t37 78t21 55z" />
    <glyph glyph-name="W" unicode="W" horiz-adv-x="1140" 
d="M1209 798q17 1 30 -2q11 -3 20 -10t10 -22q0 -3 -11.5 -40.5t-32 -97t-48 -135t-59.5 -153t-67.5 -152t-71.5 -132.5t-70.5 -93.5t-65.5 -35.5q-38 0 -61 20q-24 17 -39.5 45t-24.5 62t-13 69.5t-5 67.5q-15 -55 -33 -103t-39.5 -84t-47 -56.5t-55.5 -20.5q-38 0 -61 20
q-22 15 -36.5 39.5t-23.5 54t-13.5 61.5t-6.5 62t-2.5 56t-0.5 44h1v117q0 11 1 37.5t2 62t2.5 76t3 79.5t2.5 72.5t2 54.5q-57 -11 -100 -43.5t-74 -78.5t-49.5 -102t-26 -113t-4 -111t17 -97t36 -70.5t53.5 -31.5q-73 -21 -128 -10q-24 5 -46.5 17t-39.5 35.5t-26.5 60
t-7.5 89.5q1 19 8 60t24.5 93t46.5 107.5t74.5 103.5t108.5 81.5t148 40.5q28 8 57.5 6.5t49.5 -5.5q6 0 11 -0.5t10 -1.5v-2q1 -1 2 -1h1q-2 -10 -4.5 -44.5t-5 -81t-5.5 -99.5t-5.5 -100.5t-4.5 -83t-2 -47.5q-2 -30 -3 -61t-1 -60q3 -59 9 -105q3 -20 6.5 -38.5t8.5 -33
t11 -23.5t14 -9q19 0 34.5 29.5t28 79t22.5 113.5t18 133t15 138t13 128t12 102.5t12 62.5q23 8 48 9.5t47 -0.5q26 -3 50 -9q-2 -10 -4.5 -44.5t-5 -81t-5.5 -99.5t-5.5 -100.5t-4 -83t-2.5 -47.5q-2 -30 -3 -61t-1 -60q3 -59 9 -105q3 -20 6.5 -38.5t8.5 -33t11 -23.5
t14 -9q19 0 42 30t48 80t51 115t50.5 135t47.5 139.5t41.5 129.5t32 104t19.5 63z" />
    <glyph glyph-name="V" unicode="V" horiz-adv-x="841" 
d="M891 798q17 1 30 -2q11 -3 20 -10t10 -22q0 -3 -11.5 -40.5t-32 -97t-48 -135t-59.5 -153t-67.5 -152t-71.5 -132.5t-70.5 -93.5t-65.5 -35.5q-38 0 -61 20q-22 15 -36.5 39.5t-23.5 54t-13.5 61.5t-6.5 62t-2.5 56t-0.5 44h1v117q0 11 1 37.5t2 62t2.5 76t3 79.5
t2.5 72.5t2 54.5q-57 -11 -100 -43.5t-74 -78.5t-49.5 -102t-26 -113t-4 -111t17 -97t36 -70.5t53.5 -31.5q-73 -21 -128 -10q-24 5 -46.5 17t-39.5 35.5t-26.5 60t-7.5 89.5q1 19 8 60t24.5 93t46.5 107.5t74.5 103.5t108.5 81.5t148 40.5q28 8 57.5 6.5t49.5 -5.5
q6 0 11 -0.5t10 -1.5v-2q1 -1 2 -1h1q-2 -10 -4.5 -44.5t-5 -81t-5.5 -99.5t-5.5 -100.5t-4.5 -83t-2 -47.5q-2 -30 -3 -61t-1 -60q3 -59 9 -105q3 -20 6.5 -38.5t8.5 -33t11 -23.5t14 -9q19 0 42 30t48 80t51 115t50.5 135t47.5 139.5t41.5 129.5t32 104t19.5 63z" />
    <glyph glyph-name="U" unicode="U" horiz-adv-x="876" 
d="M776 181q-11 -68 -9 -106.5t11.5 -57t24 -21t28 2t22.5 11l9 6.5q-10 -38 -27 -58t-34 -29q-20 -11 -43 -11q-41 -11 -70 8q-12 8 -23 24t-18 43t-8.5 66.5t5.5 95.5q2 14 3.5 28.5t3.5 28.5q-14 -41 -40 -92t-61 -95.5t-77 -75t-87 -30.5q-39 0 -61.5 19t-34 49.5
t-13.5 68.5t0.5 75.5t7.5 70.5t8 54h1q5 32 9.5 61.5t9.5 55.5l7 38.5t12 63.5t15 78t16 81t14.5 72.5t10.5 53.5q-56 -12 -98 -45.5t-72 -80t-48 -102t-25 -112t-3.5 -110t17 -96t36 -69.5t53.5 -31q-73 -21 -128 -10q-24 5 -46.5 17t-39.5 35.5t-26.5 60t-7.5 89.5
q1 19 8.5 63t26.5 98t51 112t82 106t119 78.5t163 30.5h46.5t41.5 -3l-2 -8q1 -1 2 -1q-4 -10 -12 -44.5t-18.5 -81t-21.5 -99.5t-21.5 -100.5t-18 -83t-9.5 -47.5q-12 -54 -21 -108t-16 -102q-2 -12 -3.5 -36.5t-1 -49t6 -43t18.5 -18.5q24 0 56.5 30t67.5 83t69.5 124.5
t62.5 154.5q10 57 21 113t20 105t16 88.5t10 63.5q28 10 63 11t82 -11q-15 -67 -30.5 -139t-30.5 -143.5t-28 -139.5t-23 -128z" />
    <glyph glyph-name="T" unicode="T" horiz-adv-x="486" 
d="M385 731q23 9 48 10t47 -1q26 -3 51 -9q-5 -15 -13 -51t-18 -83t-20 -99.5t-19.5 -100.5t-16.5 -86.5t-10 -56.5q-12 -64 -20.5 -123.5t-13.5 -107.5q-6 -55 -10 -105q-54 0 -81.5 5t-38 17t-9.5 32t4 50q1 9 5 32.5t9 56t11.5 71t13.5 77.5q3 19 8 49.5t11.5 67.5
t13.5 78t14 80q16 92 34 197zM479 793h13t12 -1q-11 1 -17.5 1h-7.5zM479 793l25.5 -3.5t64.5 -8t85.5 -8t88 -3.5t72.5 5.5t40 18.5q-11 -40 -30 -68q-8 -12 -19 -22.5t-24.5 -17.5t-30 -9t-36.5 3q-40 10 -70 23.5t-57.5 25.5t-55 22t-62.5 13q-6 1 -12.5 1h-13.5
q-66 0 -116.5 -27t-87 -71.5t-59 -102t-32.5 -117.5t-8.5 -118t14.5 -104.5t36.5 -76.5t56.5 -34q-73 -21 -128 -10q-24 5 -46.5 17t-39.5 35.5t-26.5 60t-7.5 89.5q1 19 8.5 63t26.5 98t51 112t82 106t119 78.5t163 30.5h15t14 -1z" />
    <glyph glyph-name="S" unicode="S" horiz-adv-x="513" 
d="M342 794q54 3 90.5 -10.5t57 -37.5t25.5 -56.5t-4 -67.5t-29 -49.5t-41 -19.5q-25 -5 -52 -1q30 49 38 82t3 53q-7 21 -28.5 37t-58.5 16q-24 0 -49.5 -6.5t-45.5 -19.5t-33 -32.5t-13 -45.5q0 -42 19.5 -74t49.5 -60t64 -56t64 -63t49.5 -80t19.5 -107q0 -72 -23 -125.5
t-63 -89.5t-95 -53.5t-119 -17.5q-56 0 -90.5 9.5t-52.5 24.5t-22.5 34.5t-0.5 40.5q9 48 56 109q-1 -4 -1 -8v-8q0 -22 7 -42t21 -35.5t35 -24.5t50 -9q30 0 62 10.5t59 30t44 48t17 64.5q0 49 -21.5 88.5t-53 74t-69 65.5t-69 63t-53 67t-21.5 77q0 45 21.5 83t58 65.5
t86.5 42.5t107 14h1h3v0z" />
    <glyph glyph-name="R" unicode="R" horiz-adv-x="724" 
d="M742 521q-10 -41 -25.5 -71t-34.5 -52t-40.5 -36t-43.5 -22q27 -13 47.5 -45t16.5 -94q0 -53 -1.5 -104t3.5 -91.5t20 -67t48 -30.5l-14 -5.5t-36 -8.5t-48 -1t-48 16t-36.5 43t-13.5 80q0 64 2.5 110.5t3 81t-2 59t-11.5 42.5q-29 -3 -50.5 -0.5t-29.5 4.5
q-5 -25 -8.5 -44.5t-5.5 -30.5q-12 -64 -20.5 -123.5t-13.5 -107.5q-6 -55 -10 -105q-54 0 -81.5 5t-38 17t-9.5 32t4 50q1 9 5 32.5t9 56t11.5 71t13.5 77.5q3 19 8 49.5t11.5 67.5t13.5 78t14 80q16 92 34 197q23 9 48 10t47 -1q26 -3 51 -9q-5 -16 -14 -54t-19 -87
t-20.5 -103.5t-19.5 -102.5q48 0 79 21.5t49 49t25.5 53.5t9.5 36q3 20 4.5 47t-3.5 55h-1q-8 33 -29 59q-9 11 -22.5 22t-31.5 19.5t-41 13.5t-53 5q-66 0 -116.5 -27t-87 -71.5t-59 -102t-32.5 -117.5t-8.5 -118t14.5 -104.5t36.5 -76.5t56.5 -34q-73 -21 -128 -10
q-24 5 -46.5 17t-39.5 35.5t-26.5 60t-7.5 89.5q1 19 8.5 63t26.5 98t51 112t82 106t119 78.5t163 30.5q91 0 147 -19.5t87 -42.5q36 -27 52 -62q6 -17 10 -39q3 -20 3.5 -47.5t-7.5 -62.5z" />
    <glyph glyph-name="Q" unicode="Q" horiz-adv-x="612" 
d="M580 312q-2 -8 -3 -14.5t-3 -14.5q-16 -63 -36.5 -112t-44.5 -87q-4 -6 -7.5 -11t-6.5 -10l-2 -2q0 -1 -1 -2q-17 -23 -35 -41t-35 -32q21 -25 39 -38t32 -20q16 -8 30 -10q-28 -21 -54 -30q-23 -8 -48 -6t-44 28q-12 15 -24 35q-2 -2 -5 -2.5t-6 -2.5
q-47 -19 -94.5 -21.5t-89.5 13t-75 49t-50.5 86t-16.5 124.5t27 164q31 111 69.5 187t78.5 125t79.5 75t72.5 38q2 5 31 8q15 3 27.5 4t21.5 1q11 0 19 -2l1 -1q60 -5 90 -33.5t38 -69.5q21 -21 34 -55q12 -31 14 -75t-1.5 -90t-10 -87.5t-11.5 -66.5v-1zM213 476
q-24 -83 -35.5 -159.5t-8.5 -138t20.5 -104t52.5 -58.5q6 -2 11.5 -3t10.5 -2q8 0 18 0.5t21 2.5q-10 22 -18.5 36t-18.5 16q11 11 26 14q13 2 30.5 -4.5t39.5 -32.5q19 15 39 38.5t39 59.5t35.5 85.5t30.5 115.5q23 140 19 219q-14 -14 -31 -19t-31 -6q-17 -1 -34 2
q20 33 30.5 58.5t14.5 44.5t2 32t-7 21q-12 19 -40 21q-12 0 -36.5 -2t-55.5 -23t-63.5 -70.5t-60.5 -143.5z" />
    <glyph glyph-name="P" unicode="P" horiz-adv-x="671" 
d="M736 670q6 -17 10 -39q3 -20 3.5 -47.5t-7.5 -62.5q-15 -58 -40 -95t-55 -59t-62 -31t-60 -11t-48.5 0t-28.5 4q-5 -25 -8.5 -44.5t-5.5 -30.5q-12 -64 -20.5 -123.5t-13.5 -107.5q-6 -55 -10 -105q-54 0 -81.5 5t-38 17t-9.5 32t4 50q1 9 5 32.5t9 56t11.5 71t13.5 77.5
q3 19 8 49.5t11.5 67.5t13.5 78t14 80q16 92 34 197q23 9 48 10t47 -1q26 -3 51 -9q-5 -16 -14 -54t-19 -87t-20.5 -103.5t-19.5 -102.5q48 0 79 21.5t49 49t25.5 53.5t9.5 36q3 20 4.5 47t-3.5 55h-1q-8 33 -29 59q-9 11 -22.5 22t-31.5 19.5t-41 13.5t-53 5
q-66 0 -116.5 -27t-87 -71.5t-59 -102t-32.5 -117.5t-8.5 -118t14.5 -104.5t36.5 -76.5t56.5 -34q-73 -21 -128 -10q-24 5 -46.5 17t-39.5 35.5t-26.5 60t-7.5 89.5q1 19 8.5 63t26.5 98t51 112t82 106t119 78.5t163 30.5q91 0 147 -19.5t87 -42.5q36 -27 52 -62z" />
    <glyph glyph-name="O" unicode="O" horiz-adv-x="612" 
d="M580 312q-2 -8 -3 -14.5t-3 -14.5q-16 -63 -36.5 -112t-44.5 -87q-4 -5 -7.5 -10.5t-6.5 -10.5l-2 -2q0 -1 -1 -2q-37 -49 -75.5 -77t-74.5 -42q-47 -19 -94.5 -21.5t-89.5 13t-75 49t-50.5 86t-16.5 124.5t27 164q31 111 69.5 187t78.5 125t79.5 75t72.5 38q2 5 31 8
q15 3 27.5 4t21.5 1q11 0 19 -2l1 -1q60 -5 90 -33.5t38 -69.5q21 -21 34 -55q12 -31 14 -75t-1.5 -90t-10 -87.5t-11.5 -66.5v-1zM213 476q-24 -83 -35.5 -159.5t-8.5 -138t20.5 -104t52.5 -58.5q6 -2 11.5 -3t10.5 -2q15 -1 34 2t41 14.5t44.5 34t44.5 59.5t42 91t36 130
q23 140 19 219q-14 -14 -31 -19t-31 -6q-17 -1 -34 2q20 33 30.5 58.5t14.5 44.5t2 32t-7 21q-12 19 -40 21q-12 0 -36.5 -2t-55.5 -23t-63.5 -70.5t-60.5 -143.5z" />
    <glyph glyph-name="N" unicode="N" horiz-adv-x="870" 
d="M771 181q-11 -68 -9 -106.5t12 -57t24.5 -21t27.5 2t22.5 11l9.5 6.5q-10 -38 -27.5 -58t-34.5 -29q-20 -11 -42 -11q-45 -3 -77 23q-14 11 -26 30t-20 48t-10 70t4 97q9 74 23.5 143t29.5 130t27 110.5t15 83.5t-6.5 51t-36.5 12q-20 -4 -41.5 -26t-43 -55.5t-42 -75.5
t-38.5 -85q-43 -101 -84 -228q-11 -63 -19 -121.5t-13 -104.5q-6 -54 -10 -102q-54 0 -81.5 5t-38 17t-9.5 32t4 50q1 9 4.5 32.5t9 56t12 71t12.5 77.5q4 22 11 62t15.5 88t18 100.5t18 101t15 87.5t10.5 61q-55 -12 -97.5 -45t-72 -79.5t-47.5 -102t-25 -112t-3.5 -110
t17 -96t36 -69.5t53.5 -31q-73 -21 -128 -10q-24 5 -46.5 17t-39.5 35.5t-26.5 60t-7.5 89.5q1 19 8.5 63t26.5 98t51 112t82 106t119 78.5t163 30.5h46.5t41.5 -3l-1 -6l-9 -34q-9 -42 -23.5 -110.5t-28.5 -142.5q21 53 48 106t59.5 95.5t70 68.5t80.5 25q51 -2 77 -29
t33.5 -72t1 -105t-19 -127.5t-28.5 -139t-27 -139.5z" />
    <glyph glyph-name="M" unicode="M" horiz-adv-x="1160" 
d="M1069 181q-11 -68 -9 -106.5t11.5 -57t24 -21t28 2t22.5 11l9 6.5q-10 -38 -27 -58t-34 -29q-20 -11 -43 -11q-45 -3 -77 23q-14 11 -26 30t-20 48t-10 70t5 97q8 74 23 143t29.5 130t26.5 110.5t15 83.5t-6 51t-36 12q-21 -4 -44 -28t-45 -60t-43.5 -80.5t-39.5 -89.5
q-13 -68 -28.5 -138.5t-25.5 -138.5q-13 -82 -17.5 -130.5t-5.5 -74.5q-1 -31 3 -43q-51 -21 -86 -11q-15 4 -28.5 15t-22 32t-10 53.5t6.5 80.5q12 73 29.5 148.5t34 145t29 130t15.5 104.5t-6 67t-36 18q-26 -5 -53.5 -38t-53.5 -81t-50 -104.5t-43 -106.5
q-9 -46 -15.5 -80.5t-9.5 -51.5q-12 -64 -20.5 -123.5t-13.5 -107.5q-6 -55 -10 -105q-54 0 -81.5 5t-38 17t-9.5 32t4 50q1 9 4.5 32.5t9 56t12 71t12.5 77.5q4 22 11 62t15.5 88t18 100.5t18 101t15 87.5t10.5 61q-55 -12 -97.5 -45t-72 -79.5t-47.5 -102t-25 -112
t-3.5 -110t17 -96t36 -69.5t53.5 -31q-73 -21 -128 -10q-24 5 -46.5 17t-39.5 35.5t-26.5 60t-7.5 89.5q1 19 8.5 63t26.5 98t51 112t82 106t119 78.5t163 30.5h46.5t41.5 -3l-1 -6l-9 -34q-6 -28 -14.5 -70t-18.5 -91q20 41 44 78t51 65.5t57.5 44.5t64.5 15q36 -1 59 -15
t35.5 -38t16.5 -57.5t1 -73.5q20 38 43.5 71.5t49.5 59t54.5 40t60.5 13.5q51 -2 77 -29t33.5 -72t1 -105t-19 -127.5t-28.5 -139t-27 -139.5z" />
    <glyph glyph-name="L" unicode="L" horiz-adv-x="738" 
d="M713 -8l-19 -73h-4h-304v-1q-12 0 -23 0.5t-20 0.5h-2h-4v1q-35 2 -52 8.5t-23.5 18.5t-5 30.5t4.5 44.5q1 9 4.5 32.5t9 56t12 71t12.5 77.5q4 22 11 62t15.5 88t18 100.5t18 101t15 87.5t10.5 61q-55 -12 -97.5 -45t-72 -79.5t-47.5 -102t-25 -112t-3.5 -110t17 -96
t36 -69.5t53.5 -31q-73 -21 -128 -10q-24 5 -46.5 17t-39.5 35.5t-26.5 60t-7.5 89.5q1 19 8.5 63t26.5 98t51 112t82 106t119 78.5t163 30.5h46.5t41.5 -3l-10 -40q-7 -29 -16 -72.5t-18.5 -93.5t-20 -102t-19 -97.5t-15 -80.5t-9.5 -51q-14 -75 -23 -144.5t-14 -117.5h316
h4z" />
    <glyph glyph-name="K" unicode="K" horiz-adv-x="694" 
d="M642 201q0 -53 -1.5 -104t3.5 -91.5t20 -67t48 -30.5l-14 -5.5t-36 -8.5t-47.5 -1t-47.5 16t-36.5 43t-14.5 80q1 73 3.5 124.5t2.5 87.5t-5.5 59.5t-21.5 42.5q-16 -6 -28.5 -9t-22.5 -5q-11 -54 -14 -78q-12 -64 -20.5 -123.5t-13.5 -107.5q-6 -55 -10 -105
q-54 0 -81.5 5t-38 17t-9.5 32t4 50q1 9 4.5 32.5t9 56t12 71t12.5 77.5q4 22 11 62t15.5 88t18 100.5t18 101t15 87.5t10.5 61q-55 -12 -97.5 -45t-72 -79.5t-47.5 -102t-25 -112t-3.5 -110t17 -96t36 -69.5t53.5 -31q-73 -21 -128 -10q-24 5 -46.5 17t-39.5 35.5t-26.5 60
t-7.5 89.5q1 19 8.5 63t26.5 98t51 112t82 106t119 78.5t163 30.5h46.5t41.5 -3l-10 -40q-6 -29 -15 -72t-19 -92.5t-20 -101.5t-19 -97q34 10 64.5 32t56 51t47 63.5t38.5 68.5q40 80 67 176l85 -29q-31 -98 -69.5 -166.5t-79 -115t-79.5 -74t-71 -41.5q16 0 39.5 -4.5
t44 -20.5t34 -46t10.5 -81z" />
    <glyph glyph-name="J" unicode="J" horiz-adv-x="478" 
d="M528 751q-7 -29 -16 -72.5t-18.5 -93.5t-20 -102t-19 -97.5t-15 -80.5t-9.5 -51l-6 -33l-4.5 -29.5t-15.5 -73t-30 -94t-48.5 -94t-71 -72.5t-97.5 -29t-88 14t-46 34.5t-13 44t12 42.5t28.5 30t36.5 6q-11 -34 -12 -60q-1 -23 9.5 -41t44.5 -18t59.5 28.5t45 73.5
t33 100.5t22.5 108.5q2 17 5 34.5t5 32.5q4 22 11 62t15.5 88t18 101t18 101t15 87.5t10.5 61.5q-55 -12 -97.5 -45.5t-72 -80t-47.5 -102t-25 -112t-3.5 -110t17 -96t36 -69.5t53.5 -31q-73 -21 -128 -10q-24 5 -46.5 17.5t-39.5 36t-26.5 60t-7.5 89.5q1 19 8.5 62.5
t26.5 98t51 112t82 105.5t119 78.5t163 30.5h46.5t41.5 -3l-1 -6z" />
    <glyph glyph-name="I" unicode="I" horiz-adv-x="478" 
d="M528 751q-7 -29 -16 -72.5t-18.5 -93.5t-20 -102t-19 -97.5t-15 -80.5t-9.5 -51q-12 -63 -20.5 -123t-13.5 -108q-6 -55 -10 -104q-54 0 -81.5 5t-38 17t-9.5 31.5t4 49.5q1 9 4.5 33t9 56.5t12 70.5t12.5 77q4 22 11 62t15.5 88t18 101t18 101t15 87.5t10.5 61.5
q-55 -12 -97.5 -45.5t-72 -80t-47.5 -102t-25 -112t-3.5 -110t17 -96t36 -69.5t53.5 -31q-73 -21 -128 -10q-24 5 -46.5 17.5t-39.5 36t-26.5 60t-7.5 89.5q1 19 8.5 62.5t26.5 98t51 112t82 105.5t119 78.5t163 30.5h46.5t41.5 -3z" />
    <glyph glyph-name="H" unicode="H" horiz-adv-x="812" 
d="M718 181q-11 -68 -9 -106.5t11.5 -57t24 -21t28 2t22.5 11l9 6.5q-10 -38 -27 -58.5t-34 -28.5q-20 -11 -43 -10q-41 -11 -70 8q-12 8 -23 24t-18 43t-8.5 66.5t5.5 95.5q4 35 9.5 73t12.5 79h-168q-4 -18 -6 -32t-4 -22q-12 -63 -20.5 -123t-13.5 -108q-6 -55 -10 -104
q-54 0 -81.5 5t-38 17t-9.5 31.5t4 49.5q1 9 4.5 33t9 56.5t12 70.5t12.5 77q3 17 9 49h-101l10 44h99q9 50 19.5 110.5t20.5 118t18.5 105.5t12.5 74q-55 -12 -97.5 -45.5t-72 -80t-47.5 -102t-25 -112t-3.5 -110t17 -96t36 -69.5t53.5 -31q-73 -21 -128 -10
q-24 5 -46.5 17.5t-39.5 36t-26.5 60t-7.5 89.5q1 19 8.5 62.5t26.5 98t51 112t82 105.5t119 78.5t163 30.5h46.5t41.5 -3l-10 -40q-7 -32 -17 -80.5t-21.5 -104t-22 -112t-19.5 -102.5h168q10 58 21 115.5t20.5 108t17 91t10.5 64.5q28 10 63 11t82 -11q-15 -67 -31 -139
t-31 -143t-28 -139.5t-22 -128.5z" />
    <glyph glyph-name="G" unicode="G" horiz-adv-x="495" 
d="M461 285q-2 -15 -8.5 -48t-19.5 -73.5t-33 -83.5t-49 -78.5t-67.5 -58.5t-88.5 -23q-56 0 -88 14t-46 34.5t-13 44t12 42.5t28.5 30t36.5 6q-11 -34 -12 -60q-1 -23 9.5 -41t44.5 -18q21 0 38.5 12t32.5 32t27.5 47.5t22.5 59.5q-27 -9 -50 -12t-40 -3q-48 -4 -91.5 13.5
t-71.5 58.5t-34 107t20 159q25 90 57 150.5t66 98.5t67.5 57.5t60.5 27.5q4 2 11 2q14 3 26 4t20 1q10 0 17 -1v-1q34 -3 55.5 -16t33 -32.5t13 -44t-4.5 -49.5q-7 -27 -22.5 -38.5t-31.5 -15.5q-19 -4 -41 -1q16 26 24.5 46t11.5 34.5t1.5 24.5t-5.5 16q-10 15 -32 17
q-9 0 -28.5 -1.5t-43.5 -18t-49.5 -55t-46.5 -111.5q-18 -63 -27.5 -121.5t-8 -105.5t14.5 -80.5t38 -48.5q31 -8 58 -7.5t51 7.5q6 26 11 51.5t10 49.5h-77l4 45h212l-3 -34z" />
    <glyph glyph-name="F" unicode="F" horiz-adv-x="671" 
d="M531 731q-25 6 -51 9q-22 2 -47 1t-48 -10q-18 -105 -34 -197q-7 -39 -14 -80t-13.5 -77.5t-11.5 -67.5t-8 -50q-7 -39 -13.5 -77t-11.5 -70.5t-9 -56.5t-5 -33q-3 -30 -4 -49.5t9.5 -31.5t38 -17t81.5 -5q4 49 10 104q5 48 13.5 108t20.5 123q2 9 4 23t6 31h191l18 67
h-197q9 49 20 104.5t21.5 106.5t19 90t14.5 55zM479 794q1 0 7.5 -0.5t17.5 -1.5q-6 1 -12 1t-13 1zM479 794h-29q-94 0 -163 -30.5t-119 -78.5t-82 -105.5t-51 -112t-26.5 -98t-8.5 -62.5q-2 -53 7.5 -89.5t26.5 -60t39.5 -36t46.5 -17.5q55 -11 128 10q-33 4 -56.5 34
t-36.5 76.5t-14.5 104.5t8.5 118t32.5 117.5t59 102t87 71.5t116.5 27h13.5t12.5 -1q35 -3 62.5 -13t55 -22t57.5 -25.5t70 -23.5q20 -5 36.5 -3t30 9t24.5 17.5t19 22.5q19 28 30 68q-9 -13 -40 -18.5t-72.5 -5.5t-88 3.5t-85.5 8t-64.5 8.5z" />
    <glyph glyph-name="E" unicode="E" horiz-adv-x="741" 
d="M434 254q2 9 4 23t6 31h191l18 67h-197q9 49 20 104.5t21.5 106.5t19 90t14.5 55q-25 6 -51 9q-22 2 -47 1t-48 -10q-18 -105 -34 -197q-7 -39 -14 -80t-13.5 -77.5t-11.5 -67.5t-8 -50q-7 -39 -13.5 -77t-11.5 -70.5t-9 -56.5t-5 -33q-3 -26 -4.5 -44t4.5 -30t22 -18.5
t49 -9.5h11q9 -1 20 -1h23v1h299l19 72h-311q5 48 14 117.5t23 144.5zM479 794q1 0 7.5 -0.5t17.5 -1.5q-6 1 -12 1t-13 1zM479 794h-29q-94 0 -163 -30.5t-119 -78.5t-82 -105.5t-51 -112t-26.5 -98t-8.5 -62.5q-2 -53 7.5 -89.5t26.5 -60t39.5 -36t46.5 -17.5
q55 -11 128 10q-33 4 -56.5 34t-36.5 76.5t-14.5 104.5t8.5 118t32.5 117.5t59 102t87 71.5t116.5 27h13.5t12.5 -1q35 -3 62.5 -13t55 -22t57.5 -25.5t70 -23.5q20 -5 36.5 -3t30 9t24.5 17.5t19 22.5q19 28 30 68q-9 -13 -40 -18.5t-72.5 -5.5t-88 3.5t-85.5 8t-64.5 8.5z
" />
    <glyph glyph-name="D" unicode="D" horiz-adv-x="768" 
d="M736 670q14 -39 21 -87q6 -42 5.5 -99t-14.5 -127q-11 -52 -30 -107t-44 -105.5t-56.5 -93.5t-67 -70.5t-75.5 -36t-82 8.5q-1 -8 -1.5 -14t-0.5 -11q-1 -5 -1 -9q-54 0 -81.5 5t-38 17t-9.5 31.5t4 49.5q1 9 5 33t9 56.5t11.5 70.5t13.5 77q3 19 8 50t11.5 67.5
t13.5 77.5t14 80q16 92 34 197q23 9 48 10t47 -1q26 -3 51 -9q-5 -15 -13 -51t-18 -83t-20 -99.5t-19.5 -100.5t-16.5 -86.5t-10 -56.5q-14 -80 -23.5 -153.5t-14.5 -121.5q25 -3 50 15q22 16 46.5 42.5t47.5 64.5t42.5 87t31.5 110q16 76 19.5 138.5t1.5 107.5t-7 71.5
t-6 31.5l-1 -1q-8 33 -29 59q-9 11 -22.5 22t-31.5 19.5t-41 13.5t-53 5q-66 0 -116.5 -27t-87 -71.5t-59 -102t-32.5 -117.5t-8.5 -118t14.5 -104.5t36.5 -76.5t56.5 -34q-73 -21 -128 -10q-24 5 -46.5 17.5t-39.5 36t-26.5 60t-7.5 89.5q1 19 8.5 62.5t26.5 98t51 112
t82 105.5t119 78.5t163 30.5q91 0 147 -19.5t87 -42.5q36 -27 52 -62z" />
    <glyph glyph-name="C" unicode="C" horiz-adv-x="568" 
d="M551 604q-9 -34 -29 -49t-40 -20q-24 -5 -52 -1q20 34 30.5 59.5t14.5 44t2 31.5t-7 21q-12 19 -40 21q-12 0 -40 -2t-62.5 -23t-70.5 -70t-63 -143t-35 -177t4 -146t42.5 -101.5t80.5 -42.5q54 -5 100 5.5t81 24.5q40 17 74 40q-49 -67 -116 -106.5t-135.5 -50
t-131.5 10t-104 73.5t-52 139.5t24 209.5q31 111 69.5 187t79 125t80.5 75t73 37q2 2 8.5 4t20.5 4q16 3 29 4t22 1q11 0 19 -2l1 -1q43 -3 70.5 -20t42 -42t16.5 -56.5t-6 -63.5z" />
    <glyph glyph-name="B" unicode="B" horiz-adv-x="732" 
d="M742 521q-19 -75 -54.5 -115.5t-75.5 -59.5q25 -12 45 -38q18 -23 21.5 -58.5t1.5 -70.5q-3 -40 -12 -84l-2 -2q-24 -69 -61 -101.5t-76.5 -43t-76.5 -5.5t-59 12q-1 -9 -1.5 -15.5t-0.5 -11.5q-1 -5 -1 -9q-54 0 -81.5 5t-38 17t-9.5 31.5t4 49.5q1 9 5 33t9 56.5
t11.5 70.5t13.5 77q3 19 8 50t11.5 67.5t13.5 77.5t14 80q16 92 34 197q23 9 48 10t47 -1q26 -3 51 -9q-5 -15 -14 -53t-19 -87.5t-20.5 -104t-19.5 -102.5q48 0 79 21.5t49 49t25.5 53.5t9.5 36q3 20 4.5 47t-3.5 56l-1 -1q-8 33 -29 59q-9 11 -22.5 22t-31.5 19.5
t-41 13.5t-53 5q-66 0 -116.5 -27t-87 -71.5t-59 -102t-32.5 -117.5t-8.5 -118t14.5 -104.5t36.5 -76.5t56.5 -34q-73 -21 -128 -10q-24 5 -46.5 17.5t-39.5 36t-26.5 60t-7.5 89.5q1 19 8.5 62.5t26.5 98t51 112t82 105.5t119 78.5t163 30.5q91 0 147 -19.5t87 -42.5
q36 -27 52 -62q6 -17 10 -39q3 -20 3.5 -47.5t-7.5 -62.5zM396 -15q19 -5 36 -3.5t31 8.5t25 17.5t20 22.5q20 27 33 67h2q4 15 7 31.5t7 34.5q7 45 -1 75t-24 48.5t-35 27.5t-33 13q-5 1 -9.5 1.5t-6.5 0.5q-5 -25 -8.5 -44.5t-5.5 -30.5q-14 -78 -23.5 -149.5
t-14.5 -119.5z" />
    <glyph glyph-name="A" unicode="A" 
d="M707 331q-30 -108 -38.5 -184.5t-3.5 -127t21.5 -77.5t37.5 -36q-54 -16 -95 -9q-18 3 -35 11t-30 23.5t-20.5 40.5t-6.5 62q2 55 14 126.5t29 146.5h-133q-20 -51 -39 -103.5t-39 -104t-43 -100t-51 -91.5l-96 77q54 68 103 152.5t95 169.5h-119l7 44h136q42 76 79 140
t70 102q18 21 36.5 37t35.5 28q-5 12 -9.5 21t-8.5 15q-4 7 -9 11q-18 23 -53.5 42.5t-96.5 19.5q-66 0 -116.5 -27t-87 -71.5t-59 -102t-32.5 -117.5t-8.5 -118t14.5 -104.5t36.5 -76.5t56.5 -34q-73 -21 -128 -10q-24 5 -46.5 17.5t-39.5 36t-26.5 60t-7.5 89.5
q1 19 8.5 62.5t26.5 98t51 112t82 105.5t119 78.5t163 30.5q100 0 158.5 -23t88.5 -51q35 -33 46 -74q4 -10 6.5 -31t0.5 -58.5t-12 -93t-32 -134.5zM582 558q-37 -42 -65 -95t-53 -112h125v3q6 26 11.5 52t10.5 51q11 35 16 64t6 54q0 2 0.5 4.5t0.5 4.5l-1 -2v18
q-27 -15 -51 -42z" />
    <glyph glyph-name="braceright" unicode="}" horiz-adv-x="344" 
d="M-53 -35q18 0 35.5 -2.5t34.5 -6.5q15 36 31 84.5t37.5 95t50.5 85t68 55.5q-17 10 -26.5 26t-13 34.5t-3.5 39t3 39.5q5 42 13.5 83.5t13.5 84.5l-33 1q-21 0 -41 -2.5t-40 -12.5q-8 9 -14 21t-4 26q2 16 13 25.5t25 15t30 7t28 1.5q72 0 106 -36t23 -117
q-4 -31 -9 -61.5t-11 -60.5q-6 -23 -3 -41q0 -6 1.5 -15.5t4.5 -19t7.5 -17t10.5 -9.5l33 -12l-39 -10q-8 -3 -16 -10.5t-16 -16.5t-14.5 -18.5t-10.5 -16.5q-7 -10 -12 -19.5t-9 -20.5q-12 -29 -21.5 -61.5t-24.5 -61.5q-12 -24 -30.5 -51t-41.5 -49.5t-49.5 -37
t-56.5 -13.5q-1 0 -2 -1l1 1q-26 2 -46.5 1t-47.5 -14q-7 9 -11.5 20.5t-2.5 22.5q2 13 10.5 22t20.5 14t25 7t23 2z" />
    <glyph glyph-name="dollar" unicode="$" horiz-adv-x="415" 
d="M289 642q58 -6 79 -42t10 -82q-7 -25 -21 -35.5t-29 -14.5q-18 -4 -38 -1q21 36 27 60t2 39q-4 11 -13.5 20.5t-25.5 14.5l-42 -199q19 -17 38.5 -35.5t35.5 -41t25.5 -50.5t9.5 -64q0 -49 -14.5 -86.5t-40.5 -63t-61.5 -40t-77.5 -17.5l-8 -40h-60l9 41q-31 3 -49 11.5
t-26.5 20t-9.5 25t2 27.5q8 33 39 72q-1 -4 -1 -12q0 -26 15 -48t45 -29l60 263q-21 18 -41 36t-36.5 37.5t-26.5 40.5t-10 45q0 31 14 58t39 46.5t58.5 31.5t72.5 13l13 58h50zM154 528q0 -26 11 -47t28 -39l36 159q-29 -6 -52 -24t-23 -49zM262 180q0 33 -13.5 60
t-34.5 51l-46 -216q36 10 65 36.5t29 68.5z" />
    <glyph glyph-name="circumflex" unicode="&#x2c6;" horiz-adv-x="169" 
d="M132 703v-18q0 -8 1 -19.5t3.5 -23t7 -21.5t12.5 -14q-6 -8 -15 -14.5t-20 -6.5q-10 0 -16 8t-9.5 19t-4.5 22.5t-1 19.5v14q-6 -7 -14.5 -17.5t-16 -22.5t-13 -24t-5.5 -21v-4q-18 0 -33 2t-15 14q0 10 11.5 30t28.5 40.5t36 38t34 23.5z" />
    <glyph glyph-name="acute" unicode="&#xb4;" horiz-adv-x="178" 
d="M2 619l9.5 11t25 29.5t35.5 44.5t41 57q9 -1 18 -5q8 -4 15.5 -13.5t14.5 -26.5l-97 -162q-15 0 -26.5 10t-19.5 22q-10 14 -16 33z" />
    <glyph glyph-name="cedilla" unicode="&#xb8;" horiz-adv-x="125" 
d="M68 28l-30 -38q20 -7 31 -18q10 -10 14 -26t-10 -42t-42.5 -34.5t-56.5 -8.5q-33 0 -71 9l22 38q31 -6 57 -5q22 0 42 6.5t25 25.5q5 18 -2.5 26.5t-18.5 10.5q-12 3 -30 1l38 63z" />
    <glyph glyph-name="dieresis" unicode="&#xa8;" horiz-adv-x="210" 
d="M45 688q18 0 31 -13t13 -31t-13 -31t-31 -13t-31 13t-13 31t13 31t31 13zM151 688q18 0 31 -13t13 -31t-13 -31t-31 -13t-31 13t-13 31t13 31t31 13z" />
    <glyph glyph-name="tilde" unicode="&#x2dc;" horiz-adv-x="190" 
d="M-2 636q-2 14 2 25q3 9 11 15.5t25 1.5q16 -5 35 -9.5t37.5 -7t34.5 -1t28 9.5q0 -1 1 -9t-3 -16.5t-15.5 -14t-36.5 -2.5t-44.5 8t-34 7.5t-24.5 1.5t-16 -9z" />
    <glyph glyph-name="ampersand" unicode="&#x26;" horiz-adv-x="528" 
d="M516 205q6 -36 -17 -58.5t-63 -15.5q21 -28 18 -70.5t-51 -91.5q-26 -26 -63.5 -44.5t-79.5 -27t-84 -7t-77.5 16t-61 41t-32.5 68.5q-10 54 1 99t34.5 81t56 63t65.5 44q-18 6 -37 21.5t-26 53.5q-5 32 5 66.5t31 65t51 54.5t66 36t74.5 14t68 -11.5t43.5 -45t-1 -84.5
q-8 -27 -18.5 -44.5t-22.5 -28t-25 -16t-26 -6.5q-30 -4 -62 10q25 14 44 32q17 15 31 36.5t15 48.5t-20 37t-51 4t-62 -29t-54 -63q-11 -20 -13 -36t1.5 -28t12 -21.5t19.5 -15.5q25 -16 63 -22l-1 -1q17 -2 30.5 -9t21.5 -14q10 -9 16 -18q-23 9 -50 4q-23 -5 -55.5 -23.5
t-69.5 -64.5t-42 -86.5t7 -72t34 -51.5t40 -23t41.5 -3t48 8t47 25.5t36.5 49.5q18 42 14 66.5t-12 35.5q-24 8 -43.5 6t-33.5 -9q-17 -8 -29 -20q-9 22 -5.5 42.5t18.5 32.5t40.5 13.5t58.5 -14.5q33 -15 58 -17.5t42.5 1.5t26 9.5t8.5 6.5z" />
    <glyph glyph-name="zero" unicode="0" horiz-adv-x="490" 
d="M245 45q30 -8 51.5 -10.5t35.5 -1t21.5 5.5t10.5 10q5 -15 3 -26q-2 -10 -10 -18.5t-28 -7.5q-16 1 -36 4t-41 8v-37q32 -13 64 -24.5t57 -30.5q29 -22 33.5 -39.5t-1.5 -30.5q-8 -15 -27 -26q9 18 0 35.5t-28 34t-45.5 32t-52.5 29.5v-33l-12 2v37v1q-21 11 -39 21.5
t-29 20.5q-12 9 -18 20q-8 -3 -10 -5l-3 -3q-7 -5 -12.5 -15t-5.5 -27q0 -24 13 -41.5t33 -27.5t43.5 -13.5t43.5 -1.5t34 9.5t16 19.5q7 -20 3 -36q-3 -14 -15.5 -24.5t-41.5 -8.5q-8 0 -30.5 5t-46 19t-42 38.5t-18.5 63.5q0 28 6.5 44.5t14.5 24.5q9 10 21 13q5 2 24.5 2
t63.5 -12zM175 24h-5q5 -8 12 -14q12 -11 26.5 -18.5t31.5 -14.5v34l-1 1q-8 2 -15 3t-14 3q-20 6 -33 6h-2zM367 527q-3 36 7.5 51t24.5 18q16 4 37 -3q-19 -5 -26.5 -22t-7.5 -42t5.5 -54t11.5 -58t11.5 -54.5t5.5 -42.5q0 -14 -3 -25t-8 -19q-10 -19 -30 -28.5t-44.5 -13
t-50.5 -2t-47 5.5q-13 2 -24 3.5t-17 3.5q0 -6 -2 -14l-4 -13l73 -20h3l7 -2h-1q7 -3 18.5 -8t22.5 -14t18.5 -21.5t7.5 -28.5q2 -11 0 -18.5t-3 -10.5q16 -3 30.5 -4.5t25.5 -3.5q13 -2 25 -2q0 -15 -1.5 -23t-4.5 -11t-8.5 -2.5t-14.5 1.5q-5 1 -24.5 4t-41.5 7
q-11 2 -33 5.5t-44 7.5q-26 4 -55 10q-3 6 -3.5 13t0.5 13q1 7 3 14q-6 8 -7 12q-8 27 7.5 41t46.5 10q4 -1 14 -3q18 -4 31.5 -9t23.5 -10q-9 8 -21.5 15t-31.5 14h1q-9 2 -24 6l-30 8t-28 7t-18 5q-6 2 -7 6.5t2.5 7.5t11.5 4t20 -5l2 -2q1 2 2 6q2 8 2 23v9q0 7 2 13
q1 3 1 5q20 -7 44.5 -12t46.5 -8q16 -2 37.5 -2t41 5t33 17t13.5 35q0 24 -8 49t-17.5 51.5t-18.5 52.5t-11 52zM293 144q-9 2 -23 5t-27 3.5t-22.5 -2t-9.5 -11.5q0 -14 11 -19q4 -1 8 -1.5t9 -1.5q13 -3 28.5 -6t29.5 -6t25.5 -5t16.5 -3h1q0 1 1 3t1 3t1 3q1 10 -6.5 17
t-17 11.5t-18 7zM177 344q8 -2 13.5 -7.5t5.5 -12.5q0 -8 -5.5 -12t-13.5 -2q-8 1 -14 6.5t-6 12.5q0 8 6 12t14 3zM185 734q-7 20 -3 36q3 14 15 24.5t42 8.5q8 0 28.5 -4.5t43 -16.5t41 -33t23.5 -54q1 -22 -5 -39q-5 -14 -17.5 -26t-37.5 -12q17 -6 30.5 -15t13.5 -26
q0 -19 -15.5 -25t-33.5 -6q16 -8 25.5 -17.5t14.5 -19.5t6.5 -18.5t1.5 -14.5q2 -17 -8 -31t-33 -16q17 -5 29 -14t12 -26q0 -18 -13.5 -24t-31.5 -7q18 -5 31.5 -14t13.5 -27q0 -16 -12.5 -22.5t-33.5 -7t-48.5 4t-57.5 9.5q-2 6 -2.5 13t0.5 13l2 14q22 -7 48 -12t49 -8
q3 0 10 -0.5t14 -0.5t12 1.5t5 4.5q0 13 -20 20t-41 14q-5 0 -9 1t-8 1q-9 2 -18 3t-17 3q-2 0 -4 0.5t-5 0.5v1q-31 6 -63.5 15t-58.5 23q-1 -5 -1.5 -10t-0.5 -10q0 -24 8 -49t18 -51.5t19 -53t11 -51.5q2 -37 -8 -51.5t-24 -18.5q-16 -4 -38 3q19 5 26.5 22.5t8 42.5
t-5 54t-11.5 58t-11.5 54.5t-5.5 42.5q0 7 0.5 13.5t1.5 11.5q-15 11 -24 23t-9 27q0 20 8 31.5t21 14.5t28 -1t30 -14q24 -17 31.5 -37.5t7.5 -35.5q-12 14 -30 17t-32 -6q15 -6 31 -10.5t29 -7.5q7 -1 15.5 -3t17.5 -4q12 -2 22 -4t12 -3q14 -3 28 -5t27 -4h1q11 -2 21 -2
q8 0 15 1t7 6q0 7 -6 12t-15 8.5t-20 7t-21 6.5q-2 0 -2.5 0.5t-2.5 0.5q-44 13 -60 30t-20 30q-1 1 -1 3q-1 4 -1 11v4q2 17 12 22t22 2q2 -1 4 -1l1 -1q17 -9 27 -19t16 -19.5t8 -18t2 -12.5q20 -2 34 0.5t19 11.5q4 17 -1 29.5t-14.5 21t-20.5 13.5t-17 7q-8 0 -14 2
q-3 1 -5 1q-38 8 -57 28t-11 45q2 6 7 9h-1q-2 7 -2.5 14t0.5 13l2 14q18 -6 39.5 -10.5t41.5 -7.5h1l2 -1q2 0 5 -0.5t6 -0.5q8 -1 20 -1t22.5 4t17.5 13t5 26q-2 21 -16 35.5t-33.5 22.5t-42 10.5t-42 -0.5t-33 -10.5t-14.5 -18.5zM254 472q6 -2 11.5 -3t10.5 -3
q-5 15 -13.5 25.5t-17.5 17t-16 9.5l-7 3q-8 1 -11 -4q-1 -3 -1 -5t0.5 -7t4 -10.5t12.5 -11.5t27 -11zM63 476q0 -10 10 -18.5t25 -15.5q11 15 27 18.5t34 -3.5q-11 15 -27.5 25t-31.5 13t-26 -1.5t-11 -17.5zM266 623q-13 2 -25 3.5t-21 3.5q-4 -2 -6.5 -4.5t-2.5 -9.5
q0 -10 12 -16.5t28 -10.5t30.5 -6t20.5 -2q1 0 8 -1t15 -1t14 1.5t6 5.5q0 7 -6.5 12t-16.5 9t-22 7.5t-22 6.5q-8 2 -12 2zM171 539q0 -13 -3.5 -16t-8.5 -2t-12 6h2q5 0 8.5 3t3.5 9q0 7 -4.5 14t-12.5 7t-14 -5t-11.5 -11t-10.5 -11t-12 -5q-11 0 -17.5 8.5t-5.5 21.5
q-1 12 5 16.5t14 2.5q6 -1 8 -7q1 -3 0 -6q-10 6 -15 4q-6 -2 -6 -10q0 -5 3 -10t8 -5q7 0 12 4.5t9.5 10t11 10t16.5 4.5q17 0 24.5 -9.5t7.5 -23.5zM169 595q1 -10 -7 -16t-25 -1t-23.5 12t-8.5 12v1q-1 1 -1 4v2q1 7 5 9t9 0t5 -5v-4q-8 5 -11 3q-2 -1 -2 -3t2 -7t16 -9
q12 -4 21.5 -3.5t12.5 5.5q2 8 -1.5 13t-8.5 9q-6 4 -14 7q-10 2 -19 5q-8 2 -15.5 3.5t-9.5 2.5q-5 2 -2 6t13 -1h1q1 0 1 2q0 4 1 9q-1 2 -0.5 3.5t0.5 3.5t1 3q8 -2 18.5 -4t19.5 -4h10t7 3q0 5 -8.5 7.5t-16.5 5.5q-7 1 -14.5 2t-15.5 3q-2 2 -1.5 5.5t0.5 5.5q0 3 1 5
q8 -3 18.5 -5t19.5 -3q3 -1 10 -1t7 3q0 5 -8.5 8t-17.5 5l-10 2l-10 2t-10 1q-1 2 -1 5.5v5.5q0 3 1 6h1q-3 1 -3 4q-3 11 3 16.5t18 4.5q2 0 3 -0.5t3 -0.5q7 -2 12 -4l10 -4q-9 7 -19 11h-5v1q-6 0 -12 2q-2 0 -10 2v-4h-4v4q-5 1 -9 1.5t-8 1.5l-8 2q-1 2 -1 5.5v5.5
q0 3 1 5q2 -1 9.5 -2.5t15.5 -3.5v7l4 -1v-6q10 -3 15 -3q6 -2 12 -3t11 -2h10t7 3q0 5 -9 8t-17 5l2 3q9 -4 19 -7t10 -13q0 -8 -6.5 -10.5t-14.5 -1.5q6 -4 13 -10t7 -16q1 -5 0 -7.5t-2 -4.5q7 -2 12.5 -2t10.5 -1t10 -1q0 -12 -2.5 -13.5t-8.5 -0.5q-2 0 -10 1t-17 3
q-1 1 -3 1q11 -6 11 -14q0 -12 -18 -12q8 -2 13 -5.5t5 -10.5q0 -6 -4.5 -9t-10.5 -3.5t-12.5 0.5t-10.5 2q-6 1 -11.5 1.5t-8.5 1.5q0 -4 -1 -5l-1 -6l31 -8q20 -5 24.5 -15.5t4.5 -15.5zM162 709q0 1 0.5 1t0.5 2q0 7 -10 11q-4 2 -10 3q-7 2 -20 3.5t-13 -5.5q0 -5 5 -7
q2 0 3.5 -0.5t3.5 -0.5q11 -2 23 -4.5t17 -3.5v1zM105 683q0 -8 -8 -6t-8 8t8 6q8 -2 8 -8z" />
    <glyph glyph-name="at" unicode="@" horiz-adv-x="698" 
d="M494 618q48 -11 84 -40.5t57.5 -72.5t26.5 -97t-9 -114q-11 -45 -36 -87t-57.5 -73t-69 -46.5t-68.5 -6.5q-31 4 -42.5 30t-12.5 59q-6 -18 -13 -34t-17 -28t-23.5 -19.5t-31.5 -7.5t-30 8t-19.5 21.5t-10.5 30t-4 34.5q-2 41 9 95q8 40 23 70t35 49t43.5 25t49.5 -2
q13 -3 19 -14q14 5 29 6t28 -1q14 -2 28 -5q-15 -45 -25.5 -100t-17.5 -102q-1 -6 -2 -17.5t-1 -23.5t1.5 -23.5t5.5 -17.5q18 -2 37 11.5t36.5 36.5t32 52.5t23.5 61.5q12 39 18 76t4.5 70t-11.5 61.5t-31 51.5q-40 42 -83 51.5t-93 -6.5q-47 -15 -83.5 -38t-64.5 -49.5
t-48 -53.5t-32.5 -49.5t-19 -37t-6.5 -15.5q-5 -11 -8 -21.5t-5 -21.5q-16 -69 -14 -129t23 -105t61.5 -71t101.5 -26q34 0 69 9q-30 -13 -61 -20t-62 -7q-61 0 -108.5 26t-77 71t-38.5 105t7 129q15 62 46.5 116.5t74.5 98.5q31 34 63.5 58t64 39t61.5 23.5t56 11.5
q62 8 118 -5zM377 278q5 27 9 52t7 42q-3 7 -9.5 11.5t-19.5 4.5q-14 0 -24 -12t-18 -30.5t-13.5 -40.5t-9 -43t-5.5 -38t-3 -25q0 -3 -1.5 -17.5t-1.5 -30.5t3 -28.5t11 -12.5q13 0 23 11t17.5 28t14 39t13.5 43q2 14 3.5 26t3.5 21z" />
    <glyph glyph-name="Zcaron" unicode="&#x17d;" horiz-adv-x="756" 
d="M550 838v18q0 8 -1 19.5t-3.5 23t-7 21t-12.5 14.5q6 8 15 14.5t20 6.5q10 0 16 -8t9.5 -19t4.5 -23t1 -19v-14q6 7 14.5 17.5t16 22.5t13 24t5.5 21v4q18 0 33 -2t15 -14q0 -10 -11.5 -30t-28.5 -40.5t-36 -38t-34 -23.5zM479 792h13t12 -1q-11 1 -17.5 1h-7.5zM855 793
q-4 -16 -11 -32q-6 -14 -15 -29.5t-22 -28.5q-43 -63 -85 -132.5t-82 -141.5h75l-18 -67h-94q-29 -52 -55 -102t-48.5 -95l-41.5 -83t-33 -67h290l-19 -73h-353v1q-59 1 -80.5 8t-20 22.5t19 42t37.5 67.5q6 12 20 39t34.5 64.5t45 82.5t51.5 93h-51l17 67h71q24 43 47 84.5
t43 78t36 65.5t27 48q-23 9 -42.5 18t-39.5 17t-41.5 14t-46.5 9q-6 1 -12.5 1h-13.5q-66 0 -116.5 -27t-87 -71.5t-59 -102t-32.5 -117.5t-8.5 -118t14.5 -104.5t36.5 -76.5t56.5 -34q-73 -21 -128 -10q-24 5 -46.5 17t-39.5 35.5t-26.5 60t-7.5 89.5q1 19 8.5 63t26.5 98
t51 112t82 106t119 78.5t163 30.5h15t14 -1l25.5 -3.5t64.5 -8t85.5 -8t88 -3.5t72.5 5.5t40 18.5z" />
    <glyph glyph-name="zcaron" unicode="&#x17e;" horiz-adv-x="427" 
d="M251 562v18q0 8 -1 19.5t-3.5 23t-7 21t-12.5 14.5q6 8 15 14.5t20 6.5q10 0 16 -8t9.5 -19t4.5 -23t1 -19v-14q6 7 14.5 17.5t16 22.5t13 24t5.5 21v4q18 0 33 -2t15 -14q0 -10 -11.5 -30t-28.5 -40.5t-36 -38t-34 -23.5zM448 190q-14 -41 -26 -86.5t-30 -83.5
t-45.5 -64t-70.5 -27h-4h-1h1l-153 1q-54 0 -80 5t-32 17t3 31.5t24 49.5q5 11 21.5 41.5t38.5 71t48 86.5t50 89t43.5 78.5t30.5 54.5q-1 8 -12.5 12t-29.5 4.5t-39 -1.5t-39.5 -7.5t-32 -13.5t-16.5 -18q-2 -8 -7 -23t-11 -34t-13 -41l-14 -44q-17 -51 -35 -111l-21 15
l70 243q0 27 18 41t48.5 20.5t70.5 7.5t83 1t70 -5.5t41 -11.5q17 -8 24 -17q-41 -56 -81.5 -124t-77.5 -134.5t-67 -126.5t-49 -99q43 -4 79 -6q31 -2 60 -2.5t40 4.5q18 9 32.5 32.5t26 54.5t22 66.5t21.5 69.5l21 -16v0z" />
    <glyph glyph-name="Scaron" unicode="&#x160;" horiz-adv-x="513" 
d="M300 849v18q0 8 -1 19.5t-3.5 23t-7 21t-12.5 14.5q6 8 15 14.5t20 6.5q10 0 16 -8t9.5 -19t4.5 -23t1 -19v-14q6 7 14.5 17.5t16 22.5t13 24t5.5 21v4q18 0 33 -2t15 -14q0 -10 -11.5 -30t-28.5 -40.5t-36 -38t-34 -23.5zM342 794q54 3 90.5 -10.5t57 -37.5t25.5 -56.5
t-4 -67.5t-29 -49.5t-41 -19.5q-25 -5 -52 -1q30 49 38 82t3 53q-7 21 -28.5 37t-58.5 16q-24 0 -49.5 -6.5t-45.5 -19.5t-33 -32.5t-13 -45.5q0 -42 19.5 -74t49.5 -60t64 -56t64 -63t49.5 -80t19.5 -107q0 -72 -23 -125.5t-63 -89.5t-95 -53.5t-119 -17.5q-56 0 -90.5 9.5
t-52.5 24.5t-22.5 34.5t-0.5 40.5q9 48 56 109q-1 -4 -1 -8v-8q0 -22 7 -42t21 -35.5t35 -24.5t50 -9q30 0 62 10.5t59 30t44 48t17 64.5q0 49 -21.5 88.5t-53 74t-69 65.5t-69 63t-53 67t-21.5 77q0 45 21.5 83t58 65.5t86.5 42.5t107 14h1h3v0z" />
    <glyph glyph-name="scaron" unicode="&#x161;" horiz-adv-x="351" 
d="M118 568v18q0 8 -1 19.5t-3.5 23t-7 21t-12.5 14.5q6 8 15 14.5t20 6.5q10 0 16 -8t9.5 -19t4.5 -23t1 -19v-14q6 7 14.5 17.5t16 22.5t13 24t5.5 21v4q18 0 33 -2t15 -14q0 -10 -11.5 -30t-28.5 -40.5t-36 -38t-34 -23.5zM372 190q-9 -25 -20.5 -41.5t-24 -26t-25 -14.5
t-21.5 -6q-7 -38 -31.5 -74.5t-70.5 -69.5q-37 -26 -69.5 -32t-61.5 1v2q-11 4 -19 15t-9 28t7.5 41t31.5 56q21 29 45.5 41t47.5 14q-2 2 -2.5 4.5t-2.5 4.5q0 1 -0.5 1t-0.5 1q-2 2 -2 4q-7 12 -19.5 27.5t-27 34.5t-28.5 39.5t-25 43.5l-28 -108l-16 29q5 16 9 35
q4 16 9 37.5t12 46.5q-5 21 -4.5 43t10.5 43.5t29.5 43t51.5 41.5q12 7 31 9.5t37.5 -6t32 -30t13.5 -62.5l-26 -5q-2 25 -7 42q-5 14 -13.5 23t-23.5 -2q-18 -13 -17.5 -33.5t10.5 -43t25 -44t27 -36.5q5 -5 9.5 -10.5t9.5 -10.5q29 -37 45 -77.5t14 -82.5q19 4 32 17
t21 27q9 16 14 35zM125 -32q20 14 30.5 30.5t13.5 33.5t1 34.5t-8 33.5q-20 0 -41 -10.5t-41 -39.5q-21 -32 -23 -51t4.5 -29t15.5 -13t10 -3q19 1 38 14z" />
    <glyph glyph-name="Ydieresis" unicode="&#x178;" horiz-adv-x="841" 
d="M880 733q-5 -16 -13.5 -56t-19.5 -93t-22.5 -112.5t-22 -113.5t-18.5 -96t-11 -60l-6 -33q0 -1 -4.5 -30.5t-15.5 -73t-30 -94t-48.5 -94t-71 -72.5t-97.5 -29t-88 14t-46 34.5t-12.5 44.5t12.5 43t28.5 29.5t36.5 5.5q-12 -34 -13 -60q-1 -23 10 -41t45 -18q33 0 59 29
t45 74t32.5 100.5t22.5 108.5q2 17 5 34t6 33q4 25 12 72t18 104q-19 -38 -44 -75t-54.5 -66.5t-62.5 -48t-68 -18.5q-39 0 -61.5 19t-34 49.5t-13.5 68t0.5 75t7.5 71t9 54.5q5 31 10 60.5t9 55.5q2 14 9 50t16 83q-57 -10 -100.5 -42.5t-74.5 -78.5t-49.5 -102t-26 -113
t-4 -111.5t17 -97.5t36 -70.5t53.5 -31.5q-73 -21 -128 -10q-24 5 -46.5 17t-39.5 35.5t-26.5 60t-7.5 89.5q1 19 8.5 63t26.5 98t51 112t82 106t119 78.5t163 30.5h46.5t41.5 -3h2q-8 -36 -15.5 -70t-13.5 -62.5t-10 -48.5t-6 -29q-12 -54 -21 -108t-16 -102
q-2 -12 -3.5 -36.5t-1 -49t6 -43t18.5 -18.5q20 0 47 22t56 61.5t59.5 93.5t57.5 119q7 42 14 79.5t12 66.5q6 33 11 63q23 9 48 11t47 0q26 -2 50 -7zM609 908q18 0 31 -13t13 -31t-13 -31t-31 -13t-31 13t-13 31t13 31t31 13zM715 908q18 0 31 -13t13 -31t-13 -31t-31 -13
t-31 13t-13 31t13 31t31 13z" />
    <glyph glyph-name="Agrave" unicode="&#xc0;" 
d="M707 331q-30 -108 -38.5 -184.5t-3.5 -127t21.5 -77.5t37.5 -36q-54 -16 -95 -9q-18 3 -35 11t-30 23.5t-20.5 40.5t-6.5 62q2 55 14 126.5t29 146.5h-133q-20 -51 -39 -103.5t-39 -104t-43 -100t-51 -91.5l-96 77q54 68 103 152.5t95 169.5h-119l7 44h136q42 76 79 140
t70 102q18 21 36.5 37t35.5 28q-5 12 -9.5 21t-8.5 15q-4 7 -9 11q-18 23 -53.5 42.5t-96.5 19.5q-66 0 -116.5 -27t-87 -71.5t-59 -102t-32.5 -117.5t-8.5 -118t14.5 -104.5t36.5 -76.5t56.5 -34q-73 -21 -128 -10q-24 5 -46.5 17.5t-39.5 36t-26.5 60t-7.5 89.5
q1 19 8.5 62.5t26.5 98t51 112t82 105.5t119 78.5t163 30.5q100 0 158.5 -23t88.5 -51q35 -33 46 -74q4 -10 6.5 -31t0.5 -58.5t-12 -93t-32 -134.5zM582 558q-37 -42 -65 -95t-53 -112h125v3q6 26 11.5 52t10.5 51q11 35 16 64t6 54q0 2 0.5 4.5t0.5 4.5l-1 -2v18
q-27 -15 -51 -42zM559 818l-7 13t-19 34t-29.5 48.5t-39.5 57.5q3 8 10 15q6 5 17.5 10t30.5 5l119 -147q-5 -14 -18.5 -21.5t-27.5 -10.5q-17 -4 -36 -4z" />
    <glyph glyph-name="Aacute" unicode="&#xc1;" 
d="M707 331q-30 -108 -38.5 -184.5t-3.5 -127t21.5 -77.5t37.5 -36q-54 -16 -95 -9q-18 3 -35 11t-30 23.5t-20.5 40.5t-6.5 62q2 55 14 126.5t29 146.5h-133q-20 -51 -39 -103.5t-39 -104t-43 -100t-51 -91.5l-96 77q54 68 103 152.5t95 169.5h-119l7 44h136q42 76 79 140
t70 102q18 21 36.5 37t35.5 28q-5 12 -9.5 21t-8.5 15q-4 7 -9 11q-18 23 -53.5 42.5t-96.5 19.5q-66 0 -116.5 -27t-87 -71.5t-59 -102t-32.5 -117.5t-8.5 -118t14.5 -104.5t36.5 -76.5t56.5 -34q-73 -21 -128 -10q-24 5 -46.5 17.5t-39.5 36t-26.5 60t-7.5 89.5
q1 19 8.5 62.5t26.5 98t51 112t82 105.5t119 78.5t163 30.5q100 0 158.5 -23t88.5 -51q35 -33 46 -74q4 -10 6.5 -31t0.5 -58.5t-12 -93t-32 -134.5zM582 558q-37 -42 -65 -95t-53 -112h125v3q6 26 11.5 52t10.5 51q11 35 16 64t6 54q0 2 0.5 4.5t0.5 4.5l-1 -2v18
q-27 -15 -51 -42zM496 876l9.5 11t25 29.5t35.5 44.5t41 57q9 -1 18 -5q8 -4 15.5 -13.5t14.5 -26.5l-97 -162q-15 0 -26.5 10t-19.5 22q-10 14 -16 33z" />
    <glyph glyph-name="Acircumflex" unicode="&#xc2;" 
d="M707 331q-30 -108 -38.5 -184.5t-3.5 -127t21.5 -77.5t37.5 -36q-54 -16 -95 -9q-18 3 -35 11t-30 23.5t-20.5 40.5t-6.5 62q2 55 14 126.5t29 146.5h-133q-20 -51 -39 -103.5t-39 -104t-43 -100t-51 -91.5l-96 77q54 68 103 152.5t95 169.5h-119l7 44h136q42 76 79 140
t70 102q18 21 36.5 37t35.5 28q-5 12 -9.5 21t-8.5 15q-4 7 -9 11q-18 23 -53.5 42.5t-96.5 19.5q-66 0 -116.5 -27t-87 -71.5t-59 -102t-32.5 -117.5t-8.5 -118t14.5 -104.5t36.5 -76.5t56.5 -34q-73 -21 -128 -10q-24 5 -46.5 17.5t-39.5 36t-26.5 60t-7.5 89.5
q1 19 8.5 62.5t26.5 98t51 112t82 105.5t119 78.5t163 30.5q100 0 158.5 -23t88.5 -51q35 -33 46 -74q4 -10 6.5 -31t0.5 -58.5t-12 -93t-32 -134.5zM582 558q-37 -42 -65 -95t-53 -112h125v3q6 26 11.5 52t10.5 51q11 35 16 64t6 54q0 2 0.5 4.5t0.5 4.5l-1 -2v18
q-27 -15 -51 -42zM640 945v-18q0 -8 1 -19.5t3.5 -23t7 -21.5t12.5 -14q-6 -8 -15 -14.5t-20 -6.5q-10 0 -16 8t-9.5 19t-4.5 22.5t-1 19.5v14q-6 -7 -14.5 -17.5t-16 -22.5t-13 -24t-5.5 -21v-4q-18 0 -33 2t-15 14q0 10 11.5 30t28.5 40.5t36 38t34 23.5z" />
    <glyph glyph-name="Atilde" unicode="&#xc3;" 
d="M707 331q-30 -108 -38.5 -184.5t-3.5 -127t21.5 -77.5t37.5 -36q-54 -16 -95 -9q-18 3 -35 11t-30 23.5t-20.5 40.5t-6.5 62q2 55 14 126.5t29 146.5h-133q-20 -51 -39 -103.5t-39 -104t-43 -100t-51 -91.5l-96 77q54 68 103 152.5t95 169.5h-119l7 44h136q42 76 79 140
t70 102q18 21 36.5 37t35.5 28q-5 12 -9.5 21t-8.5 15q-4 7 -9 11q-18 23 -53.5 42.5t-96.5 19.5q-66 0 -116.5 -27t-87 -71.5t-59 -102t-32.5 -117.5t-8.5 -118t14.5 -104.5t36.5 -76.5t56.5 -34q-73 -21 -128 -10q-24 5 -46.5 17.5t-39.5 36t-26.5 60t-7.5 89.5
q1 19 8.5 62.5t26.5 98t51 112t82 105.5t119 78.5t163 30.5q100 0 158.5 -23t88.5 -51q35 -33 46 -74q4 -10 6.5 -31t0.5 -58.5t-12 -93t-32 -134.5zM582 558q-37 -42 -65 -95t-53 -112h125v3q6 26 11.5 52t10.5 51q11 35 16 64t6 54q0 2 0.5 4.5t0.5 4.5l-1 -2v18
q-27 -15 -51 -42zM505.295 845.943q-2.7041 18.9297 2.70508 33.8027q4.05664 12.1689 14.876 20.958q10.8184 8.78809 33.8086 2.02734q21.6377 -6.75977 47.333 -12.8447q25.6943 -6.08398 50.7129 -9.46484q25.0186 -3.37988 46.6562 -1.35156
q21.6377 2.02734 37.8662 12.8447q0 -1.35254 1.35254 -12.1689q1.35254 -10.8174 -4.05762 -22.3096q-5.40918 -11.4932 -20.9609 -18.9297q-15.5527 -7.43652 -49.3613 -3.38086q-33.8086 4.05664 -60.1797 10.8174t-45.9805 10.1406q-19.6084 3.37988 -33.1328 2.02832
q-13.5234 -1.35254 -21.6377 -12.1689z" />
    <glyph glyph-name="Adieresis" unicode="&#xc4;" 
d="M707 331q-30 -108 -38.5 -184.5t-3.5 -127t21.5 -77.5t37.5 -36q-54 -16 -95 -9q-18 3 -35 11t-30 23.5t-20.5 40.5t-6.5 62q2 55 14 126.5t29 146.5h-133q-20 -51 -39 -103.5t-39 -104t-43 -100t-51 -91.5l-96 77q54 68 103 152.5t95 169.5h-119l7 44h136q42 76 79 140
t70 102q18 21 36.5 37t35.5 28q-5 12 -9.5 21t-8.5 15q-4 7 -9 11q-18 23 -53.5 42.5t-96.5 19.5q-66 0 -116.5 -27t-87 -71.5t-59 -102t-32.5 -117.5t-8.5 -118t14.5 -104.5t36.5 -76.5t56.5 -34q-73 -21 -128 -10q-24 5 -46.5 17.5t-39.5 36t-26.5 60t-7.5 89.5
q1 19 8.5 62.5t26.5 98t51 112t82 105.5t119 78.5t163 30.5q100 0 158.5 -23t88.5 -51q35 -33 46 -74q4 -10 6.5 -31t0.5 -58.5t-12 -93t-32 -134.5zM582 558q-37 -42 -65 -95t-53 -112h125v3q6 26 11.5 52t10.5 51q11 35 16 64t6 54q0 2 0.5 4.5t0.5 4.5l-1 -2v18
q-27 -15 -51 -42zM567 901q18 0 31 -13t13 -31t-13 -31t-31 -13t-31 13t-13 31t13 31t31 13zM673 901q18 0 31 -13t13 -31t-13 -31t-31 -13t-31 13t-13 31t13 31t31 13z" />
    <glyph glyph-name="Aring" unicode="&#xc5;" 
d="M705.547 871.344q-3.32422 -13.2793 -6.64941 -24.0693q-3.32422 -10.79 -11.6357 -20.75q-4.9873 -6.63965 -15.793 -14.9395q-10.8047 -8.2998 -20.7793 -9.95996q-24.9355 -6.63965 -44.0527 11.6201t-5.81836 64.7393q13.2988 43.1592 29.9229 59.7588
t31.585 19.9189h9.97363h4.9873q19.9482 0 23.2734 -18.2588q4.98633 -4.98047 6.64844 -9.95996q3.3252 -11.6201 1.66309 -30.71q-1.66309 -19.0898 -3.3252 -27.3896zM637.391 901.224q-8.31152 -31.54 -7.48047 -54.7793t14.1299 -29.8799h3.3252
q8.31152 0 18.2852 10.79q9.97461 10.79 18.2861 48.9697q4.9873 21.5791 4.9873 36.5195q-3.3252 -1.66016 -4.9873 -0.830078t-3.3252 0.830078h-3.32422q8.31152 11.6191 8.31152 18.2598q0 6.63965 -1.66211 9.95898q-3.3252 3.32031 -6.64941 3.32031t-15.792 -4.97949
q-12.4678 -4.98047 -24.1045 -38.1797zM707 331q-30 -108 -38.5 -184.5t-3.5 -127t21.5 -77.5t37.5 -36q-54 -16 -95 -9q-18 3 -35 11t-30 23.5t-20.5 40.5t-6.5 62q2 55 14 126.5t29 146.5h-133q-20 -51 -39 -103.5t-39 -104t-43 -100t-51 -91.5l-96 77q54 68 103 152.5
t95 169.5h-119l7 44h136q42 76 79 140t70 102q18 21 36.5 37t35.5 28q-5 12 -9.5 21t-8.5 15q-4 7 -9 11q-18 23 -53.5 42.5t-96.5 19.5q-66 0 -116.5 -27t-87 -71.5t-59 -102t-32.5 -117.5t-8.5 -118t14.5 -104.5t36.5 -76.5t56.5 -34q-73 -21 -128 -10q-24 5 -46.5 17.5
t-39.5 36t-26.5 60t-7.5 89.5q1 19 8.5 62.5t26.5 98t51 112t82 105.5t119 78.5t163 30.5q100 0 158.5 -23t88.5 -51q35 -33 46 -74q4 -10 6.5 -31t0.5 -58.5t-12 -93t-32 -134.5zM582 558q-37 -42 -65 -95t-53 -112h125v3q6 26 11.5 52t10.5 51q11 35 16 64t6 54
q0 2 0.5 4.5t0.5 4.5l-1 -2v18q-27 -15 -51 -42z" />
    <glyph glyph-name="Ccedilla" unicode="&#xc7;" horiz-adv-x="568" 
d="M551 604q-9 -34 -29 -49t-40 -20q-24 -5 -52 -1q20 34 30.5 59.5t14.5 44t2 31.5t-7 21q-12 19 -40 21q-12 0 -40 -2t-62.5 -23t-70.5 -70t-63 -143t-35 -177t4 -146t42.5 -101.5t80.5 -42.5q54 -5 100 5.5t81 24.5q40 17 74 40q-49 -67 -116 -106.5t-135.5 -50
t-131.5 10t-104 73.5t-52 139.5t24 209.5q31 111 69.5 187t79 125t80.5 75t73 37q2 2 8.5 4t20.5 4q16 3 29 4t22 1q11 0 19 -2l1 -1q43 -3 70.5 -20t42 -42t16.5 -56.5t-6 -63.5zM223 -67l-30 -38q20 -7 31 -18q10 -10 14 -26t-10 -42t-42.5 -34.5t-56.5 -8.5q-33 0 -71 9
l22 38q31 -6 57 -5q22 0 42 6.5t25 25.5q5 18 -2.5 26.5t-18.5 10.5q-12 3 -30 1l38 63z" />
    <glyph glyph-name="Egrave" unicode="&#xc8;" horiz-adv-x="741" 
d="M434 254q2 9 4 23t6 31h191l18 67h-197q9 49 20 104.5t21.5 106.5t19 90t14.5 55q-25 6 -51 9q-22 2 -47 1t-48 -10q-18 -105 -34 -197q-7 -39 -14 -80t-13.5 -77.5t-11.5 -67.5t-8 -50q-7 -39 -13.5 -77t-11.5 -70.5t-9 -56.5t-5 -33q-3 -26 -4.5 -44t4.5 -30t22 -18.5
t49 -9.5h11q9 -1 20 -1h23v1h299l19 72h-311q5 48 14 117.5t23 144.5zM479 794q1 0 7.5 -0.5t17.5 -1.5q-6 1 -12 1t-13 1zM479 794h-29q-94 0 -163 -30.5t-119 -78.5t-82 -105.5t-51 -112t-26.5 -98t-8.5 -62.5q-2 -53 7.5 -89.5t26.5 -60t39.5 -36t46.5 -17.5
q55 -11 128 10q-33 4 -56.5 34t-36.5 76.5t-14.5 104.5t8.5 118t32.5 117.5t59 102t87 71.5t116.5 27h13.5t12.5 -1q35 -3 62.5 -13t55 -22t57.5 -25.5t70 -23.5q20 -5 36.5 -3t30 9t24.5 17.5t19 22.5q19 28 30 68q-9 -13 -40 -18.5t-72.5 -5.5t-88 3.5t-85.5 8t-64.5 8.5z
M531 808l-7 13t-19 34t-29.5 48.5t-39.5 57.5q3 8 10 15q6 5 17.5 10t30.5 5l119 -147q-5 -14 -18.5 -21.5t-27.5 -10.5q-17 -4 -36 -4z" />
    <glyph glyph-name="Eacute" unicode="&#xc9;" horiz-adv-x="741" 
d="M434 254q2 9 4 23t6 31h191l18 67h-197q9 49 20 104.5t21.5 106.5t19 90t14.5 55q-25 6 -51 9q-22 2 -47 1t-48 -10q-18 -105 -34 -197q-7 -39 -14 -80t-13.5 -77.5t-11.5 -67.5t-8 -50q-7 -39 -13.5 -77t-11.5 -70.5t-9 -56.5t-5 -33q-3 -26 -4.5 -44t4.5 -30t22 -18.5
t49 -9.5h11q9 -1 20 -1h23v1h299l19 72h-311q5 48 14 117.5t23 144.5zM479 794q1 0 7.5 -0.5t17.5 -1.5q-6 1 -12 1t-13 1zM479 794h-29q-94 0 -163 -30.5t-119 -78.5t-82 -105.5t-51 -112t-26.5 -98t-8.5 -62.5q-2 -53 7.5 -89.5t26.5 -60t39.5 -36t46.5 -17.5
q55 -11 128 10q-33 4 -56.5 34t-36.5 76.5t-14.5 104.5t8.5 118t32.5 117.5t59 102t87 71.5t116.5 27h13.5t12.5 -1q35 -3 62.5 -13t55 -22t57.5 -25.5t70 -23.5q20 -5 36.5 -3t30 9t24.5 17.5t19 22.5q19 28 30 68q-9 -13 -40 -18.5t-72.5 -5.5t-88 3.5t-85.5 8t-64.5 8.5z
M520 870l9.5 11t25 29.5t35.5 44.5t41 57q9 -1 18 -5q8 -4 15.5 -13.5t14.5 -26.5l-97 -162q-15 0 -26.5 10t-19.5 22q-10 14 -16 33z" />
    <glyph glyph-name="Ecircumflex" unicode="&#xca;" horiz-adv-x="741" 
d="M434 254q2 9 4 23t6 31h191l18 67h-197q9 49 20 104.5t21.5 106.5t19 90t14.5 55q-25 6 -51 9q-22 2 -47 1t-48 -10q-18 -105 -34 -197q-7 -39 -14 -80t-13.5 -77.5t-11.5 -67.5t-8 -50q-7 -39 -13.5 -77t-11.5 -70.5t-9 -56.5t-5 -33q-3 -26 -4.5 -44t4.5 -30t22 -18.5
t49 -9.5h11q9 -1 20 -1h23v1h299l19 72h-311q5 48 14 117.5t23 144.5zM479 794q1 0 7.5 -0.5t17.5 -1.5q-6 1 -12 1t-13 1zM479 794h-29q-94 0 -163 -30.5t-119 -78.5t-82 -105.5t-51 -112t-26.5 -98t-8.5 -62.5q-2 -53 7.5 -89.5t26.5 -60t39.5 -36t46.5 -17.5
q55 -11 128 10q-33 4 -56.5 34t-36.5 76.5t-14.5 104.5t8.5 118t32.5 117.5t59 102t87 71.5t116.5 27h13.5t12.5 -1q35 -3 62.5 -13t55 -22t57.5 -25.5t70 -23.5q20 -5 36.5 -3t30 9t24.5 17.5t19 22.5q19 28 30 68q-9 -13 -40 -18.5t-72.5 -5.5t-88 3.5t-85.5 8t-64.5 8.5z
M649 939v-18q0 -8 1 -19.5t3.5 -23t7 -21.5t12.5 -14q-6 -8 -15 -14.5t-20 -6.5q-10 0 -16 8t-9.5 19t-4.5 22.5t-1 19.5v14q-6 -7 -14.5 -17.5t-16 -22.5t-13 -24t-5.5 -21v-4q-18 0 -33 2t-15 14q0 10 11.5 30t28.5 40.5t36 38t34 23.5z" />
    <glyph glyph-name="Edieresis" unicode="&#xcb;" horiz-adv-x="741" 
d="M434 254q2 9 4 23t6 31h191l18 67h-197q9 49 20 104.5t21.5 106.5t19 90t14.5 55q-25 6 -51 9q-22 2 -47 1t-48 -10q-18 -105 -34 -197q-7 -39 -14 -80t-13.5 -77.5t-11.5 -67.5t-8 -50q-7 -39 -13.5 -77t-11.5 -70.5t-9 -56.5t-5 -33q-3 -26 -4.5 -44t4.5 -30t22 -18.5
t49 -9.5h11q9 -1 20 -1h23v1h299l19 72h-311q5 48 14 117.5t23 144.5zM479 794q1 0 7.5 -0.5t17.5 -1.5q-6 1 -12 1t-13 1zM479 794h-29q-94 0 -163 -30.5t-119 -78.5t-82 -105.5t-51 -112t-26.5 -98t-8.5 -62.5q-2 -53 7.5 -89.5t26.5 -60t39.5 -36t46.5 -17.5
q55 -11 128 10q-33 4 -56.5 34t-36.5 76.5t-14.5 104.5t8.5 118t32.5 117.5t59 102t87 71.5t116.5 27h13.5t12.5 -1q35 -3 62.5 -13t55 -22t57.5 -25.5t70 -23.5q20 -5 36.5 -3t30 9t24.5 17.5t19 22.5q19 28 30 68q-9 -13 -40 -18.5t-72.5 -5.5t-88 3.5t-85.5 8t-64.5 8.5z
M526 904q18 0 31 -13t13 -31t-13 -31t-31 -13t-31 13t-13 31t13 31t31 13zM632 904q18 0 31 -13t13 -31t-13 -31t-31 -13t-31 13t-13 31t13 31t31 13z" />
    <glyph glyph-name="Igrave" unicode="&#xcc;" horiz-adv-x="478" 
d="M528 751q-7 -29 -16 -72.5t-18.5 -93.5t-20 -102t-19 -97.5t-15 -80.5t-9.5 -51q-12 -63 -20.5 -123t-13.5 -108q-6 -55 -10 -104q-54 0 -81.5 5t-38 17t-9.5 31.5t4 49.5q1 9 4.5 33t9 56.5t12 70.5t12.5 77q4 22 11 62t15.5 88t18 101t18 101t15 87.5t10.5 61.5
q-55 -12 -97.5 -45.5t-72 -80t-47.5 -102t-25 -112t-3.5 -110t17 -96t36 -69.5t53.5 -31q-73 -21 -128 -10q-24 5 -46.5 17.5t-39.5 36t-26.5 60t-7.5 89.5q1 19 8.5 62.5t26.5 98t51 112t82 105.5t119 78.5t163 30.5h46.5t41.5 -3zM448 837l-7 13t-19 34t-29.5 48.5
t-39.5 57.5q3 8 10 15q6 5 17.5 10t30.5 5l119 -147q-5 -14 -18.5 -21.5t-27.5 -10.5q-17 -4 -36 -4z" />
    <glyph glyph-name="Iacute" unicode="&#xcd;" horiz-adv-x="478" 
d="M528 751q-7 -29 -16 -72.5t-18.5 -93.5t-20 -102t-19 -97.5t-15 -80.5t-9.5 -51q-12 -63 -20.5 -123t-13.5 -108q-6 -55 -10 -104q-54 0 -81.5 5t-38 17t-9.5 31.5t4 49.5q1 9 4.5 33t9 56.5t12 70.5t12.5 77q4 22 11 62t15.5 88t18 101t18 101t15 87.5t10.5 61.5
q-55 -12 -97.5 -45.5t-72 -80t-47.5 -102t-25 -112t-3.5 -110t17 -96t36 -69.5t53.5 -31q-73 -21 -128 -10q-24 5 -46.5 17.5t-39.5 36t-26.5 60t-7.5 89.5q1 19 8.5 62.5t26.5 98t51 112t82 105.5t119 78.5t163 30.5h46.5t41.5 -3zM356 877l9.5 11t25 29.5t35.5 44.5t41 57
q9 -1 18 -5q8 -4 15.5 -13.5t14.5 -26.5l-97 -162q-15 0 -26.5 10t-19.5 22q-10 14 -16 33z" />
    <glyph glyph-name="Icircumflex" unicode="&#xce;" horiz-adv-x="478" 
d="M528 751q-7 -29 -16 -72.5t-18.5 -93.5t-20 -102t-19 -97.5t-15 -80.5t-9.5 -51q-12 -63 -20.5 -123t-13.5 -108q-6 -55 -10 -104q-54 0 -81.5 5t-38 17t-9.5 31.5t4 49.5q1 9 4.5 33t9 56.5t12 70.5t12.5 77q4 22 11 62t15.5 88t18 101t18 101t15 87.5t10.5 61.5
q-55 -12 -97.5 -45.5t-72 -80t-47.5 -102t-25 -112t-3.5 -110t17 -96t36 -69.5t53.5 -31q-73 -21 -128 -10q-24 5 -46.5 17.5t-39.5 36t-26.5 60t-7.5 89.5q1 19 8.5 62.5t26.5 98t51 112t82 105.5t119 78.5t163 30.5h46.5t41.5 -3zM505 947v-18q0 -8 1 -19.5t3.5 -23
t7 -21.5t12.5 -14q-6 -8 -15 -14.5t-20 -6.5q-10 0 -16 8t-9.5 19t-4.5 22.5t-1 19.5v14q-6 -7 -14.5 -17.5t-16 -22.5t-13 -24t-5.5 -21v-4q-18 0 -33 2t-15 14q0 10 11.5 30t28.5 40.5t36 38t34 23.5z" />
    <glyph glyph-name="Idieresis" unicode="&#xcf;" horiz-adv-x="478" 
d="M528 751q-7 -29 -16 -72.5t-18.5 -93.5t-20 -102t-19 -97.5t-15 -80.5t-9.5 -51q-12 -63 -20.5 -123t-13.5 -108q-6 -55 -10 -104q-54 0 -81.5 5t-38 17t-9.5 31.5t4 49.5q1 9 4.5 33t9 56.5t12 70.5t12.5 77q4 22 11 62t15.5 88t18 101t18 101t15 87.5t10.5 61.5
q-55 -12 -97.5 -45.5t-72 -80t-47.5 -102t-25 -112t-3.5 -110t17 -96t36 -69.5t53.5 -31q-73 -21 -128 -10q-24 5 -46.5 17.5t-39.5 36t-26.5 60t-7.5 89.5q1 19 8.5 62.5t26.5 98t51 112t82 105.5t119 78.5t163 30.5h46.5t41.5 -3zM395 917q18 0 31 -13t13 -31t-13 -31
t-31 -13t-31 13t-13 31t13 31t31 13zM501 917q18 0 31 -13t13 -31t-13 -31t-31 -13t-31 13t-13 31t13 31t31 13z" />
    <glyph glyph-name="Ntilde" unicode="&#xd1;" horiz-adv-x="870" 
d="M771 181q-11 -68 -9 -106.5t12 -57t24.5 -21t27.5 2t22.5 11l9.5 6.5q-10 -38 -27.5 -58t-34.5 -29q-20 -11 -42 -11q-45 -3 -77 23q-14 11 -26 30t-20 48t-10 70t4 97q9 74 23.5 143t29.5 130t27 110.5t15 83.5t-6.5 51t-36.5 12q-20 -4 -41.5 -26t-43 -55.5t-42 -75.5
t-38.5 -85q-43 -101 -84 -228q-11 -63 -19 -121.5t-13 -104.5q-6 -54 -10 -102q-54 0 -81.5 5t-38 17t-9.5 32t4 50q1 9 4.5 32.5t9 56t12 71t12.5 77.5q4 22 11 62t15.5 88t18 100.5t18 101t15 87.5t10.5 61q-55 -12 -97.5 -45t-72 -79.5t-47.5 -102t-25 -112t-3.5 -110
t17 -96t36 -69.5t53.5 -31q-73 -21 -128 -10q-24 5 -46.5 17t-39.5 35.5t-26.5 60t-7.5 89.5q1 19 8.5 63t26.5 98t51 112t82 106t119 78.5t163 30.5h46.5t41.5 -3l-1 -6l-9 -34q-9 -42 -23.5 -110.5t-28.5 -142.5q21 53 48 106t59.5 95.5t70 68.5t80.5 25q51 -2 77 -29
t33.5 -72t1 -105t-19 -127.5t-28.5 -139t-27 -139.5zM492.099 849.635q-2.90137 20.3096 2.90137 36.2676q4.35254 13.0557 15.959 22.4854q11.6064 9.42871 36.2695 2.17578q23.2129 -7.25293 50.7783 -13.7812t54.4053 -10.1553t50.0527 -1.4502
q23.2129 2.17578 40.623 13.7812q0 -1.4502 1.45117 -13.0557q1.4502 -11.6055 -4.35254 -23.9365q-5.80371 -12.3311 -22.4883 -20.3096q-16.6836 -7.97852 -52.9541 -3.62695q-36.2695 4.35156 -64.5605 11.6055t-49.3271 10.8799q-21.0371 3.62695 -35.5449 2.17676
q-14.5088 -1.45117 -23.2129 -13.0566z" />
    <glyph glyph-name="Ograve" unicode="&#xd2;" horiz-adv-x="612" 
d="M580 312q-2 -8 -3 -14.5t-3 -14.5q-16 -63 -36.5 -112t-44.5 -87q-4 -5 -7.5 -10.5t-6.5 -10.5l-2 -2q0 -1 -1 -2q-37 -49 -75.5 -77t-74.5 -42q-47 -19 -94.5 -21.5t-89.5 13t-75 49t-50.5 86t-16.5 124.5t27 164q31 111 69.5 187t78.5 125t79.5 75t72.5 38q2 5 31 8
q15 3 27.5 4t21.5 1q11 0 19 -2l1 -1q60 -5 90 -33.5t38 -69.5q21 -21 34 -55q12 -31 14 -75t-1.5 -90t-10 -87.5t-11.5 -66.5v-1zM213 476q-24 -83 -35.5 -159.5t-8.5 -138t20.5 -104t52.5 -58.5q6 -2 11.5 -3t10.5 -2q15 -1 34 2t41 14.5t44.5 34t44.5 59.5t42 91t36 130
q23 140 19 219q-14 -14 -31 -19t-31 -6q-17 -1 -34 2q20 33 30.5 58.5t14.5 44.5t2 32t-7 21q-12 19 -40 21q-12 0 -36.5 -2t-55.5 -23t-63.5 -70.5t-60.5 -143.5zM443 824l-7 13t-19 34t-29.5 48.5t-39.5 57.5q3 8 10 15q6 5 17.5 10t30.5 5l119 -147q-5 -14 -18.5 -21.5
t-27.5 -10.5q-17 -4 -36 -4z" />
    <glyph glyph-name="Oacute" unicode="&#xd3;" horiz-adv-x="612" 
d="M580 312q-2 -8 -3 -14.5t-3 -14.5q-16 -63 -36.5 -112t-44.5 -87q-4 -5 -7.5 -10.5t-6.5 -10.5l-2 -2q0 -1 -1 -2q-37 -49 -75.5 -77t-74.5 -42q-47 -19 -94.5 -21.5t-89.5 13t-75 49t-50.5 86t-16.5 124.5t27 164q31 111 69.5 187t78.5 125t79.5 75t72.5 38q2 5 31 8
q15 3 27.5 4t21.5 1q11 0 19 -2l1 -1q60 -5 90 -33.5t38 -69.5q21 -21 34 -55q12 -31 14 -75t-1.5 -90t-10 -87.5t-11.5 -66.5v-1zM213 476q-24 -83 -35.5 -159.5t-8.5 -138t20.5 -104t52.5 -58.5q6 -2 11.5 -3t10.5 -2q15 -1 34 2t41 14.5t44.5 34t44.5 59.5t42 91t36 130
q23 140 19 219q-14 -14 -31 -19t-31 -6q-17 -1 -34 2q20 33 30.5 58.5t14.5 44.5t2 32t-7 21q-12 19 -40 21q-12 0 -36.5 -2t-55.5 -23t-63.5 -70.5t-60.5 -143.5zM377 875l9.5 11t25 29.5t35.5 44.5t41 57q9 -1 18 -5q8 -4 15.5 -13.5t14.5 -26.5l-97 -162q-15 0 -26.5 10
t-19.5 22q-10 14 -16 33z" />
    <glyph glyph-name="Ocircumflex" unicode="&#xd4;" horiz-adv-x="612" 
d="M580 312q-2 -8 -3 -14.5t-3 -14.5q-16 -63 -36.5 -112t-44.5 -87q-4 -5 -7.5 -10.5t-6.5 -10.5l-2 -2q0 -1 -1 -2q-37 -49 -75.5 -77t-74.5 -42q-47 -19 -94.5 -21.5t-89.5 13t-75 49t-50.5 86t-16.5 124.5t27 164q31 111 69.5 187t78.5 125t79.5 75t72.5 38q2 5 31 8
q15 3 27.5 4t21.5 1q11 0 19 -2l1 -1q60 -5 90 -33.5t38 -69.5q21 -21 34 -55q12 -31 14 -75t-1.5 -90t-10 -87.5t-11.5 -66.5v-1zM213 476q-24 -83 -35.5 -159.5t-8.5 -138t20.5 -104t52.5 -58.5q6 -2 11.5 -3t10.5 -2q15 -1 34 2t41 14.5t44.5 34t44.5 59.5t42 91t36 130
q23 140 19 219q-14 -14 -31 -19t-31 -6q-17 -1 -34 2q20 33 30.5 58.5t14.5 44.5t2 32t-7 21q-12 19 -40 21q-12 0 -36.5 -2t-55.5 -23t-63.5 -70.5t-60.5 -143.5zM497 948v-18q0 -8 1 -19.5t3.5 -23t7 -21.5t12.5 -14q-6 -8 -15 -14.5t-20 -6.5q-10 0 -16 8t-9.5 19
t-4.5 22.5t-1 19.5v14q-6 -7 -14.5 -17.5t-16 -22.5t-13 -24t-5.5 -21v-4q-18 0 -33 2t-15 14q0 10 11.5 30t28.5 40.5t36 38t34 23.5z" />
    <glyph glyph-name="Otilde" unicode="&#xd5;" horiz-adv-x="612" 
d="M580 312q-2 -8 -3 -14.5t-3 -14.5q-16 -63 -36.5 -112t-44.5 -87q-4 -5 -7.5 -10.5t-6.5 -10.5l-2 -2q0 -1 -1 -2q-37 -49 -75.5 -77t-74.5 -42q-47 -19 -94.5 -21.5t-89.5 13t-75 49t-50.5 86t-16.5 124.5t27 164q31 111 69.5 187t78.5 125t79.5 75t72.5 38q2 5 31 8
q15 3 27.5 4t21.5 1q11 0 19 -2l1 -1q60 -5 90 -33.5t38 -69.5q21 -21 34 -55q12 -31 14 -75t-1.5 -90t-10 -87.5t-11.5 -66.5v-1zM213 476q-24 -83 -35.5 -159.5t-8.5 -138t20.5 -104t52.5 -58.5q6 -2 11.5 -3t10.5 -2q15 -1 34 2t41 14.5t44.5 34t44.5 59.5t42 91t36 130
q23 140 19 219q-14 -14 -31 -19t-31 -6q-17 -1 -34 2q20 33 30.5 58.5t14.5 44.5t2 32t-7 21q-12 19 -40 21q-12 0 -36.5 -2t-55.5 -23t-63.5 -70.5t-60.5 -143.5zM297.975 836.09q-3.02637 22.873 3.02539 40.8447q4.53906 14.7041 16.6426 25.3232
q12.1035 10.6201 37.8232 2.45117q24.207 -8.16895 52.9531 -15.5215q28.7451 -7.35156 56.7354 -11.4355q27.9893 -4.08496 52.1963 -1.63477q24.207 2.45117 42.3623 15.5215q0 -1.63379 1.5127 -14.7041t-4.53906 -26.958q-6.05176 -13.8867 -23.4502 -22.873
q-17.3984 -8.98535 -55.2227 -4.08398q-37.8232 4.90137 -67.3252 13.0703q-29.5029 8.16895 -51.4404 12.2539q-21.9375 4.08398 -37.0664 2.4502q-15.1299 -1.63379 -24.207 -14.7041z" />
    <glyph glyph-name="Odieresis" unicode="&#xd6;" horiz-adv-x="612" 
d="M580 312q-2 -8 -3 -14.5t-3 -14.5q-16 -63 -36.5 -112t-44.5 -87q-4 -5 -7.5 -10.5t-6.5 -10.5l-2 -2q0 -1 -1 -2q-37 -49 -75.5 -77t-74.5 -42q-47 -19 -94.5 -21.5t-89.5 13t-75 49t-50.5 86t-16.5 124.5t27 164q31 111 69.5 187t78.5 125t79.5 75t72.5 38q2 5 31 8
q15 3 27.5 4t21.5 1q11 0 19 -2l1 -1q60 -5 90 -33.5t38 -69.5q21 -21 34 -55q12 -31 14 -75t-1.5 -90t-10 -87.5t-11.5 -66.5v-1zM213 476q-24 -83 -35.5 -159.5t-8.5 -138t20.5 -104t52.5 -58.5q6 -2 11.5 -3t10.5 -2q15 -1 34 2t41 14.5t44.5 34t44.5 59.5t42 91t36 130
q23 140 19 219q-14 -14 -31 -19t-31 -6q-17 -1 -34 2q20 33 30.5 58.5t14.5 44.5t2 32t-7 21q-12 19 -40 21q-12 0 -36.5 -2t-55.5 -23t-63.5 -70.5t-60.5 -143.5zM393 908q18 0 31 -13t13 -31t-13 -31t-31 -13t-31 13t-13 31t13 31t31 13zM499 908q18 0 31 -13t13 -31
t-13 -31t-31 -13t-31 13t-13 31t13 31t31 13z" />
    <glyph glyph-name="Ugrave" unicode="&#xd9;" horiz-adv-x="876" 
d="M776 181q-11 -68 -9 -106.5t11.5 -57t24 -21t28 2t22.5 11l9 6.5q-10 -38 -27 -58t-34 -29q-20 -11 -43 -11q-41 -11 -70 8q-12 8 -23 24t-18 43t-8.5 66.5t5.5 95.5q2 14 3.5 28.5t3.5 28.5q-14 -41 -40 -92t-61 -95.5t-77 -75t-87 -30.5q-39 0 -61.5 19t-34 49.5
t-13.5 68.5t0.5 75.5t7.5 70.5t8 54h1q5 32 9.5 61.5t9.5 55.5l7 38.5t12 63.5t15 78t16 81t14.5 72.5t10.5 53.5q-56 -12 -98 -45.5t-72 -80t-48 -102t-25 -112t-3.5 -110t17 -96t36 -69.5t53.5 -31q-73 -21 -128 -10q-24 5 -46.5 17t-39.5 35.5t-26.5 60t-7.5 89.5
q1 19 8.5 63t26.5 98t51 112t82 106t119 78.5t163 30.5h46.5t41.5 -3l-2 -8q1 -1 2 -1q-4 -10 -12 -44.5t-18.5 -81t-21.5 -99.5t-21.5 -100.5t-18 -83t-9.5 -47.5q-12 -54 -21 -108t-16 -102q-2 -12 -3.5 -36.5t-1 -49t6 -43t18.5 -18.5q24 0 56.5 30t67.5 83t69.5 124.5
t62.5 154.5q10 57 21 113t20 105t16 88.5t10 63.5q28 10 63 11t82 -11q-15 -67 -30.5 -139t-30.5 -143.5t-28 -139.5t-23 -128zM655 782l-7 13t-19 34t-29.5 48.5t-39.5 57.5q3 8 10 15q6 5 17.5 10t30.5 5l119 -147q-5 -14 -18.5 -21.5t-27.5 -10.5q-17 -4 -36 -4z" />
    <glyph glyph-name="Uacute" unicode="&#xda;" horiz-adv-x="876" 
d="M776 181q-11 -68 -9 -106.5t11.5 -57t24 -21t28 2t22.5 11l9 6.5q-10 -38 -27 -58t-34 -29q-20 -11 -43 -11q-41 -11 -70 8q-12 8 -23 24t-18 43t-8.5 66.5t5.5 95.5q2 14 3.5 28.5t3.5 28.5q-14 -41 -40 -92t-61 -95.5t-77 -75t-87 -30.5q-39 0 -61.5 19t-34 49.5
t-13.5 68.5t0.5 75.5t7.5 70.5t8 54h1q5 32 9.5 61.5t9.5 55.5l7 38.5t12 63.5t15 78t16 81t14.5 72.5t10.5 53.5q-56 -12 -98 -45.5t-72 -80t-48 -102t-25 -112t-3.5 -110t17 -96t36 -69.5t53.5 -31q-73 -21 -128 -10q-24 5 -46.5 17t-39.5 35.5t-26.5 60t-7.5 89.5
q1 19 8.5 63t26.5 98t51 112t82 106t119 78.5t163 30.5h46.5t41.5 -3l-2 -8q1 -1 2 -1q-4 -10 -12 -44.5t-18.5 -81t-21.5 -99.5t-21.5 -100.5t-18 -83t-9.5 -47.5q-12 -54 -21 -108t-16 -102q-2 -12 -3.5 -36.5t-1 -49t6 -43t18.5 -18.5q24 0 56.5 30t67.5 83t69.5 124.5
t62.5 154.5q10 57 21 113t20 105t16 88.5t10 63.5q28 10 63 11t82 -11q-15 -67 -30.5 -139t-30.5 -143.5t-28 -139.5t-23 -128zM602 813l9.5 11t25 29.5t35.5 44.5t41 57q9 -1 18 -5q8 -4 15.5 -13.5t14.5 -26.5l-97 -162q-15 0 -26.5 10t-19.5 22q-10 14 -16 33z" />
    <glyph glyph-name="Ucircumflex" unicode="&#xdb;" horiz-adv-x="876" 
d="M776 181q-11 -68 -9 -106.5t11.5 -57t24 -21t28 2t22.5 11l9 6.5q-10 -38 -27 -58t-34 -29q-20 -11 -43 -11q-41 -11 -70 8q-12 8 -23 24t-18 43t-8.5 66.5t5.5 95.5q2 14 3.5 28.5t3.5 28.5q-14 -41 -40 -92t-61 -95.5t-77 -75t-87 -30.5q-39 0 -61.5 19t-34 49.5
t-13.5 68.5t0.5 75.5t7.5 70.5t8 54h1q5 32 9.5 61.5t9.5 55.5l7 38.5t12 63.5t15 78t16 81t14.5 72.5t10.5 53.5q-56 -12 -98 -45.5t-72 -80t-48 -102t-25 -112t-3.5 -110t17 -96t36 -69.5t53.5 -31q-73 -21 -128 -10q-24 5 -46.5 17t-39.5 35.5t-26.5 60t-7.5 89.5
q1 19 8.5 63t26.5 98t51 112t82 106t119 78.5t163 30.5h46.5t41.5 -3l-2 -8q1 -1 2 -1q-4 -10 -12 -44.5t-18.5 -81t-21.5 -99.5t-21.5 -100.5t-18 -83t-9.5 -47.5q-12 -54 -21 -108t-16 -102q-2 -12 -3.5 -36.5t-1 -49t6 -43t18.5 -18.5q24 0 56.5 30t67.5 83t69.5 124.5
t62.5 154.5q10 57 21 113t20 105t16 88.5t10 63.5q28 10 63 11t82 -11q-15 -67 -30.5 -139t-30.5 -143.5t-28 -139.5t-23 -128zM724 892v-18q0 -8 1 -19.5t3.5 -23t7 -21.5t12.5 -14q-6 -8 -15 -14.5t-20 -6.5q-10 0 -16 8t-9.5 19t-4.5 22.5t-1 19.5v14q-6 -7 -14.5 -17.5
t-16 -22.5t-13 -24t-5.5 -21v-4q-18 0 -33 2t-15 14q0 10 11.5 30t28.5 40.5t36 38t34 23.5z" />
    <glyph glyph-name="Udieresis" unicode="&#xdc;" horiz-adv-x="876" 
d="M776 181q-11 -68 -9 -106.5t11.5 -57t24 -21t28 2t22.5 11l9 6.5q-10 -38 -27 -58t-34 -29q-20 -11 -43 -11q-41 -11 -70 8q-12 8 -23 24t-18 43t-8.5 66.5t5.5 95.5q2 14 3.5 28.5t3.5 28.5q-14 -41 -40 -92t-61 -95.5t-77 -75t-87 -30.5q-39 0 -61.5 19t-34 49.5
t-13.5 68.5t0.5 75.5t7.5 70.5t8 54h1q5 32 9.5 61.5t9.5 55.5l7 38.5t12 63.5t15 78t16 81t14.5 72.5t10.5 53.5q-56 -12 -98 -45.5t-72 -80t-48 -102t-25 -112t-3.5 -110t17 -96t36 -69.5t53.5 -31q-73 -21 -128 -10q-24 5 -46.5 17t-39.5 35.5t-26.5 60t-7.5 89.5
q1 19 8.5 63t26.5 98t51 112t82 106t119 78.5t163 30.5h46.5t41.5 -3l-2 -8q1 -1 2 -1q-4 -10 -12 -44.5t-18.5 -81t-21.5 -99.5t-21.5 -100.5t-18 -83t-9.5 -47.5q-12 -54 -21 -108t-16 -102q-2 -12 -3.5 -36.5t-1 -49t6 -43t18.5 -18.5q24 0 56.5 30t67.5 83t69.5 124.5
t62.5 154.5q10 57 21 113t20 105t16 88.5t10 63.5q28 10 63 11t82 -11q-15 -67 -30.5 -139t-30.5 -143.5t-28 -139.5t-23 -128zM623 874q18 0 31 -13t13 -31t-13 -31t-31 -13t-31 13t-13 31t13 31t31 13zM729 874q18 0 31 -13t13 -31t-13 -31t-31 -13t-31 13t-13 31t13 31
t31 13z" />
    <glyph glyph-name="Yacute" unicode="&#xdd;" horiz-adv-x="841" 
d="M880 733q-5 -16 -13.5 -56t-19.5 -93t-22.5 -112.5t-22 -113.5t-18.5 -96t-11 -60l-6 -33q0 -1 -4.5 -30.5t-15.5 -73t-30 -94t-48.5 -94t-71 -72.5t-97.5 -29t-88 14t-46 34.5t-12.5 44.5t12.5 43t28.5 29.5t36.5 5.5q-12 -34 -13 -60q-1 -23 10 -41t45 -18q33 0 59 29
t45 74t32.5 100.5t22.5 108.5q2 17 5 34t6 33q4 25 12 72t18 104q-19 -38 -44 -75t-54.5 -66.5t-62.5 -48t-68 -18.5q-39 0 -61.5 19t-34 49.5t-13.5 68t0.5 75t7.5 71t9 54.5q5 31 10 60.5t9 55.5q2 14 9 50t16 83q-57 -10 -100.5 -42.5t-74.5 -78.5t-49.5 -102t-26 -113
t-4 -111.5t17 -97.5t36 -70.5t53.5 -31.5q-73 -21 -128 -10q-24 5 -46.5 17t-39.5 35.5t-26.5 60t-7.5 89.5q1 19 8.5 63t26.5 98t51 112t82 106t119 78.5t163 30.5h46.5t41.5 -3h2q-8 -36 -15.5 -70t-13.5 -62.5t-10 -48.5t-6 -29q-12 -54 -21 -108t-16 -102
q-2 -12 -3.5 -36.5t-1 -49t6 -43t18.5 -18.5q20 0 47 22t56 61.5t59.5 93.5t57.5 119q7 42 14 79.5t12 66.5q6 33 11 63q23 9 48 11t47 0q26 -2 50 -7zM593 794l9.5 11t25 29.5t35.5 44.5t41 57q9 -1 18 -5q8 -4 15.5 -13.5t14.5 -26.5l-97 -162q-15 0 -26.5 10t-19.5 22
q-10 14 -16 33z" />
    <glyph glyph-name="agrave" unicode="&#xe0;" horiz-adv-x="512" 
d="M533 190q-14 -42 -26.5 -88t-30.5 -84.5t-46.5 -63.5t-73.5 -25q-31 0 -51.5 12.5t-33 34t-18.5 49t-7 57.5q-10 -30 -22 -58t-28.5 -49t-39.5 -33.5t-54 -12.5t-51.5 14t-33.5 36.5t-18.5 52t-6.5 59.5q-3 71 15 162q13 68 39 119.5t60 83.5t75 42.5t85 -2.5
q19 -6 32 -25q24 8 49.5 9.5t46.5 -0.5q25 -3 49 -9q-13 -38 -24 -82t-20 -89t-16 -90t-13 -85q-2 -12 -3.5 -36.5t-1 -49t6 -43t18.5 -18.5q24 0 41 21.5t31 54.5t26 73.5t24 78.5zM136 -22q22 0 38.5 19t30 49t24.5 67t23 73q2 24 5.5 45t5.5 35h1q8 47 15 89.5t12 71.5
q-5 12 -16.5 20t-32.5 8q-23 0 -41.5 -20.5t-32 -52t-23 -69.5t-15.5 -74t-9 -65t-4 -42h-1q-1 -6 -3.5 -31t-2 -52.5t5.5 -49t20 -21.5zM297 549l-7 13t-19 34t-29.5 48.5t-39.5 57.5q3 8 10 15q6 5 17.5 10t30.5 5l119 -147q-5 -14 -18.5 -21.5t-27.5 -10.5q-17 -4 -36 -4
z" />
    <glyph glyph-name="aacute" unicode="&#xe1;" horiz-adv-x="512" 
d="M533 190q-14 -42 -26.5 -88t-30.5 -84.5t-46.5 -63.5t-73.5 -25q-31 0 -51.5 12.5t-33 34t-18.5 49t-7 57.5q-10 -30 -22 -58t-28.5 -49t-39.5 -33.5t-54 -12.5t-51.5 14t-33.5 36.5t-18.5 52t-6.5 59.5q-3 71 15 162q13 68 39 119.5t60 83.5t75 42.5t85 -2.5
q19 -6 32 -25q24 8 49.5 9.5t46.5 -0.5q25 -3 49 -9q-13 -38 -24 -82t-20 -89t-16 -90t-13 -85q-2 -12 -3.5 -36.5t-1 -49t6 -43t18.5 -18.5q24 0 41 21.5t31 54.5t26 73.5t24 78.5zM136 -22q22 0 38.5 19t30 49t24.5 67t23 73q2 24 5.5 45t5.5 35h1q8 47 15 89.5t12 71.5
q-5 12 -16.5 20t-32.5 8q-23 0 -41.5 -20.5t-32 -52t-23 -69.5t-15.5 -74t-9 -65t-4 -42h-1q-1 -6 -3.5 -31t-2 -52.5t5.5 -49t20 -21.5zM248 599l9.5 11t25 29.5t35.5 44.5t41 57q9 -1 18 -5q8 -4 15.5 -13.5t14.5 -26.5l-97 -162q-15 0 -26.5 10t-19.5 22q-10 14 -16 33z
" />
    <glyph glyph-name="acircumflex" unicode="&#xe2;" horiz-adv-x="512" 
d="M533 190q-14 -42 -26.5 -88t-30.5 -84.5t-46.5 -63.5t-73.5 -25q-31 0 -51.5 12.5t-33 34t-18.5 49t-7 57.5q-10 -30 -22 -58t-28.5 -49t-39.5 -33.5t-54 -12.5t-51.5 14t-33.5 36.5t-18.5 52t-6.5 59.5q-3 71 15 162q13 68 39 119.5t60 83.5t75 42.5t85 -2.5
q19 -6 32 -25q24 8 49.5 9.5t46.5 -0.5q25 -3 49 -9q-13 -38 -24 -82t-20 -89t-16 -90t-13 -85q-2 -12 -3.5 -36.5t-1 -49t6 -43t18.5 -18.5q24 0 41 21.5t31 54.5t26 73.5t24 78.5zM136 -22q22 0 38.5 19t30 49t24.5 67t23 73q2 24 5.5 45t5.5 35h1q8 47 15 89.5t12 71.5
q-5 12 -16.5 20t-32.5 8q-23 0 -41.5 -20.5t-32 -52t-23 -69.5t-15.5 -74t-9 -65t-4 -42h-1q-1 -6 -3.5 -31t-2 -52.5t5.5 -49t20 -21.5zM375 672v-18q0 -8 1 -19.5t3.5 -23t7 -21.5t12.5 -14q-6 -8 -15 -14.5t-20 -6.5q-10 0 -16 8t-9.5 19t-4.5 22.5t-1 19.5v14
q-6 -7 -14.5 -17.5t-16 -22.5t-13 -24t-5.5 -21v-4q-18 0 -33 2t-15 14q0 10 11.5 30t28.5 40.5t36 38t34 23.5z" />
    <glyph glyph-name="atilde" unicode="&#xe3;" horiz-adv-x="512" 
d="M533 190q-14 -42 -26.5 -88t-30.5 -84.5t-46.5 -63.5t-73.5 -25q-31 0 -51.5 12.5t-33 34t-18.5 49t-7 57.5q-10 -30 -22 -58t-28.5 -49t-39.5 -33.5t-54 -12.5t-51.5 14t-33.5 36.5t-18.5 52t-6.5 59.5q-3 71 15 162q13 68 39 119.5t60 83.5t75 42.5t85 -2.5
q19 -6 32 -25q24 8 49.5 9.5t46.5 -0.5q25 -3 49 -9q-13 -38 -24 -82t-20 -89t-16 -90t-13 -85q-2 -12 -3.5 -36.5t-1 -49t6 -43t18.5 -18.5q24 0 41 21.5t31 54.5t26 73.5t24 78.5zM136 -22q22 0 38.5 19t30 49t24.5 67t23 73q2 24 5.5 45t5.5 35h1q8 47 15 89.5t12 71.5
q-5 12 -16.5 20t-32.5 8q-23 0 -41.5 -20.5t-32 -52t-23 -69.5t-15.5 -74t-9 -65t-4 -42h-1q-1 -6 -3.5 -31t-2 -52.5t5.5 -49t20 -21.5zM230.492 574.057q-2.50781 23.0703 2.50781 41.1973q3.76172 14.8311 13.793 25.542q10.0312 10.7119 31.3477 2.47266
q20.0625 -8.24023 43.8867 -15.6553q23.8242 -7.41602 47.0215 -11.5352q23.1973 -4.12012 43.2598 -1.64844q20.0625 2.47266 35.1094 15.6553q0 -1.64746 1.25391 -14.8311q1.25391 -13.1826 -3.76172 -27.1904q-5.01562 -14.0068 -19.4355 -23.0703t-45.7676 -4.11914
q-31.3477 4.94336 -55.7988 13.1826t-42.6328 12.3594t-30.7207 2.47168q-12.5391 -1.64746 -20.0625 -14.8311z" />
    <glyph glyph-name="adieresis" unicode="&#xe4;" horiz-adv-x="512" 
d="M533 190q-14 -42 -26.5 -88t-30.5 -84.5t-46.5 -63.5t-73.5 -25q-31 0 -51.5 12.5t-33 34t-18.5 49t-7 57.5q-10 -30 -22 -58t-28.5 -49t-39.5 -33.5t-54 -12.5t-51.5 14t-33.5 36.5t-18.5 52t-6.5 59.5q-3 71 15 162q13 68 39 119.5t60 83.5t75 42.5t85 -2.5
q19 -6 32 -25q24 8 49.5 9.5t46.5 -0.5q25 -3 49 -9q-13 -38 -24 -82t-20 -89t-16 -90t-13 -85q-2 -12 -3.5 -36.5t-1 -49t6 -43t18.5 -18.5q24 0 41 21.5t31 54.5t26 73.5t24 78.5zM136 -22q22 0 38.5 19t30 49t24.5 67t23 73q2 24 5.5 45t5.5 35h1q8 47 15 89.5t12 71.5
q-5 12 -16.5 20t-32.5 8q-23 0 -41.5 -20.5t-32 -52t-23 -69.5t-15.5 -74t-9 -65t-4 -42h-1q-1 -6 -3.5 -31t-2 -52.5t5.5 -49t20 -21.5zM276 645q18 0 31 -13t13 -31t-13 -31t-31 -13t-31 13t-13 31t13 31t31 13zM382 645q18 0 31 -13t13 -31t-13 -31t-31 -13t-31 13
t-13 31t13 31t31 13z" />
    <glyph glyph-name="aring" unicode="&#xe5;" horiz-adv-x="512" 
d="M389.547 611.344q-3.32422 -13.2793 -6.64941 -24.0693q-3.32422 -10.79 -11.6357 -20.75q-4.9873 -6.63965 -15.793 -14.9395q-10.8047 -8.2998 -20.7793 -9.95996q-24.9355 -6.63965 -44.0527 11.6201t-5.81836 64.7393q13.2988 43.1592 29.9229 59.7588
t31.585 19.9189h9.97363h4.9873q19.9482 0 23.2734 -18.2588q4.98633 -4.98047 6.64844 -9.95996q3.3252 -11.6201 1.66309 -30.71q-1.66309 -19.0898 -3.3252 -27.3896zM321.391 641.224q-8.31152 -31.54 -7.48047 -54.7793t14.1299 -29.8799h3.3252
q8.31152 0 18.2852 10.79q9.97461 10.79 18.2861 48.9697q4.9873 21.5791 4.9873 36.5195q-3.3252 -1.66016 -4.9873 -0.830078t-3.3252 0.830078h-3.32422q8.31152 11.6191 8.31152 18.2598q0 6.63965 -1.66211 9.95898q-3.3252 3.32031 -6.64941 3.32031t-15.792 -4.97949
q-12.4678 -4.98047 -24.1045 -38.1797zM533 190q-14 -42 -26.5 -88t-30.5 -84.5t-46.5 -63.5t-73.5 -25q-31 0 -51.5 12.5t-33 34t-18.5 49t-7 57.5q-10 -30 -22 -58t-28.5 -49t-39.5 -33.5t-54 -12.5t-51.5 14t-33.5 36.5t-18.5 52t-6.5 59.5q-3 71 15 162q13 68 39 119.5
t60 83.5t75 42.5t85 -2.5q19 -6 32 -25q24 8 49.5 9.5t46.5 -0.5q25 -3 49 -9q-13 -38 -24 -82t-20 -89t-16 -90t-13 -85q-2 -12 -3.5 -36.5t-1 -49t6 -43t18.5 -18.5q24 0 41 21.5t31 54.5t26 73.5t24 78.5zM136 -22q22 0 38.5 19t30 49t24.5 67t23 73q2 24 5.5 45t5.5 35
h1q8 47 15 89.5t12 71.5q-5 12 -16.5 20t-32.5 8q-23 0 -41.5 -20.5t-32 -52t-23 -69.5t-15.5 -74t-9 -65t-4 -42h-1q-1 -6 -3.5 -31t-2 -52.5t5.5 -49t20 -21.5z" />
    <glyph glyph-name="ccedilla" unicode="&#xe7;" horiz-adv-x="415" 
d="M436 190q-23 -88 -61 -139.5t-79 -78.5t-79.5 -35t-61.5 -9q-42 -3 -79 12t-61 50.5t-29.5 92t17.5 135.5q22 77 49.5 129t56.5 85t57 49.5t52 23.5q4 2 10 2q12 3 21.5 3.5t17.5 0.5t15 -1q29 -2 47.5 -13.5t28.5 -28.5t11.5 -38t-4.5 -42q-6 -23 -19 -33t-27 -13
q-16 -4 -35 -1q27 45 30.5 69t-3.5 35q-8 12 -27 14q-8 0 -24.5 -1t-37.5 -15.5t-43 -47.5t-40 -96q-16 -54 -23.5 -104t-6 -90.5t12.5 -69.5t32 -41q37 -9 67.5 -5t56 17t45.5 33t35 42q36 52 57 125l21 -16v0zM163 -50l-30 -38q20 -7 31 -18q10 -10 14 -26t-10 -42
t-42.5 -34.5t-56.5 -8.5q-33 0 -71 9l22 38q31 -6 57 -5q22 0 42 6.5t25 25.5q5 18 -2.5 26.5t-18.5 10.5q-12 3 -30 1l38 63z" />
    <glyph glyph-name="egrave" unicode="&#xe8;" horiz-adv-x="416" 
d="M436 190q-15 -58 -37 -100.5t-48.5 -71t-54.5 -46.5t-54 -27.5t-48.5 -13t-37.5 -3.5q-42 -3 -79.5 12t-61.5 50.5t-29.5 92t17.5 135.5q22 77 49.5 129t56.5 85t57.5 49.5t51.5 23.5q6 2 10 2q12 3 21.5 3.5t17.5 0.5t15 -1q29 -2 47.5 -13.5t28.5 -28.5t11.5 -38
t-3.5 -42q-2 -4 -2.5 -7t-2.5 -6q-2 -4 -2 -5q-30 -59 -66.5 -95t-71 -56t-63.5 -27.5t-44 -8.5q-9 -70 0 -120.5t41 -68.5q37 -9 67.5 -5t56 17t45.5 33t35 42q36 52 57 125zM284 459q-8 0 -24.5 -1t-37 -15.5t-42.5 -47.5t-40 -96q-6 -20 -10.5 -39t-8.5 -37
q55 15 92 46.5t59.5 63.5t32.5 56t11 26q2 17 -2.5 26t-11.5 13q-8 4 -18 5zM278 548l-7 13t-19 34t-29.5 48.5t-39.5 57.5q3 8 10 15q6 5 17.5 10t30.5 5l119 -147q-5 -14 -18.5 -21.5t-27.5 -10.5q-17 -4 -36 -4z" />
    <glyph glyph-name="eacute" unicode="&#xe9;" horiz-adv-x="416" 
d="M436 190q-15 -58 -37 -100.5t-48.5 -71t-54.5 -46.5t-54 -27.5t-48.5 -13t-37.5 -3.5q-42 -3 -79.5 12t-61.5 50.5t-29.5 92t17.5 135.5q22 77 49.5 129t56.5 85t57.5 49.5t51.5 23.5q6 2 10 2q12 3 21.5 3.5t17.5 0.5t15 -1q29 -2 47.5 -13.5t28.5 -28.5t11.5 -38
t-3.5 -42q-2 -4 -2.5 -7t-2.5 -6q-2 -4 -2 -5q-30 -59 -66.5 -95t-71 -56t-63.5 -27.5t-44 -8.5q-9 -70 0 -120.5t41 -68.5q37 -9 67.5 -5t56 17t45.5 33t35 42q36 52 57 125zM284 459q-8 0 -24.5 -1t-37 -15.5t-42.5 -47.5t-40 -96q-6 -20 -10.5 -39t-8.5 -37
q55 15 92 46.5t59.5 63.5t32.5 56t11 26q2 17 -2.5 26t-11.5 13q-8 4 -18 5zM218 595l9.5 11t25 29.5t35.5 44.5t41 57q9 -1 18 -5q8 -4 15.5 -13.5t14.5 -26.5l-97 -162q-15 0 -26.5 10t-19.5 22q-10 14 -16 33z" />
    <glyph glyph-name="ecircumflex" unicode="&#xea;" horiz-adv-x="416" 
d="M436 190q-15 -58 -37 -100.5t-48.5 -71t-54.5 -46.5t-54 -27.5t-48.5 -13t-37.5 -3.5q-42 -3 -79.5 12t-61.5 50.5t-29.5 92t17.5 135.5q22 77 49.5 129t56.5 85t57.5 49.5t51.5 23.5q6 2 10 2q12 3 21.5 3.5t17.5 0.5t15 -1q29 -2 47.5 -13.5t28.5 -28.5t11.5 -38
t-3.5 -42q-2 -4 -2.5 -7t-2.5 -6q-2 -4 -2 -5q-30 -59 -66.5 -95t-71 -56t-63.5 -27.5t-44 -8.5q-9 -70 0 -120.5t41 -68.5q37 -9 67.5 -5t56 17t45.5 33t35 42q36 52 57 125zM284 459q-8 0 -24.5 -1t-37 -15.5t-42.5 -47.5t-40 -96q-6 -20 -10.5 -39t-8.5 -37
q55 15 92 46.5t59.5 63.5t32.5 56t11 26q2 17 -2.5 26t-11.5 13q-8 4 -18 5zM341 681v-18q0 -8 1 -19.5t3.5 -23t7 -21.5t12.5 -14q-6 -8 -15 -14.5t-20 -6.5q-10 0 -16 8t-9.5 19t-4.5 22.5t-1 19.5v14q-6 -7 -14.5 -17.5t-16 -22.5t-13 -24t-5.5 -21v-4q-18 0 -33 2
t-15 14q0 10 11.5 30t28.5 40.5t36 38t34 23.5z" />
    <glyph glyph-name="edieresis" unicode="&#xeb;" horiz-adv-x="416" 
d="M436 190q-15 -58 -37 -100.5t-48.5 -71t-54.5 -46.5t-54 -27.5t-48.5 -13t-37.5 -3.5q-42 -3 -79.5 12t-61.5 50.5t-29.5 92t17.5 135.5q22 77 49.5 129t56.5 85t57.5 49.5t51.5 23.5q6 2 10 2q12 3 21.5 3.5t17.5 0.5t15 -1q29 -2 47.5 -13.5t28.5 -28.5t11.5 -38
t-3.5 -42q-2 -4 -2.5 -7t-2.5 -6q-2 -4 -2 -5q-30 -59 -66.5 -95t-71 -56t-63.5 -27.5t-44 -8.5q-9 -70 0 -120.5t41 -68.5q37 -9 67.5 -5t56 17t45.5 33t35 42q36 52 57 125zM284 459q-8 0 -24.5 -1t-37 -15.5t-42.5 -47.5t-40 -96q-6 -20 -10.5 -39t-8.5 -37
q55 15 92 46.5t59.5 63.5t32.5 56t11 26q2 17 -2.5 26t-11.5 13q-8 4 -18 5zM244 648q18 0 31 -13t13 -31t-13 -31t-31 -13t-31 13t-13 31t13 31t31 13zM350 648q18 0 31 -13t13 -31t-13 -31t-31 -13t-31 13t-13 31t13 31t31 13z" />
    <glyph glyph-name="igrave" unicode="&#xec;" horiz-adv-x="252" 
d="M252 206q-12 -38 -23.5 -78.5t-25.5 -73.5t-31.5 -54.5t-41.5 -21.5q-13 0 -18.5 18.5t-6 43t1 49t3.5 36.5q6 40 13 85t16 90t20 89t24 82q-24 6 -49 9q-21 2 -46.5 0.5t-49.5 -9.5q-18 -108 -33 -206.5t-14 -173t24 -118.5t81 -44q45 0 73.5 25t46.5 63.5t30.5 84.5
t26.5 88zM139 526l-7 13t-19 34t-29.5 48.5t-39.5 57.5q3 8 10 15q6 5 17.5 10t30.5 5l119 -147q-5 -14 -18.5 -21.5t-27.5 -10.5q-17 -4 -36 -4z" />
    <glyph glyph-name="iacute" unicode="&#xed;" horiz-adv-x="252" 
d="M252 206q-12 -38 -23.5 -78.5t-25.5 -73.5t-31.5 -54.5t-41.5 -21.5q-13 0 -18.5 18.5t-6 43t1 49t3.5 36.5q6 40 13 85t16 90t20 89t24 82q-24 6 -49 9q-21 2 -46.5 0.5t-49.5 -9.5q-18 -108 -33 -206.5t-14 -173t24 -118.5t81 -44q45 0 73.5 25t46.5 63.5t30.5 84.5
t26.5 88zM43 576l9.5 11t25 29.5t35.5 44.5t41 57q9 -1 18 -5q8 -4 15.5 -13.5t14.5 -26.5l-97 -162q-15 0 -26.5 10t-19.5 22q-10 14 -16 33z" />
    <glyph glyph-name="idieresis" unicode="&#xef;" horiz-adv-x="252" 
d="M273 190q-14 -42 -26.5 -88t-30.5 -84.5t-46.5 -63.5t-73.5 -25q-58 0 -81 44t-24 118.5t14 173t33 206.5q24 8 49.5 9.5t46.5 -0.5q25 -3 49 -9q-13 -38 -24 -82t-20 -89t-16 -90t-13 -85q-2 -12 -3.5 -36.5t-1 -49t6 -43t18.5 -18.5q24 0 41.5 21.5t31.5 54.5
t25.5 73.5t23.5 78.5zM73 643q18 0 31 -13t13 -31t-13 -31t-31 -13t-31 13t-13 31t13 31t31 13zM179 643q18 0 31 -13t13 -31t-13 -31t-31 -13t-31 13t-13 31t13 31t31 13z" />
    <glyph glyph-name="icircumflex" unicode="&#xee;" horiz-adv-x="252" 
d="M252 206q-12 -38 -23.5 -78.5t-25.5 -73.5t-31.5 -54.5t-41.5 -21.5q-13 0 -18.5 18.5t-6 43t1 49t3.5 36.5q6 40 13 85t16 90t20 89t24 82q-24 6 -49 9q-21 2 -46.5 0.5t-49.5 -9.5q-18 -108 -33 -206.5t-14 -173t24 -118.5t81 -44q45 0 73.5 25t46.5 63.5t30.5 84.5
t26.5 88zM183 656v-18q0 -8 1 -19.5t3.5 -23t7 -21.5t12.5 -14q-6 -8 -15 -14.5t-20 -6.5q-10 0 -16 8t-9.5 19t-4.5 22.5t-1 19.5v14q-6 -7 -14.5 -17.5t-16 -22.5t-13 -24t-5.5 -21v-4q-18 0 -33 2t-15 14q0 10 11.5 30t28.5 40.5t36 38t34 23.5z" />
    <glyph glyph-name="ntilde" unicode="&#xf1;" horiz-adv-x="475" 
d="M495 190q-14 -42 -26 -88t-30.5 -84.5t-47 -63.5t-73.5 -25q-39 0 -61.5 19t-34 49.5t-13.5 68.5t0.5 75.5t7.5 70.5t9 54q4 22 7 43t7 41l-1 -1l4 34q2 13 2 24.5t-3 13.5q-3 1 -16 -19.5t-31 -55.5t-37.5 -80.5t-33.5 -92.5q-8 -50 -13 -94t-9 -77q-4 -39 -7 -72
q-54 0 -81.5 5t-38 17t-9.5 31.5t4 49.5q1 9 5 33t9 56.5t11.5 71t13.5 77.5q15 91 34 200q23 9 48 10t47 -1q26 -3 51 -9q-14 -39 -25 -85t-20 -94q10 26 23 53t28 51t31 43.5t34 31.5q24 9 48.5 9t43.5 -8.5t29 -25t5 -41.5q-14 -69 -29.5 -142t-24.5 -138
q-2 -12 -3.5 -36.5t-1 -49t6 -43t18.5 -18.5q24 0 41.5 21.5t31.5 54.5t26 73.5t24 78.5zM103.684 557.023q-3.31543 23.2686 3.31641 41.5498q4.97363 14.958 18.2383 25.7607q13.2637 10.8037 41.4502 2.49316q26.5283 -8.30957 58.0312 -15.7891
q31.502 -7.47852 62.1758 -11.6338q30.6729 -4.1543 57.2012 -1.66211q26.5283 2.49316 46.4248 15.7891q0 -1.66211 1.6582 -14.958t-4.97461 -27.4229q-6.63184 -14.127 -25.6992 -23.2676t-60.5176 -4.1543q-41.4502 4.98535 -73.7822 13.2949
q-32.3311 8.31055 -56.3721 12.4658q-24.041 4.1543 -40.6221 2.49219q-16.5801 -1.66113 -26.5283 -14.958z" />
    <glyph glyph-name="ograve" unicode="&#xf2;" horiz-adv-x="423" 
d="M385 190q-12 -50 -26 -87.5t-40 -77.5q-8 -12 -23 -26.5t-33 -28t-38 -23.5t-38 -14q-46 -12 -89.5 -1t-72.5 46t-37 94.5t16 145.5q22 80 50 132.5t58 85t60 48.5t57 23q12 3 21.5 3.5t17.5 0.5t15 -1q40 -3 60.5 -22.5t25.5 -46.5q6 -7 11.5 -16t10.5 -21
q8 -21 9.5 -50.5t-1 -60t-7 -58.5t-7.5 -45zM140 299q-16 -56 -23.5 -106.5t-6 -91.5t13.5 -69.5t35 -39.5q9 -3 17 -3q12 0 29 8t35 31.5t36 67t33 114.5q8 42 12.5 75t6.5 59q-8 -3 -15.5 -4t-13.5 -1q-7 0 -14 2q27 45 30.5 69t-3.5 35q-8 12 -27 14q-8 0 -24.5 -1
t-37.5 -15.5t-43 -47.5t-40 -96zM294 531l-7 13t-19 34t-29.5 48.5t-39.5 57.5q3 8 10 15q6 5 17.5 10t30.5 5l119 -147q-5 -14 -18.5 -21.5t-27.5 -10.5q-17 -4 -36 -4z" />
    <glyph glyph-name="oacute" unicode="&#xf3;" horiz-adv-x="423" 
d="M385 190q-12 -50 -26 -87.5t-40 -77.5q-8 -12 -23 -26.5t-33 -28t-38 -23.5t-38 -14q-46 -12 -89.5 -1t-72.5 46t-37 94.5t16 145.5q22 80 50 132.5t58 85t60 48.5t57 23q12 3 21.5 3.5t17.5 0.5t15 -1q40 -3 60.5 -22.5t25.5 -46.5q6 -7 11.5 -16t10.5 -21
q8 -21 9.5 -50.5t-1 -60t-7 -58.5t-7.5 -45zM140 299q-16 -56 -23.5 -106.5t-6 -91.5t13.5 -69.5t35 -39.5q9 -3 17 -3q12 0 29 8t35 31.5t36 67t33 114.5q8 42 12.5 75t6.5 59q-8 -3 -15.5 -4t-13.5 -1q-7 0 -14 2q27 45 30.5 69t-3.5 35q-8 12 -27 14q-8 0 -24.5 -1
t-37.5 -15.5t-43 -47.5t-40 -96zM194 587l9.5 11t25 29.5t35.5 44.5t41 57q9 -1 18 -5q8 -4 15.5 -13.5t14.5 -26.5l-97 -162q-15 0 -26.5 10t-19.5 22q-10 14 -16 33z" />
    <glyph glyph-name="ocircumflex" unicode="&#xf4;" horiz-adv-x="423" 
d="M385 190q-12 -50 -26 -87.5t-40 -77.5q-8 -12 -23 -26.5t-33 -28t-38 -23.5t-38 -14q-46 -12 -89.5 -1t-72.5 46t-37 94.5t16 145.5q22 80 50 132.5t58 85t60 48.5t57 23q12 3 21.5 3.5t17.5 0.5t15 -1q40 -3 60.5 -22.5t25.5 -46.5q6 -7 11.5 -16t10.5 -21
q8 -21 9.5 -50.5t-1 -60t-7 -58.5t-7.5 -45zM140 299q-16 -56 -23.5 -106.5t-6 -91.5t13.5 -69.5t35 -39.5q9 -3 17 -3q12 0 29 8t35 31.5t36 67t33 114.5q8 42 12.5 75t6.5 59q-8 -3 -15.5 -4t-13.5 -1q-7 0 -14 2q27 45 30.5 69t-3.5 35q-8 12 -27 14q-8 0 -24.5 -1
t-37.5 -15.5t-43 -47.5t-40 -96zM345 670v-18q0 -8 1 -19.5t3.5 -23t7 -21.5t12.5 -14q-6 -8 -15 -14.5t-20 -6.5q-10 0 -16 8t-9.5 19t-4.5 22.5t-1 19.5v14q-6 -7 -14.5 -17.5t-16 -22.5t-13 -24t-5.5 -21v-4q-18 0 -33 2t-15 14q0 10 11.5 30t28.5 40.5t36 38t34 23.5z
" />
    <glyph glyph-name="otilde" unicode="&#xf5;" horiz-adv-x="423" 
d="M385 190q-12 -50 -26 -87.5t-40 -77.5q-8 -12 -23 -26.5t-33 -28t-38 -23.5t-38 -14q-46 -12 -89.5 -1t-72.5 46t-37 94.5t16 145.5q22 80 50 132.5t58 85t60 48.5t57 23q12 3 21.5 3.5t17.5 0.5t15 -1q40 -3 60.5 -22.5t25.5 -46.5q6 -7 11.5 -16t10.5 -21
q8 -21 9.5 -50.5t-1 -60t-7 -58.5t-7.5 -45zM140 299q-16 -56 -23.5 -106.5t-6 -91.5t13.5 -69.5t35 -39.5q9 -3 17 -3q12 0 29 8t35 31.5t36 67t33 114.5q8 42 12.5 75t6.5 59q-8 -3 -15.5 -4t-13.5 -1q-7 0 -14 2q27 45 30.5 69t-3.5 35q-8 12 -27 14q-8 0 -24.5 -1
t-37.5 -15.5t-43 -47.5t-40 -96zM169.555 571.707q-2.44531 20.1123 2.44531 35.916q3.66797 12.9297 13.4502 22.2676t30.5693 2.15527q19.5645 -7.18359 42.7979 -13.6484q23.2324 -6.46484 45.8545 -10.0566q22.6211 -3.5918 42.1855 -1.43652t34.2373 13.6484
q0 -1.43652 1.22363 -12.9297q1.22266 -11.4932 -3.66895 -23.7051q-4.89062 -12.2109 -18.9531 -20.1133q-14.0615 -7.90137 -44.6309 -3.5918q-30.5693 4.31055 -54.4141 11.4941q-23.8438 7.18262 -41.5742 10.7744t-29.958 2.15527q-12.2285 -1.4375 -19.5645 -12.9297z
" />
    <glyph glyph-name="odieresis" unicode="&#xf6;" horiz-adv-x="423" 
d="M385 190q-12 -50 -26 -87.5t-40 -77.5q-8 -12 -23 -26.5t-33 -28t-38 -23.5t-38 -14q-46 -12 -89.5 -1t-72.5 46t-37 94.5t16 145.5q22 80 50 132.5t58 85t60 48.5t57 23q12 3 21.5 3.5t17.5 0.5t15 -1q40 -3 60.5 -22.5t25.5 -46.5q6 -7 11.5 -16t10.5 -21
q8 -21 9.5 -50.5t-1 -60t-7 -58.5t-7.5 -45zM140 299q-16 -56 -23.5 -106.5t-6 -91.5t13.5 -69.5t35 -39.5q9 -3 17 -3q12 0 29 8t35 31.5t36 67t33 114.5q8 42 12.5 75t6.5 59q-8 -3 -15.5 -4t-13.5 -1q-7 0 -14 2q27 45 30.5 69t-3.5 35q-8 12 -27 14q-8 0 -24.5 -1
t-37.5 -15.5t-43 -47.5t-40 -96zM256 626q18 0 31 -13t13 -31t-13 -31t-31 -13t-31 13t-13 31t13 31t31 13zM362 626q18 0 31 -13t13 -31t-13 -31t-31 -13t-31 13t-13 31t13 31t31 13z" />
    <glyph glyph-name="ugrave" unicode="&#xf9;" horiz-adv-x="515" 
d="M535 190q-14 -42 -26 -88t-30.5 -84.5t-47 -63.5t-73.5 -25q-32 0 -53 13.5t-33.5 36.5t-18 52.5t-5.5 61.5q-10 -32 -22 -62t-29 -52.5t-40.5 -36t-56.5 -13.5q-41 0 -64.5 20t-34 56t-10 86.5t8 110.5t19 128.5t23.5 140.5q24 8 49.5 9.5t46.5 -0.5q25 -3 49 -9
q-13 -38 -24 -82t-20 -89t-16 -90t-13 -85q-2 -12 -3.5 -36.5t-1 -49t6 -43t18.5 -18.5q24 0 41 21t31 54t26 73t24 78q1 9 3 21l6.5 39t12.5 75.5t22 131.5q24 8 49.5 9.5t46.5 -0.5q25 -3 49 -9q-13 -38 -24 -82t-20 -89t-16 -90t-13 -85q-2 -12 -3.5 -36.5t-1 -49t6 -43
t18.5 -18.5q24 0 41.5 21.5t31.5 54.5t26 73.5t24 78.5zM250 528l-7 13t-19 34t-29.5 48.5t-39.5 57.5q3 8 10 15q6 5 17.5 10t30.5 5l119 -147q-5 -14 -18.5 -21.5t-27.5 -10.5q-17 -4 -36 -4z" />
    <glyph glyph-name="uacute" unicode="&#xfa;" horiz-adv-x="515" 
d="M535 190q-14 -42 -26 -88t-30.5 -84.5t-47 -63.5t-73.5 -25q-32 0 -53 13.5t-33.5 36.5t-18 52.5t-5.5 61.5q-10 -32 -22 -62t-29 -52.5t-40.5 -36t-56.5 -13.5q-41 0 -64.5 20t-34 56t-10 86.5t8 110.5t19 128.5t23.5 140.5q24 8 49.5 9.5t46.5 -0.5q25 -3 49 -9
q-13 -38 -24 -82t-20 -89t-16 -90t-13 -85q-2 -12 -3.5 -36.5t-1 -49t6 -43t18.5 -18.5q24 0 41 21t31 54t26 73t24 78q1 9 3 21l6.5 39t12.5 75.5t22 131.5q24 8 49.5 9.5t46.5 -0.5q25 -3 49 -9q-13 -38 -24 -82t-20 -89t-16 -90t-13 -85q-2 -12 -3.5 -36.5t-1 -49t6 -43
t18.5 -18.5q24 0 41.5 21.5t31.5 54.5t26 73.5t24 78.5zM185 566l9.5 11t25 29.5t35.5 44.5t41 57q9 -1 18 -5q8 -4 15.5 -13.5t14.5 -26.5l-97 -162q-15 0 -26.5 10t-19.5 22q-10 14 -16 33z" />
    <glyph glyph-name="ucircumflex" unicode="&#xfb;" horiz-adv-x="515" 
d="M535 190q-14 -42 -26 -88t-30.5 -84.5t-47 -63.5t-73.5 -25q-32 0 -53 13.5t-33.5 36.5t-18 52.5t-5.5 61.5q-10 -32 -22 -62t-29 -52.5t-40.5 -36t-56.5 -13.5q-41 0 -64.5 20t-34 56t-10 86.5t8 110.5t19 128.5t23.5 140.5q24 8 49.5 9.5t46.5 -0.5q25 -3 49 -9
q-13 -38 -24 -82t-20 -89t-16 -90t-13 -85q-2 -12 -3.5 -36.5t-1 -49t6 -43t18.5 -18.5q24 0 41 21t31 54t26 73t24 78q1 9 3 21l6.5 39t12.5 75.5t22 131.5q24 8 49.5 9.5t46.5 -0.5q25 -3 49 -9q-13 -38 -24 -82t-20 -89t-16 -90t-13 -85q-2 -12 -3.5 -36.5t-1 -49t6 -43
t18.5 -18.5q24 0 41.5 21.5t31.5 54.5t26 73.5t24 78.5zM331 667v-18q0 -8 1 -19.5t3.5 -23t7 -21.5t12.5 -14q-6 -8 -15 -14.5t-20 -6.5q-10 0 -16 8t-9.5 19t-4.5 22.5t-1 19.5v14q-6 -7 -14.5 -17.5t-16 -22.5t-13 -24t-5.5 -21v-4q-18 0 -33 2t-15 14q0 10 11.5 30
t28.5 40.5t36 38t34 23.5z" />
    <glyph glyph-name="udieresis" unicode="&#xfc;" horiz-adv-x="515" 
d="M535 190q-14 -42 -26 -88t-30.5 -84.5t-47 -63.5t-73.5 -25q-32 0 -53 13.5t-33.5 36.5t-18 52.5t-5.5 61.5q-10 -32 -22 -62t-29 -52.5t-40.5 -36t-56.5 -13.5q-41 0 -64.5 20t-34 56t-10 86.5t8 110.5t19 128.5t23.5 140.5q24 8 49.5 9.5t46.5 -0.5q25 -3 49 -9
q-13 -38 -24 -82t-20 -89t-16 -90t-13 -85q-2 -12 -3.5 -36.5t-1 -49t6 -43t18.5 -18.5q24 0 41 21t31 54t26 73t24 78q1 9 3 21l6.5 39t12.5 75.5t22 131.5q24 8 49.5 9.5t46.5 -0.5q25 -3 49 -9q-13 -38 -24 -82t-20 -89t-16 -90t-13 -85q-2 -12 -3.5 -36.5t-1 -49t6 -43
t18.5 -18.5q24 0 41.5 21.5t31.5 54.5t26 73.5t24 78.5zM221 635q18 0 31 -13t13 -31t-13 -31t-31 -13t-31 13t-13 31t13 31t31 13zM327 635q18 0 31 -13t13 -31t-13 -31t-31 -13t-31 13t-13 31t13 31t31 13z" />
    <glyph glyph-name="yacute" unicode="&#xfd;" horiz-adv-x="460" 
d="M481 190q-12 -38 -23.5 -79t-26.5 -77.5t-37.5 -63.5t-56.5 -37q-3 -16 -6 -31.5t-6 -30.5q-10 -45 -23.5 -74.5t-28.5 -47t-30.5 -25t-28.5 -9.5q-34 -4 -55 7q-9 4 -16.5 12.5t-11 21.5t-1.5 32t12 46q13 34 33 55.5t42 34.5l3 19q5 28 8.5 55.5t7.5 55.5
q-9 -26 -21 -48.5t-28 -39.5t-37 -27t-49 -10q-38 0 -61 19t-34.5 49.5t-13.5 68.5t0.5 75.5t7.5 70.5t8 54l35 205q24 8 49.5 9.5t46.5 -0.5q25 -3 49 -9q-13 -38 -24 -82t-20 -89t-16 -90t-13 -85q-2 -12 -3.5 -36.5t-1 -49t6 -43t18.5 -18.5q24 0 41 21t31 54t26 73
t24 78q8 56 14 104.5t11 84.5q5 42 11 78q24 8 49.5 9.5t46.5 -0.5q25 -3 49 -9q-16 -44 -28 -102t-23 -123.5t-21 -135.5t-22 -137q8 5 14 9t10 7q4 4 8 7q14 14 25.5 37.5t21 52t19 60t18.5 60.5zM185 -164q-17 -36 -12.5 -52t14.5 -21q8 35 14 64.5t9 48.5
q-13 -16 -25 -40zM191 561l9.5 11t25 29.5t35.5 44.5t41 57q9 -1 18 -5q8 -4 15.5 -13.5t14.5 -26.5l-97 -162q-15 0 -26.5 10t-19.5 22q-10 14 -16 33z" />
    <glyph glyph-name="ydieresis" unicode="&#xff;" horiz-adv-x="460" 
d="M481 190q-12 -38 -23.5 -79t-26.5 -77.5t-37.5 -63.5t-56.5 -37q-3 -16 -6 -31.5t-6 -30.5q-10 -45 -23.5 -74.5t-28.5 -47t-30.5 -25t-28.5 -9.5q-34 -4 -55 7q-9 4 -16.5 12.5t-11 21.5t-1.5 32t12 46q13 34 33 55.5t42 34.5l3 19q5 28 8.5 55.5t7.5 55.5
q-9 -26 -21 -48.5t-28 -39.5t-37 -27t-49 -10q-38 0 -61 19t-34.5 49.5t-13.5 68.5t0.5 75.5t7.5 70.5t8 54l35 205q24 8 49.5 9.5t46.5 -0.5q25 -3 49 -9q-13 -38 -24 -82t-20 -89t-16 -90t-13 -85q-2 -12 -3.5 -36.5t-1 -49t6 -43t18.5 -18.5q24 0 41 21t31 54t26 73
t24 78q8 56 14 104.5t11 84.5q5 42 11 78q24 8 49.5 9.5t46.5 -0.5q25 -3 49 -9q-16 -44 -28 -102t-23 -123.5t-21 -135.5t-22 -137q8 5 14 9t10 7q4 4 8 7q14 14 25.5 37.5t21 52t19 60t18.5 60.5zM185 -164q-17 -36 -12.5 -52t14.5 -21q8 35 14 64.5t9 48.5
q-13 -16 -25 -40zM206 621q18 0 31 -13t13 -31t-13 -31t-31 -13t-31 13t-13 31t13 31t31 13zM312 621q18 0 31 -13t13 -31t-13 -31t-31 -13t-31 13t-13 31t13 31t31 13z" />
    <glyph glyph-name="questiondown" unicode="&#xbf;" horiz-adv-x="376" 
d="M-11 -37q2 -7 8 -18t17 -21.5t28.5 -18t42.5 -6t58.5 14.5t77.5 42q40 26 61.5 50.5t30 46.5t6.5 41.5t-11 35.5q-20 38 -72 68q17 -19 19 -45q2 -22 -11.5 -53t-56.5 -72q-29 -27 -54.5 -42t-48.5 -21q-34 -6 -47.5 6.5t-14.5 38.5q-1 20 17.5 48.5t47.5 62t63.5 71.5
t67 76t57.5 76t34 71q7 16 4 30q-2 12 -14.5 24t-43.5 18q-20 -49 -53 -101q-28 -45 -71 -99.5t-106 -106.5q-41 -35 -53 -70.5t-9.5 -66t13 -52.5t13.5 -28zM251 558q0 24 17 41.5t41 17.5q25 0 42 -17.5t17 -41.5t-17 -41.5t-42 -17.5q-24 0 -41 17.5t-17 41.5z" />
    <glyph glyph-name="germandbls" unicode="&#xdf;" horiz-adv-x="433" 
d="M449 467q-18 -68 -54 -105t-76 -54q24 -10 45 -34q18 -21 21.5 -54t1.5 -64q-3 -36 -12 -75l-2 -2q-21 -55 -53 -84.5t-67 -41.5t-69.5 -11t-60.5 7v1q-1 6 0 11t3.5 9t10.5 8q30 2 50.5 18t34.5 36q16 23 26 51h2q4 14 7.5 28.5t6.5 31.5q7 40 -1 67t-24 44t-35 25.5
t-33 11.5q-5 1 -9.5 1.5t-6.5 0.5q-5 -23 -8.5 -40t-5.5 -28q-12 -58 -20.5 -112t-13.5 -97q-6 -50 -10 -95q-54 0 -81.5 4.5t-38 15.5t-9.5 29t4 45q1 8 5 29.5t9 51t11.5 64.5t13.5 70q5 25 13.5 71.5t18.5 99t20 104.5t18 90q4 25 19.5 47t37 37.5t48 24t52.5 6.5
q32 -3 58.5 -10.5t46.5 -15.5q13 -5 23.5 -11t19.5 -12l4 -2l1 -1q15 -11 25 -21t16 -18q7 -10 11 -17q6 -16 10 -36q3 -17 3.5 -42t-7.5 -57zM296 637q-23 13 -40 1t-28 -34.5t-17.5 -48.5t-8.5 -39q-9 -42 -19 -87t-18 -86q48 0 79 19.5t49 44t25.5 48.5t9.5 33
q4 18 5 42.5t-4 50.5q-2 8 -6 18q-8 17 -27 38z" />
    <glyph glyph-name="AE" unicode="&#xc6;" horiz-adv-x="1050" 
d="M806 707q19 -3 50.5 -6.5t68.5 -7t76 -5.5t72 -0.5t57 6.5t31 17q-11 -40 -30 -68q-8 -12 -19 -23t-24.5 -18t-30 -9t-36.5 3q-33 9 -59.5 20t-50 21.5t-46.5 20.5t-48 16q-6 -26 -14.5 -65.5t-17.5 -84t-18 -91t-17 -87.5h198l-18 -67h-192q-3 -16 -5 -28t-4 -20
q-14 -76 -23.5 -146.5t-14.5 -118.5h329l-19 -71h-353q-20 1 -40 7t-36.5 22t-26 42.5t-8.5 67.5q2 55 14 126.5t29 146.5h-133q-20 -51 -39 -103.5t-39 -104t-43 -100t-51 -91.5l-96 77q54 68 103 152.5t95 169.5h-119l7 44h136q42 76 79 140t70 102q18 21 36.5 37t35.5 28
q-5 12 -9.5 21t-8.5 15q-4 7 -9 11q-18 23 -53.5 42.5t-96.5 19.5q-66 0 -116.5 -27t-87 -71.5t-59 -102t-32.5 -117.5t-8.5 -118t14.5 -104.5t36.5 -76.5t56.5 -34q-73 -21 -128 -10q-24 5 -46.5 17.5t-39.5 36t-26.5 60t-7.5 89.5q1 19 8.5 62.5t26.5 98t51 112t82 105.5
t119 78.5t163 30.5q55 0 97.5 -7.5t73.5 -20t52 -27.5t35 -30q27 5 53.5 2t43.5 -6zM589 351v3q6 26 11.5 52t10.5 51q11 35 16 64t6 54q0 2 0.5 4.5t0.5 4.5l-1 -2v18q-27 -15 -51 -42q-37 -42 -65 -95t-53 -112h125z" />
    <glyph glyph-name="ae" unicode="&#xe6;" horiz-adv-x="672" 
d="M693 190q-23 -88 -61 -139.5t-79 -78.5t-79.5 -35.5t-60.5 -8.5q-57 -5 -104 25t-62 98v1l-2 12t-1 13q-10 -30 -22 -57t-29 -47.5t-39.5 -32.5t-52.5 -12q-31 0 -51.5 14t-33.5 36.5t-18.5 52t-6.5 59.5q-3 71 15 162q13 68 39 119.5t60 83.5t75 42.5t85 -2.5
q19 -6 32 -25q31 11 63.5 10.5t55.5 -4.5q16 11 31 18t28 11q2 1 4.5 1t5.5 1q12 3 21.5 3.5t17.5 0.5t15 -1q29 -3 47.5 -14t28.5 -28t11.5 -38t-4.5 -43q-2 -8 -4 -12t-2 -5q-31 -59 -67.5 -95.5t-71 -56.5t-63 -27.5t-43.5 -8.5q-9 -69 0 -119.5t41 -68.5q37 -9 67.5 -5
t56 17t45.5 33t35 42q36 52 57 124zM541 459q-8 0 -24.5 -1t-37 -15.5t-42.5 -47.5t-40 -96q-6 -20 -10.5 -39t-8.5 -38q36 10 65 28t50 39t36 43t25 40t14 29.5t5 12.5q2 17 -2.5 26t-11.5 14q-8 4 -18 5zM135 -23q22 0 38.5 19t30 49t24.5 67t23 73q2 24 5.5 45t5.5 35h1
l27 161q-5 12 -16.5 20t-32.5 8q-24 0 -42 -20.5t-31.5 -52t-23 -69.5t-15.5 -74t-9 -65t-4 -42h-1q-1 -6 -3.5 -31t-2 -52.5t5.5 -49t20 -21.5z" />
    <glyph glyph-name="oe" unicode="&#x153;" horiz-adv-x="728" 
d="M748 194q-15 -58 -37 -100.5t-48.5 -71t-54.5 -46.5t-54 -27.5t-48.5 -13t-37.5 -3.5q-49 -4 -91 17t-63 70q-32 -42 -65.5 -61t-61.5 -25q-46 -12 -89.5 -1t-72.5 46t-37 95t16 146q22 77 49.5 129t56.5 84.5t57 49t52 23.5q3 2 10 3q12 2 21.5 3t17.5 1t15 -1v-1
q40 -3 60.5 -22.5t25.5 -46.5q6 -7 11.5 -15.5t10.5 -20.5q1 -2 1 -3t1 -2q35 52 71.5 76.5t65.5 32.5q6 2 10 2q12 3 21.5 3.5t17.5 0.5t15 -1q29 -2 47.5 -13.5t28.5 -28.5t11.5 -38t-3.5 -42q-2 -4 -2.5 -7t-2.5 -6q-1 -2 -1 -3t-1 -2q-30 -59 -66.5 -95t-71 -56
t-63.5 -27.5t-44 -8.5q-9 -70 0 -120.5t41 -68.5q37 -9 67.5 -5t56 17t45.5 33t35 42q36 52 57 125zM596 463q-8 0 -24.5 -1t-37 -15.5t-42.5 -47.5t-40 -96q-6 -20 -10.5 -39t-8.5 -37q55 15 92 46.5t59.5 63.5t32.5 56t11 26q2 17 -2.5 26t-11.5 13q-8 4 -18 5zM140 300
q-16 -56 -23.5 -106.5t-6 -92t13.5 -70t35 -39.5q5 -1 9 -1.5t8 -1.5q12 0 29 8t35 31.5t36 67t33 114.5q15 83 19 135q-8 -3 -15.5 -4t-13.5 -1q-7 0 -14 1q27 45 30.5 69.5t-3.5 35.5q-8 13 -27 14q-8 0 -24.5 -1.5t-37.5 -15.5t-43 -47t-40 -96z" />
    <glyph glyph-name="OE" unicode="&#x152;" horiz-adv-x="952" 
d="M708 729q19 -3 50.5 -6.5t68.5 -7t76 -5.5t72 -0.5t57 7t31 16.5q-11 -40 -30 -68q-8 -12 -19 -22.5t-24.5 -17.5t-30 -9t-36.5 3q-33 9 -59.5 19.5t-50 21t-46.5 20.5t-48 16q-6 -26 -14.5 -65t-17.5 -83.5t-18 -91.5t-17 -88h198l-18 -66h-192q-3 -17 -5 -29t-4 -20
q-14 -76 -23.5 -146t-14.5 -118h329l-19 -72h-354l2 6q-30 4 -47.5 16.5t-25.5 29.5t-10 38t0 43q-35 -45 -71.5 -70t-70.5 -39q-47 -19 -94.5 -21.5t-89.5 13t-75 49t-50.5 85.5t-16.5 124t27 164q31 111 69.5 187t78.5 125t79.5 75t72.5 38q2 6 31 9q15 3 27.5 4t21.5 1
q11 0 19 -2l1 -1q60 -5 90 -33.5t38 -70.5q8 -8 17 -20q2 13 3.5 23.5t3.5 18.5q2 9 3 16q16 6 34 8.5t35 2t31.5 -2.5t25.5 -4zM213 476q-24 -83 -35.5 -159t-8.5 -137.5t20.5 -104.5t52.5 -59q6 -1 11.5 -2t10.5 -2q15 -1 34 2t41 14.5t44.5 33.5t44.5 59t42 91t36 130
q12 72 16.5 125.5t2.5 94.5q-14 -14 -31 -19.5t-31 -6.5q-17 -2 -34 2q20 34 30.5 59.5t14.5 44t2 31.5t-7 21q-12 19 -40 22q-12 0 -36.5 -2t-55.5 -23.5t-63.5 -71t-60.5 -143.5z" />
  </font>
</defs>
</svg>
